<svg width="324" height="324" viewBox="0 0 324 324" fill="none" xmlns="http://www.w3.org/2000/svg">
<path d="M324 247.795H0V247.957H324V247.795Z" fill="#EBEBEB"/>
<path d="M55.4559 253.964H33.9941V254.126H55.4559V253.964Z" fill="#EBEBEB"/>
<path d="M116.53 252.208H88.3418V252.37H116.53V252.208Z" fill="#EBEBEB"/>
<path d="M77.9739 257.308H52.8639V257.47H77.9739V257.308Z" fill="#EBEBEB"/>
<path d="M291.535 258.895H263.548V259.057H291.535V258.895Z" fill="#EBEBEB"/>
<path d="M257.774 258.895H245.592V259.057H257.774V258.895Z" fill="#EBEBEB"/>
<path d="M178.2 256.161H154.509V256.323H178.2V256.161Z" fill="#EBEBEB"/>
<path d="M153.576 218.894H28.4537C27.4735 218.893 26.5341 218.502 25.8416 217.808C25.1491 217.115 24.7601 216.175 24.7601 215.194V39.3077C24.7687 38.3331 25.1614 37.4012 25.8529 36.7145C26.5445 36.0278 27.4791 35.6417 28.4537 35.64H153.576C154.557 35.64 155.499 36.0298 156.192 36.7237C156.886 37.4176 157.276 38.3588 157.276 39.3401V215.194C157.276 216.176 156.886 217.117 156.192 217.811C155.499 218.505 154.557 218.894 153.576 218.894ZM28.4537 35.7696C27.5165 35.7713 26.6182 36.1448 25.9561 36.8082C25.294 37.4715 24.9221 38.3704 24.9221 39.3077V215.194C24.9221 216.132 25.294 217.031 25.9561 217.694C26.6182 218.357 27.5165 218.731 28.4537 218.732H153.576C154.514 218.731 155.413 218.357 156.076 217.694C156.739 217.031 157.112 216.132 157.114 215.194V39.3077C157.112 38.3698 156.739 37.4709 156.076 36.8078C155.413 36.1446 154.514 35.7713 153.576 35.7696H28.4537Z" fill="#EBEBEB"/>
<path d="M293.745 218.894H168.616C167.635 218.893 166.695 218.502 166.002 217.809C165.308 217.115 164.918 216.175 164.916 215.194V39.3077C164.926 38.3325 165.32 37.4007 166.013 36.7141C166.706 36.0276 167.641 35.6417 168.616 35.64H293.745C294.718 35.6434 295.651 36.0303 296.342 36.7168C297.032 37.4033 297.423 38.3342 297.432 39.3077V215.194C297.432 216.173 297.044 217.113 296.353 217.806C295.662 218.5 294.724 218.891 293.745 218.894ZM168.616 35.7696C167.678 35.7713 166.779 36.1446 166.116 36.8078C165.453 37.4709 165.08 38.3698 165.078 39.3077V215.194C165.08 216.132 165.453 217.031 166.116 217.694C166.779 218.357 167.678 218.731 168.616 218.732H293.745C294.683 218.731 295.582 218.357 296.245 217.694C296.908 217.031 297.281 216.132 297.283 215.194V39.3077C297.281 38.3698 296.908 37.4709 296.245 36.8078C295.582 36.1446 294.683 35.7713 293.745 35.7696H168.616Z" fill="#EBEBEB"/>
<path d="M227.435 49.8895H185.373V103.181H227.435V49.8895Z" fill="#EBEBEB"/>
<path d="M183.844 103.175H185.373V49.883H183.844V103.175Z" fill="#E0E0E0"/>
<path d="M222.614 98.3535V54.7042H190.188V98.3535H222.614Z" fill="white"/>
<path d="M211.058 72.8719C213.626 70.3033 213.626 66.1389 211.058 63.5703C208.489 61.0018 204.325 61.0018 201.756 63.5703C199.187 66.1389 199.187 70.3033 201.756 72.8719C204.325 75.4404 208.489 75.4404 211.058 72.8719Z" fill="#F0F0F0"/>
<path d="M216.328 81.4536H196.487V84.4668H216.328V81.4536Z" fill="#F0F0F0"/>
<path d="M216.328 86.5015H196.487V89.5147H216.328V86.5015Z" fill="#F0F0F0"/>
<path d="M283.001 81.3499H240.939V134.641H283.001V81.3499Z" fill="#EBEBEB"/>
<path d="M239.417 134.648H240.946V81.3564H239.417V134.648Z" fill="#E0E0E0"/>
<path d="M278.186 129.827V86.1775H245.76V129.827H278.186Z" fill="white"/>
<path d="M261.973 123.12C260.339 123.124 258.74 122.643 257.379 121.738C256.018 120.832 254.956 119.544 254.327 118.035C253.699 116.526 253.532 114.864 253.848 113.26C254.164 111.657 254.949 110.183 256.103 109.025C257.257 107.867 258.728 107.078 260.331 106.757C261.934 106.436 263.596 106.597 265.107 107.221C266.618 107.845 267.91 108.903 268.819 110.261C269.729 111.619 270.215 113.217 270.216 114.852C270.216 117.04 269.348 119.139 267.803 120.689C266.258 122.239 264.162 123.113 261.973 123.12ZM261.973 107.309C260.48 107.309 259.021 107.752 257.779 108.581C256.538 109.411 255.57 110.59 254.999 111.969C254.428 113.348 254.278 114.866 254.569 116.331C254.861 117.795 255.58 119.14 256.635 120.196C257.691 121.252 259.036 121.971 260.501 122.262C261.965 122.553 263.483 122.404 264.862 121.833C266.242 121.261 267.421 120.294 268.25 119.052C269.08 117.811 269.523 116.351 269.523 114.858C269.523 112.855 268.727 110.934 267.312 109.518C265.896 108.101 263.976 107.304 261.973 107.302V107.309Z" fill="#F0F0F0"/>
<path d="M252.046 101.717H271.888V99.7531H252.046V101.717Z" fill="#F0F0F0"/>
<path d="M252.046 98.4247H271.888V96.4613H252.046V98.4247Z" fill="#F0F0F0"/>
<path d="M255.396 95.1264H268.544V93.163H255.396V95.1264Z" fill="#F0F0F0"/>
<path d="M285.334 172.634H41.6858V176.159H285.334V172.634Z" fill="#F5F5F5"/>
<path d="M54.6458 172.634H41.6858V176.159H54.6458V172.634Z" fill="#E6E6E6"/>
<path d="M63.2837 159.188H67.9817C68.5386 159.188 69.0726 159.409 69.4663 159.803C69.86 160.196 70.0812 160.73 70.0812 161.287V172.634H61.1842V161.287C61.1842 160.73 61.4054 160.196 61.7991 159.803C62.1929 159.409 62.7269 159.188 63.2837 159.188Z" fill="#F5F5F5"/>
<path d="M67.9104 157.101H63.3614C63.1681 157.101 63.0115 157.258 63.0115 157.451V158.844C63.0115 159.037 63.1681 159.194 63.3614 159.194H67.9104C68.1036 159.194 68.2603 159.037 68.2603 158.844V157.451C68.2603 157.258 68.1036 157.101 67.9104 157.101Z" fill="#E6E6E6"/>
<path d="M51.3476 155.397H56.0456C56.5957 155.399 57.1232 155.616 57.5146 156.003C57.9061 156.389 58.1301 156.914 58.1386 157.464V172.608H49.248V157.464C49.2566 156.913 49.4815 156.387 49.8743 156C50.2671 155.614 50.7963 155.397 51.3476 155.397Z" fill="#E6E6E6"/>
<path d="M52.9545 151.775H54.432C54.6038 151.775 54.7687 151.843 54.8902 151.964C55.0117 152.086 55.08 152.251 55.08 152.423V157.205H52.2936V152.423C52.2936 152.336 52.3107 152.251 52.3441 152.172C52.3775 152.092 52.4264 152.02 52.4879 151.96C52.5495 151.899 52.6225 151.852 52.7026 151.82C52.7827 151.788 52.8684 151.773 52.9545 151.775Z" fill="#E6E6E6"/>
<path d="M260.438 172.634H253.128V156.797C253.128 156.212 253.36 155.652 253.774 155.239C254.187 154.825 254.747 154.593 255.331 154.593H258.26C258.845 154.593 259.405 154.825 259.818 155.239C260.232 155.652 260.464 156.212 260.464 156.797V172.634H260.438Z" fill="#F5F5F5"/>
<path d="M255.001 154.587H258.571C258.775 154.587 258.941 154.422 258.941 154.218V152.15C258.941 151.946 258.775 151.781 258.571 151.781H255.001C254.797 151.781 254.632 151.946 254.632 152.15V154.218C254.632 154.422 254.797 154.587 255.001 154.587Z" fill="#E6E6E6"/>
<path d="M250.815 172.627H244.406V158.728C244.406 158.212 244.611 157.718 244.976 157.353C245.34 156.988 245.835 156.784 246.35 156.784H248.897C249.412 156.784 249.907 156.988 250.271 157.353C250.636 157.718 250.841 158.212 250.841 158.728V172.627H250.815Z" fill="#F5F5F5"/>
<path d="M246.039 156.81H249.175C249.354 156.81 249.499 156.664 249.499 156.486V154.671C249.499 154.492 249.354 154.347 249.175 154.347H246.039C245.86 154.347 245.715 154.492 245.715 154.671V156.486C245.715 156.664 245.86 156.81 246.039 156.81Z" fill="#E6E6E6"/>
<path d="M275.724 172.634H263.308V157.872C263.308 157.214 263.57 156.583 264.035 156.117C264.501 155.652 265.132 155.39 265.79 155.39H273.249C273.907 155.39 274.538 155.652 275.004 156.117C275.469 156.583 275.73 157.214 275.73 157.872V172.634H275.724Z" fill="#E6E6E6"/>
<path d="M271.48 157.224H267.559V152.565C267.559 152.357 267.642 152.158 267.789 152.011C267.936 151.864 268.135 151.781 268.343 151.781H270.696C270.903 151.781 271.103 151.864 271.25 152.011C271.397 152.158 271.48 152.357 271.48 152.565V157.224Z" fill="#E6E6E6"/>
<path d="M198.249 158.864H200.601C201.055 158.864 201.49 159.044 201.811 159.365C202.132 159.686 202.312 160.121 202.312 160.574V172.634H196.538V160.574C196.538 160.121 196.719 159.686 197.039 159.365C197.36 159.044 197.795 158.864 198.249 158.864Z" fill="#F5F5F5"/>
<path d="M200.848 156.725H198.009C197.852 156.725 197.724 156.853 197.724 157.01V158.585C197.724 158.743 197.852 158.87 198.009 158.87H200.848C201.005 158.87 201.133 158.743 201.133 158.585V157.01C201.133 156.853 201.005 156.725 200.848 156.725Z" fill="#E6E6E6"/>
<path d="M205.643 160.561H207.703C208.1 160.561 208.481 160.719 208.762 161C209.043 161.281 209.2 161.661 209.2 162.058V172.634H204.12V162.058C204.12 161.86 204.16 161.663 204.236 161.479C204.313 161.296 204.426 161.13 204.568 160.991C204.709 160.851 204.877 160.742 205.062 160.668C205.247 160.594 205.444 160.558 205.643 160.561Z" fill="#F5F5F5"/>
<path d="M207.917 158.682H205.435C205.296 158.682 205.183 158.795 205.183 158.935V160.309C205.183 160.448 205.296 160.561 205.435 160.561H207.917C208.057 160.561 208.17 160.448 208.17 160.309V158.935C208.17 158.795 208.057 158.682 207.917 158.682Z" fill="#E6E6E6"/>
<path d="M186.397 159.486H192.359C192.874 159.486 193.369 159.691 193.733 160.055C194.098 160.42 194.303 160.914 194.303 161.43V172.66H184.473V161.41C184.478 160.901 184.682 160.415 185.042 160.055C185.402 159.695 185.888 159.491 186.397 159.486Z" fill="#E6E6E6"/>
<path d="M188.438 156.725H190.318C190.479 156.725 190.634 156.789 190.748 156.904C190.863 157.018 190.927 157.173 190.927 157.334V160.879H187.829V157.334C187.829 157.173 187.893 157.018 188.008 156.904C188.122 156.789 188.277 156.725 188.438 156.725Z" fill="#E6E6E6"/>
<path d="M63.2966 197.335L65.8044 199.992C65.8044 199.992 67.3596 196.512 69.6535 195.139C69.7794 195.059 69.8842 194.95 69.9591 194.822C70.034 194.693 70.0768 194.548 70.0838 194.399C70.0908 194.25 70.0618 194.102 69.9993 193.967C69.9368 193.832 69.8426 193.713 69.7248 193.622L68.3381 192.527C68.1721 192.39 67.9636 192.315 67.7484 192.315C67.5332 192.315 67.3247 192.39 67.1587 192.527C66.1478 193.422 64.152 195.333 63.2966 197.335Z" fill="#E6E6E6"/>
<path d="M62.856 192.845L71.9928 206.291L66.8088 211.475L53.3304 202.344C52.4986 201.778 51.8019 201.035 51.29 200.169C50.7781 199.302 50.4637 198.334 50.369 197.332C50.2743 196.33 50.4018 195.32 50.7423 194.373C51.0828 193.426 51.628 192.566 52.339 191.853C53.0513 191.138 53.9131 190.588 54.8627 190.245C55.8123 189.902 56.8261 189.773 57.8314 189.868C58.8367 189.963 59.8086 190.279 60.6773 190.793C61.546 191.308 62.29 192.009 62.856 192.845Z" fill="#F0F0F0"/>
<path d="M60.2186 192.78L64.962 199.169C64.962 199.169 69.2193 192.041 74.5329 189.657C74.8228 189.517 75.075 189.31 75.2685 189.053C75.4619 188.796 75.591 188.496 75.645 188.179C75.6989 187.862 75.6761 187.536 75.5784 187.23C75.4808 186.923 75.3112 186.644 75.0837 186.417L72.3557 183.689C72.0219 183.349 71.5788 183.138 71.1046 183.093C70.6304 183.048 70.1555 183.171 69.7637 183.442C67.392 185.049 62.519 188.659 60.2186 192.78Z" fill="#F0F0F0"/>
<path d="M255.448 197.335L257.956 199.992C257.956 199.992 259.511 196.512 261.805 195.139C261.931 195.059 262.036 194.95 262.111 194.822C262.186 194.693 262.228 194.548 262.235 194.399C262.242 194.25 262.213 194.102 262.151 193.967C262.088 193.832 261.994 193.713 261.876 193.622L260.496 192.527C260.328 192.391 260.119 192.317 259.903 192.317C259.687 192.317 259.478 192.391 259.31 192.527C258.299 193.422 256.271 195.333 255.448 197.335Z" fill="#E6E6E6"/>
<path d="M254.982 192.845L264.118 206.291L258.934 211.475L245.488 202.338C244.657 201.772 243.96 201.029 243.448 200.162C242.936 199.296 242.622 198.327 242.527 197.325C242.432 196.324 242.56 195.313 242.9 194.366C243.241 193.419 243.786 192.559 244.497 191.847C245.209 191.137 246.07 190.594 247.016 190.254C247.963 189.915 248.973 189.788 249.974 189.884C250.975 189.979 251.942 190.294 252.808 190.806C253.674 191.317 254.416 192.014 254.982 192.845Z" fill="#F0F0F0"/>
<path d="M252.37 192.78L257.113 199.169C257.113 199.169 261.371 192.041 266.684 189.657C266.974 189.517 267.227 189.31 267.42 189.053C267.613 188.796 267.743 188.496 267.796 188.179C267.85 187.862 267.828 187.536 267.73 187.23C267.632 186.923 267.463 186.644 267.235 186.417L264.507 183.689C264.175 183.357 263.739 183.151 263.272 183.106C262.805 183.061 262.337 183.18 261.948 183.442C259.537 185.049 254.664 188.659 252.37 192.78Z" fill="#F0F0F0"/>
<path d="M162 277.059C231.389 277.059 287.641 273.775 287.641 269.724C287.641 265.672 231.389 262.388 162 262.388C92.6105 262.388 36.3593 265.672 36.3593 269.724C36.3593 273.775 92.6105 277.059 162 277.059Z" fill="#F5F5F5"/>
<path d="M163.724 85.4647H163.076V89.8582H163.724V85.4647Z" fill="#407BFF"/>
<path d="M163.724 70.9171H163.076V82.0044H163.724V70.9171Z" fill="#407BFF"/>
<path d="M161.456 62.8236H64.9297V146.04H161.456V62.8236Z" fill="#407BFF"/>
<path d="M63.8087 146.04H64.9297L64.9297 62.8236H63.8087L63.8087 146.04Z" fill="#407BFF"/>
<path opacity="0.2" d="M63.8087 146.04H64.9297L64.9297 62.8236H63.8087L63.8087 146.04Z" fill="black"/>
<path opacity="0.8" d="M160.996 145.619V63.2383L65.3962 63.2383V145.619H160.996Z" fill="white"/>
<g opacity="0.4">
<path opacity="0.2" d="M154.872 104.529L154.38 103.401C154.342 103.326 154.301 103.252 154.256 103.181C154.221 102.957 154.156 102.739 154.062 102.533C153.667 101.632 152.876 101.107 152.293 101.367C152.183 101.42 152.084 101.495 152.004 101.588C151.924 101.68 151.864 101.788 151.826 101.904L150.582 99.0598L151.075 97.7638L152.708 97.051C153.646 94.5718 154.039 91.9197 153.861 89.275L150.297 98.4118L146.539 89.8452C146.463 92.5129 146.965 95.1655 148.01 97.6212L149.669 98.2692L150.031 99.0922L149.066 101.555C149.024 101.441 148.959 101.337 148.875 101.249C148.792 101.161 148.691 101.091 148.58 101.043C148.453 100.999 148.318 100.984 148.185 100.999C148.052 101.013 147.923 101.057 147.809 101.127H147.776L147.686 101.062C147.592 101.001 147.489 100.955 147.381 100.926C147.328 100.914 147.272 100.914 147.219 100.926C147.181 100.944 147.148 100.971 147.122 101.004C147.104 101.05 147.091 101.098 147.083 101.146C147.076 101.213 147.076 101.28 147.083 101.347V101.393C147.083 101.464 147.083 101.542 147.083 101.619C147.087 101.636 147.087 101.654 147.083 101.671C147.086 101.719 147.086 101.766 147.083 101.814C146.989 101.958 146.91 102.112 146.85 102.274C146.688 102.584 146.624 102.936 146.667 103.283C146.709 103.63 146.857 103.956 147.09 104.218C146.928 105.034 146.688 105.883 146.616 106.512C146.614 106.566 146.614 106.62 146.616 106.674C146.602 106.89 146.602 107.106 146.616 107.322C146.331 108.618 146.033 109.914 145.722 111.21C145.372 112.733 144.996 114.242 144.575 115.746C144.197 117.2 143.745 118.634 143.221 120.042C143.059 120.47 142.878 120.878 142.696 121.247C142.508 121.105 142.32 120.956 142.139 120.794C141.6 120.337 141.085 119.852 140.597 119.342C140.091 118.83 139.618 118.292 139.164 117.735C138.711 117.178 138.257 116.608 137.83 116.011C136.985 114.816 136.21 113.571 135.51 112.285C135.147 111.637 134.816 110.989 134.499 110.341C134.428 110.199 134.369 110.063 134.298 109.914L134.784 109.097C134.091 108.092 133.211 107.229 132.192 106.557C131.511 106.027 130.731 105.637 129.898 105.41C129.502 105.303 129.099 105.221 128.693 105.164L128.356 105.132C128.479 104.717 128.563 104.484 128.563 104.484C128.068 104.31 127.559 104.182 127.04 104.101C126.969 104.215 126.906 104.334 126.852 104.458C126.315 104.16 125.77 103.842 125.77 103.842C125.77 103.842 125.641 103.907 125.44 104.03C124.902 102.805 124.634 101.479 124.656 100.142C128.945 100.369 132.801 97.9841 132.432 94.6469C132.594 94.564 132.745 94.4594 132.879 94.3358C134.175 93.163 133.378 92.0938 132.166 91.4782C135.089 87.305 133.067 81.6415 128.557 79.393C124.941 77.598 118.292 77.5332 118.72 79.879C114.592 80.527 115.234 88.4002 109.901 89.3009C110.821 91.7633 112.363 92.6899 113.666 92.9945C113.666 93.2083 113.666 93.4092 113.666 93.6036C113.714 95.1349 114.344 96.5902 115.428 97.6736C116.511 98.7569 117.966 99.3869 119.498 99.4356L119.537 99.5717C119.569 99.7078 119.595 99.8374 119.627 99.9799C119.66 100.122 119.666 100.187 119.679 100.284C119.722 100.514 119.752 100.745 119.77 100.978C119.919 102.689 119.407 104.218 117.048 104.866C116.996 104.697 116.97 104.587 116.97 104.587C116.4 104.608 115.832 104.677 115.273 104.795C115.312 104.671 115.338 104.561 115.376 104.445C114.808 104.565 114.249 104.728 113.705 104.931C113.64 105.067 113.575 105.203 113.517 105.339C112.729 105.474 111.972 105.749 111.281 106.149C109.887 106.624 108.615 107.401 107.555 108.423C107.094 108.847 106.685 109.323 106.337 109.842C106.337 109.842 106.654 110.341 107.095 111.138C106.946 111.974 106.777 112.836 106.59 113.666C106.285 115.007 105.98 116.348 105.624 117.67C105.268 118.992 104.866 120.301 104.458 121.61C104.049 122.919 103.583 124.202 103.077 125.453C102.954 125.744 102.805 126.146 102.74 126.276C102.621 126.52 102.49 126.758 102.345 126.989C102.028 127.507 101.652 128.045 101.25 128.583C100.44 129.652 99.5717 130.74 98.658 131.823C97.1352 133.644 95.5476 135.458 93.9794 137.272C93.0062 136.753 91.9031 136.528 90.8042 136.624L88.8602 136.793C88.5582 136.819 88.2643 136.905 87.9957 137.045C87.7271 137.186 87.4891 137.378 87.2955 137.611C87.102 137.845 86.9567 138.114 86.8683 138.404C86.7798 138.694 86.7498 138.999 86.7801 139.301L86.9097 140.519C86.9499 140.921 87.1144 141.301 87.3804 141.605C87.6464 141.909 88.0005 142.123 88.3937 142.217C88.9018 142.327 89.4277 142.327 89.9359 142.217L92.7741 141.653C93.3094 141.547 93.8139 141.322 94.2502 140.994C94.6866 140.667 95.0436 140.245 95.2949 139.761L95.3273 139.696C97.4657 138.05 99.5069 136.326 101.483 134.473C102.533 133.475 103.583 132.458 104.581 131.337C105.086 130.773 105.579 130.196 106.065 129.542C106.326 129.187 106.567 128.817 106.784 128.434C106.989 128.072 107.175 127.7 107.341 127.319C107.847 126.263 108.307 125.187 108.741 124.079L108.858 124.416C109.246 127.39 109.745 130.838 110.38 134.855H109.732L110.283 136.929C110.374 138.711 110.212 141.776 109.953 145.612H135.743C133.715 140.104 132.056 136.618 132.056 136.618L132.101 134.855H131.084C130.873 131.255 130.942 127.643 131.291 124.053C131.309 124.035 131.322 124.012 131.33 123.988C131.632 123.52 131.825 122.989 131.893 122.436C131.962 121.883 131.904 121.322 131.725 120.794C131.907 119.64 132.123 118.4 132.373 117.074C132.808 117.722 133.248 118.37 133.728 119.018C134.75 120.389 135.893 121.667 137.143 122.835C137.773 123.434 138.437 123.997 139.132 124.52C139.482 124.785 139.838 125.045 140.201 125.284C140.383 125.414 140.571 125.524 140.752 125.641L141.031 125.816L141.167 125.906L141.258 125.958L141.465 126.068C141.606 126.149 141.756 126.215 141.912 126.263C142.086 126.327 142.266 126.373 142.45 126.399C142.838 126.461 143.233 126.447 143.616 126.36C144.191 126.222 144.721 125.941 145.158 125.544C145.631 125.097 146.017 124.568 146.299 123.982C146.717 123.154 147.049 122.285 147.29 121.39C147.746 119.798 148.098 118.179 148.347 116.543C148.599 114.949 148.794 113.348 148.962 111.761C149.059 110.698 149.137 109.655 149.202 108.592C149.582 108.591 149.961 108.532 150.323 108.417L153.077 107.523C153.556 107.355 153.997 107.093 154.373 106.752C154.679 106.481 154.893 106.12 154.982 105.721C155.072 105.322 155.033 104.905 154.872 104.529ZM142.113 122.096C142.113 122.096 142.106 122.116 142.119 122.096H142.113ZM147.213 103.622C147.097 103.427 147.032 103.206 147.023 102.98C147.014 102.754 147.061 102.529 147.161 102.326L147.2 102.241L147.239 102.41C147.236 102.425 147.236 102.44 147.239 102.455V102.604C147.241 102.619 147.241 102.635 147.239 102.65C147.239 102.714 147.239 102.773 147.239 102.818C147.247 103.086 147.24 103.354 147.219 103.622H147.213ZM148.781 102.708C148.7 102.421 148.589 102.143 148.45 101.879C148.437 101.852 148.421 101.826 148.405 101.801C148.36 101.723 148.321 101.652 148.275 101.587L148.198 101.464C148.181 101.449 148.168 101.432 148.159 101.412C148.238 101.412 148.317 101.425 148.392 101.451C148.781 101.6 148.936 102.131 148.787 102.708H148.781ZM150.427 102.637L149.591 103.019C149.368 103.12 149.152 103.235 148.943 103.362C148.943 103.362 148.943 103.291 148.943 103.259C148.98 103.185 149.013 103.11 149.04 103.032L150.336 99.6689L151.392 102.066C151.202 102.09 151.018 102.153 150.853 102.251C150.688 102.349 150.545 102.48 150.433 102.637H150.427ZM152.941 102.131H152.863C152.652 102.072 152.434 102.043 152.215 102.047C152.28 101.946 152.372 101.865 152.481 101.814C152.883 101.639 153.42 101.976 153.712 102.572C153.482 102.375 153.216 102.225 152.928 102.131H152.941Z" fill="#407BFF"/>
<path d="M108.981 145.619H69.984C70.0895 144.509 70.6212 143.484 71.4672 142.759C72.3133 142.034 73.4076 141.665 74.52 141.731H102.876C104.145 141.789 105.376 142.178 106.447 142.86C107.518 143.542 108.392 144.493 108.981 145.619Z" fill="#407BFF"/>
<path d="M105.008 124.047C107.231 124.248 107.03 122.589 107.03 122.589C107.03 122.589 105.196 118.053 103.615 117.294C105.326 116.42 107.101 114.702 106.116 112.143C105.132 109.583 101.328 108.255 98.0295 108.799C98.7617 110.095 95.3338 111.508 91.2125 111.216C87.0912 110.925 84.0067 113.86 86.4821 115.752C82.4839 115.752 82.0692 121.15 84.9917 124.526C90.1044 130.436 93.3444 135.095 96.8047 135.737C100.265 136.378 108.683 131.434 105.008 124.047Z" fill="#263238"/>
<path d="M119.99 145.619H77.4878C79.8012 142.294 83.8965 139.877 90.7912 139.339L93.5776 139.119H93.6813C93.6843 139.089 93.6843 139.059 93.6813 139.028C93.6818 138.795 93.7079 138.563 93.7591 138.335C92.7482 138.335 90.9079 138.225 91.3161 137.007C91.5559 136.294 91.854 136.067 92.2622 136.132C92.201 136.049 92.1572 135.955 92.1335 135.855C92.1098 135.755 92.1066 135.652 92.1242 135.55C92.1417 135.449 92.1797 135.353 92.2357 135.267C92.2917 135.181 92.3647 135.107 92.4501 135.05C93.7461 133.993 94.0248 135.16 94.8153 136.929C98.4925 137.058 102.132 137.713 105.624 138.873C108.837 139.004 111.993 139.768 114.91 141.121C116.976 142.138 118.731 143.691 119.99 145.619Z" fill="#407BFF"/>
<path opacity="0.4" d="M119.99 145.619H77.4878C79.8012 142.294 83.8965 139.877 90.7912 139.339L93.5776 139.119H93.6813C93.6843 139.089 93.6843 139.059 93.6813 139.028C93.6818 138.795 93.7079 138.563 93.7591 138.335C92.7482 138.335 90.9079 138.225 91.3161 137.007C91.5559 136.294 91.854 136.067 92.2622 136.132C92.201 136.049 92.1572 135.955 92.1335 135.855C92.1098 135.755 92.1066 135.652 92.1242 135.55C92.1417 135.449 92.1797 135.353 92.2357 135.267C92.2917 135.181 92.3647 135.107 92.4501 135.05C93.7461 133.993 94.0248 135.16 94.8153 136.929C98.4925 137.058 102.132 137.713 105.624 138.873C108.837 139.004 111.993 139.768 114.91 141.121C116.976 142.138 118.731 143.691 119.99 145.619Z" fill="white"/>
<path d="M95.3208 126.107C96.1826 130.527 97.0509 138.614 93.96 141.562C93.96 141.562 95.256 144.802 103.44 144.802C112.46 144.802 107.678 141.562 107.678 141.562C102.76 140.383 102.883 136.734 103.745 133.3L95.3208 126.107Z" fill="#FF8B7B"/>
<path opacity="0.2" d="M103.738 133.307L95.3143 126.114C95.8586 128.829 96.1278 131.593 96.1179 134.363C96.95 135.635 98.0857 136.679 99.4226 137.402C100.684 138.122 102.126 138.464 103.576 138.387C103.032 136.877 103.298 135.063 103.738 133.307Z" fill="black"/>
<path d="M90.6228 124.416C92.6769 130.041 93.5906 133.443 97.3555 135.523C103.025 138.653 109.318 133.935 108.987 127.805C108.689 122.291 105.384 114.016 99.0986 113.4C97.7129 113.256 96.3135 113.47 95.0335 114.02C93.7536 114.57 92.6357 115.438 91.7862 116.542C90.9366 117.647 90.3837 118.95 90.1801 120.328C89.9765 121.706 90.1289 123.113 90.6228 124.416Z" fill="#FF8B7B"/>
<path d="M93.0593 127.578C94.4978 126.217 95.0033 120.586 92.9815 118.733C97.2518 120.522 103.848 117.917 105.611 115.72C101.477 111.832 93.798 111.586 89.573 115.72C85.3481 119.854 87.4346 124.896 93.0593 127.578Z" fill="#263238"/>
<path d="M90.1238 128.382C90.9994 129.583 92.2445 130.464 93.6684 130.89C95.5541 131.427 96.2604 129.937 95.5152 128.298C94.8672 126.84 93.0787 124.798 91.2902 124.967C89.5018 125.135 89.087 126.911 90.1238 128.382Z" fill="#FF8B7B"/>
<path d="M103.466 129.872C102.878 129.909 102.289 129.828 101.733 129.635C101.176 129.441 100.664 129.138 100.226 128.745C100.206 128.716 100.197 128.681 100.2 128.646C100.203 128.612 100.219 128.579 100.243 128.554C100.268 128.53 100.301 128.515 100.335 128.511C100.37 128.508 100.405 128.517 100.434 128.537C100.912 128.957 101.48 129.264 102.094 129.433C102.707 129.603 103.352 129.631 103.978 129.516C104.017 129.51 104.058 129.52 104.09 129.542C104.123 129.565 104.145 129.6 104.153 129.639C104.159 129.677 104.15 129.715 104.128 129.746C104.107 129.778 104.074 129.8 104.036 129.807C103.848 129.844 103.658 129.865 103.466 129.872Z" fill="#263238"/>
<path d="M99.6494 123.975C99.805 124.461 100.194 124.779 100.505 124.688C100.816 124.597 100.939 124.131 100.777 123.645C100.615 123.159 100.233 122.841 99.9216 122.932C99.6106 123.023 99.4874 123.489 99.6494 123.975Z" fill="#263238"/>
<path d="M105.339 122.31C105.501 122.796 105.883 123.12 106.201 123.029C106.518 122.939 106.635 122.472 106.473 121.986C106.311 121.5 105.929 121.182 105.618 121.273C105.306 121.364 105.177 121.824 105.339 122.31Z" fill="#263238"/>
<path d="M103.887 122.99C103.887 122.99 105.903 125.479 107.549 126.483C106.965 127.526 105.41 127.578 105.41 127.578L103.887 122.99Z" fill="#FF5652"/>
<path d="M97.699 123.386C97.7408 123.37 97.7784 123.345 97.8088 123.313C97.8392 123.28 97.8615 123.241 97.8739 123.198C97.952 122.841 98.118 122.51 98.3568 122.234C98.5956 121.957 98.8996 121.745 99.2412 121.617C99.2777 121.606 99.3116 121.587 99.3409 121.563C99.3702 121.539 99.3943 121.509 99.4118 121.475C99.4293 121.441 99.4399 121.404 99.4428 121.366C99.4458 121.328 99.4412 121.29 99.4291 121.254C99.4025 121.178 99.3483 121.116 99.2774 121.078C99.2065 121.041 99.1241 121.032 99.0468 121.053C98.6163 121.205 98.2308 121.463 97.9252 121.803C97.6197 122.142 97.4038 122.553 97.2972 122.997C97.279 123.074 97.2911 123.155 97.3308 123.224C97.3706 123.293 97.435 123.344 97.5111 123.366C97.5692 123.396 97.6361 123.402 97.699 123.386Z" fill="#263238"/>
<path d="M106.92 120.081C106.962 120.063 107 120.037 107.03 120.003C107.084 119.948 107.114 119.873 107.114 119.796C107.114 119.718 107.084 119.644 107.03 119.588C106.697 119.251 106.288 118.997 105.837 118.847C105.387 118.697 104.908 118.656 104.438 118.727C104.401 118.735 104.366 118.751 104.334 118.773C104.303 118.795 104.277 118.824 104.257 118.856C104.237 118.889 104.224 118.925 104.218 118.963C104.213 119.001 104.215 119.039 104.224 119.076C104.244 119.154 104.293 119.22 104.361 119.262C104.428 119.304 104.509 119.319 104.587 119.303C104.961 119.254 105.341 119.292 105.698 119.414C106.054 119.537 106.377 119.741 106.641 120.01C106.679 120.043 106.723 120.067 106.772 120.079C106.82 120.092 106.871 120.092 106.92 120.081Z" fill="#263238"/>
<path d="M112.545 145.619H91.0959C90.4479 143.15 91.8281 140.759 93.5777 139.139C93.6133 139.109 93.6459 139.077 93.6749 139.041C94.2382 138.537 94.8503 138.09 95.5023 137.706C95.5865 140.59 106.032 142.541 104.957 139.974C108.151 140.564 112.195 143.098 112.545 145.619Z" fill="#407BFF"/>
<path opacity="0.4" d="M112.545 145.619H91.0959C90.4479 143.15 91.8281 140.759 93.5777 139.139C93.6133 139.109 93.6459 139.077 93.6749 139.041C94.2382 138.537 94.8503 138.09 95.5023 137.706C95.5865 140.59 106.032 142.541 104.957 139.974C108.151 140.564 112.195 143.098 112.545 145.619Z" fill="white"/>
</g>
<path opacity="0.2" d="M119.329 145.619H101.263L115.422 63.2383H133.494L119.329 145.619Z" fill="white"/>
<path opacity="0.2" d="M133.229 145.619H125.608L139.774 63.2383H147.394L133.229 145.619Z" fill="white"/>
<path d="M170.068 149.798C170.431 151.094 170.716 152.222 170.988 153.433C171.26 154.645 171.506 155.838 171.746 157.043C172.2 159.46 172.582 161.896 172.841 164.365C173.123 166.863 173.263 169.375 173.262 171.888C173.283 174.519 173.042 177.146 172.543 179.729L172.498 179.943C172.439 180.223 172.34 180.494 172.206 180.747C171.516 181.994 170.574 183.085 169.439 183.948C168.553 184.634 167.61 185.243 166.62 185.769C164.834 186.701 162.972 187.482 161.054 188.101C159.201 188.711 157.354 189.21 155.488 189.624C154.561 189.832 153.628 190.007 152.688 190.175C151.749 190.344 150.835 190.486 149.85 190.603C149.345 190.668 148.834 190.546 148.413 190.26C147.992 189.975 147.69 189.545 147.563 189.052C147.436 188.559 147.494 188.037 147.726 187.584C147.957 187.131 148.346 186.778 148.82 186.592H148.878C150.511 185.944 152.215 185.257 153.848 184.531C155.481 183.805 157.088 183.086 158.656 182.295C160.16 181.558 161.61 180.718 162.998 179.781C163.599 179.382 164.161 178.926 164.676 178.42C164.996 178.143 165.252 177.801 165.428 177.416L165.091 178.433C165.333 176.326 165.392 174.201 165.266 172.083C165.221 170.988 165.123 169.873 165.007 168.765C164.89 167.657 164.761 166.53 164.605 165.408C164.281 163.166 163.897 160.922 163.452 158.676C163.236 157.548 163.002 156.427 162.752 155.313C162.499 154.211 162.24 153.051 161.987 152.034V151.969C161.749 150.911 161.931 149.802 162.493 148.874C163.056 147.947 163.956 147.274 165.004 146.996C166.053 146.719 167.168 146.858 168.116 147.385C169.064 147.913 169.77 148.787 170.087 149.824L170.068 149.798Z" fill="#FF8B7B"/>
<path d="M151.114 186.008L145.871 186.618L147.349 192.689C147.349 192.689 151.937 191.853 152.611 189.009L151.114 186.008Z" fill="#FF8B7B"/>
<path d="M143.441 189.268L144.336 191.542C144.44 191.808 144.617 192.039 144.846 192.209C145.075 192.38 145.347 192.483 145.632 192.508L147.375 192.689L145.871 186.624L144.271 187.272C143.897 187.428 143.601 187.726 143.445 188.099C143.29 188.473 143.289 188.893 143.441 189.268Z" fill="#FF8B7B"/>
<path d="M167.573 141.374C174.312 146.182 175.109 157.982 175.109 157.982L161.942 162C161.942 162 159.557 156.667 159.039 151.846C158.209 144.096 162.745 137.933 167.573 141.374Z" fill="#407BFF"/>
<path d="M139.463 263.503H133.43L130.397 249.532H136.43L139.463 263.503Z" fill="#FF8B7B"/>
<path d="M133.002 261.228H139.78C139.9 261.229 140.016 261.27 140.109 261.345C140.202 261.421 140.267 261.526 140.292 261.643L141.484 267.008C141.513 267.138 141.511 267.272 141.481 267.4C141.45 267.529 141.391 267.649 141.307 267.752C141.224 267.855 141.119 267.937 140.999 267.994C140.879 268.05 140.748 268.079 140.616 268.078C138.251 268.039 137.097 267.903 134.136 267.903C132.302 267.903 129.95 268.091 127.416 268.091C124.883 268.091 124.552 265.589 125.589 265.362C130.242 264.345 130.566 262.939 132.069 261.604C132.324 261.37 132.656 261.237 133.002 261.228Z" fill="#263238"/>
<g opacity="0.2">
<path d="M136.436 249.532H130.397L132.082 257.275L137.998 256.738L136.436 249.532Z" fill="black"/>
</g>
<path d="M117.897 263.503H111.864L108.832 249.532H114.865L117.897 263.503Z" fill="#FF8B7B"/>
<path d="M111.456 261.228H118.234C118.354 261.229 118.47 261.27 118.563 261.345C118.656 261.421 118.721 261.526 118.746 261.643L119.938 267.008C119.967 267.139 119.965 267.274 119.934 267.404C119.903 267.533 119.842 267.654 119.757 267.757C119.673 267.86 119.565 267.942 119.444 267.998C119.323 268.053 119.19 268.081 119.057 268.078C116.685 268.039 115.538 267.903 112.577 267.903C110.743 267.903 104.756 268.091 102.209 268.091C99.6624 268.091 99.3449 265.589 100.382 265.362C105.028 264.345 108.987 262.939 110.471 261.604C110.741 261.36 111.092 261.226 111.456 261.228Z" fill="#263238"/>
<g opacity="0.2">
<path d="M114.865 249.532H108.832L110.51 257.275L116.433 256.738L114.865 249.532Z" fill="black"/>
</g>
<path d="M150.381 186.177C150.381 186.177 122.9 195.696 122.278 204.924C120.619 229.684 130.118 253.673 130.118 253.673H139.19C139.19 253.673 137.797 245.197 136.56 222.763C135.011 194.568 182.859 223.411 173.01 186.177H150.381Z" fill="#263238"/>
<path d="M128.239 251.424C128.194 251.424 129.613 255.552 129.613 255.552L140.111 254.521L139.547 250.776L128.239 251.424Z" fill="#407BFF"/>
<path d="M140.713 186.177C140.713 186.177 98.7553 190.065 99.2413 213.147C99.7532 237.123 108.514 254.327 108.514 254.327H117.482C117.482 254.327 113.899 238.723 114.197 215.11C114.288 208.034 126.703 207.982 140.668 207.185C152.727 206.472 163.996 199.597 168.7 188.458L169.659 186.177H140.713Z" fill="#263238"/>
<path d="M106.078 251.521C106.039 251.521 107.62 255.668 107.62 255.668L118.441 254.891L117.793 251.139L106.078 251.521Z" fill="#407BFF"/>
<path d="M149.209 120.813C149.073 121.28 148.71 121.584 148.405 121.494C148.101 121.403 147.964 120.949 148.101 120.483C148.237 120.016 148.599 119.712 148.904 119.802C149.209 119.893 149.345 120.347 149.209 120.813Z" fill="#263238"/>
<path d="M148.755 121.597C148.755 121.597 146.895 123.975 145.34 124.928C145.936 125.945 147.446 126.004 147.446 126.004L148.755 121.597Z" fill="#FF5652"/>
<path d="M151.632 118.13C151.574 118.127 151.517 118.106 151.47 118.072C151.195 117.841 150.869 117.678 150.518 117.598C150.168 117.518 149.803 117.523 149.455 117.612C149.419 117.624 149.381 117.629 149.344 117.627C149.306 117.624 149.269 117.614 149.235 117.597C149.202 117.58 149.172 117.557 149.147 117.528C149.122 117.5 149.104 117.466 149.092 117.431C149.069 117.358 149.075 117.28 149.109 117.212C149.143 117.145 149.202 117.093 149.273 117.068C149.711 116.95 150.17 116.939 150.613 117.034C151.056 117.13 151.47 117.33 151.82 117.618C151.85 117.641 151.875 117.67 151.894 117.703C151.913 117.735 151.925 117.771 151.93 117.809C151.934 117.846 151.932 117.884 151.922 117.92C151.912 117.957 151.895 117.991 151.872 118.02C151.844 118.057 151.808 118.087 151.766 118.106C151.724 118.126 151.678 118.134 151.632 118.13Z" fill="#263238"/>
<path d="M160.367 126.107C159.505 130.527 158.637 138.614 161.728 141.562C161.728 141.562 160.523 146.04 152.319 146.04C143.299 146.04 148.01 141.562 148.01 141.562C152.928 140.383 152.805 136.734 151.943 133.3L160.367 126.107Z" fill="#FF8B7B"/>
<path d="M161.462 139.378C156.78 139.237 152.095 139.454 147.446 140.026C144.756 140.368 142.276 141.66 140.454 143.67C138.633 145.679 137.589 148.273 137.512 150.984C137.344 157.574 137.901 168.519 140.713 186.196C150.511 188.6 167.32 190.356 172.99 186.196C173.172 182.062 170.534 169.679 172.452 152.099C172.631 150.529 172.483 148.94 172.017 147.431C171.551 145.922 170.777 144.525 169.745 143.33C168.712 142.135 167.443 141.167 166.017 140.487C164.592 139.806 163.041 139.429 161.462 139.378Z" fill="#407BFF"/>
<path d="M146.344 151.807C146.027 154.295 145.619 156.719 145.217 159.175C144.815 161.631 144.349 164.061 143.843 166.497C143.338 168.934 142.793 171.377 142.178 173.826C141.568 176.371 140.799 178.875 139.877 181.323L139.722 181.719L139.605 181.907C138.543 183.531 137.176 184.935 135.581 186.041C134.215 187.01 132.761 187.849 131.24 188.549C129.795 189.216 128.31 189.794 126.794 190.279C125.292 190.768 123.76 191.157 122.206 191.445L120.91 187.505C122.109 186.857 123.399 186.112 124.598 185.373C125.796 184.635 126.995 183.876 128.11 183.079C129.182 182.33 130.198 181.503 131.149 180.604C131.918 179.901 132.56 179.07 133.047 178.148L132.775 178.725C133.425 176.526 133.963 174.297 134.389 172.044C134.847 169.703 135.279 167.34 135.685 164.955L136.884 157.782L138.024 150.608L146.344 151.807Z" fill="#FF8B7B"/>
<path d="M125.414 185.62L118.383 187.7L122.271 193.363C122.271 193.363 124.39 193.24 126.043 189.164L125.414 185.62Z" fill="#FF8B7B"/>
<path d="M116.141 192.074L116.828 193.422C117.087 193.922 117.525 194.306 118.054 194.498C118.584 194.69 119.166 194.676 119.686 194.458L122.278 193.363L118.39 187.7L116.582 189.449C116.236 189.781 116.006 190.216 115.927 190.689C115.848 191.161 115.923 191.647 116.141 192.074Z" fill="#FF8B7B"/>
<path d="M150.265 144.212C153.032 149.273 148.321 162.019 148.321 162.019L134.266 158.553C134.266 158.553 134.382 154.989 137.467 148.185C141.011 140.428 147.258 138.672 150.265 144.212Z" fill="#407BFF"/>
<path d="M165.065 124.416C163.011 130.041 162.097 133.443 158.332 135.523C152.662 138.653 146.37 133.935 146.668 127.805C146.96 122.291 150.271 114.016 156.557 113.4C157.945 113.25 159.349 113.459 160.633 114.007C161.918 114.554 163.04 115.422 163.894 116.527C164.747 117.632 165.303 118.938 165.508 120.319C165.713 121.7 165.561 123.111 165.065 124.416Z" fill="#FF8B7B"/>
<path d="M151.729 125.382C149.695 125.589 149.578 124.267 149.578 124.267C149.578 124.267 148.781 119.951 151.788 117.294C150.219 116.42 148.593 114.702 149.494 112.143C150.394 109.583 153.887 108.255 156.913 108.799C156.265 110.095 159.382 111.508 163.167 111.216C166.951 110.925 169.77 113.86 167.502 115.752C171.169 115.752 172.997 121.999 169.297 124.993C162.298 130.65 162.169 134.894 158.929 135.536C155.689 136.177 148.392 132.775 151.729 125.382Z" fill="#263238"/>
<path d="M152.28 125.265C151.852 126.455 151.05 127.474 149.993 128.168C148.748 128.887 148.418 127.52 148.651 125.673C148.865 123.962 150.155 121.461 151.347 121.707C152.539 121.954 152.928 123.671 152.28 125.265Z" fill="#FF8B7B"/>
<path d="M179.302 166.601C181.323 157.289 184.11 140.843 164.715 139.333L161.825 139.113C161.84 138.851 161.816 138.589 161.754 138.335C162.765 138.335 164.611 138.218 164.203 136.994C163.963 136.287 163.665 136.061 163.257 136.125C163.317 136.043 163.361 135.948 163.384 135.849C163.407 135.749 163.41 135.645 163.392 135.544C163.375 135.444 163.337 135.347 163.282 135.261C163.226 135.175 163.154 135.101 163.069 135.043C161.773 133.987 161.495 135.153 160.698 136.922C157.022 137.049 153.384 137.703 149.895 138.866C143.033 139.352 137.136 141.458 134.46 147.608C129.924 158.028 134.739 178.712 122.271 182.639C111.942 185.879 110.309 190.739 106.777 195.029C106.513 195.345 106.33 195.72 106.242 196.122C106.155 196.525 106.166 196.943 106.275 197.34C106.384 197.737 106.587 198.102 106.867 198.404C107.148 198.705 107.497 198.935 107.886 199.072C115.014 201.554 123.904 202.481 131.162 202.481H178.608C186.831 202.481 177.286 175.906 179.302 166.601Z" fill="#407BFF"/>
<path opacity="0.4" d="M179.302 166.601C181.323 157.289 184.11 140.843 164.715 139.333L161.825 139.113C161.84 138.851 161.816 138.589 161.754 138.335C162.765 138.335 164.611 138.218 164.203 136.994C163.963 136.287 163.665 136.061 163.257 136.125C163.317 136.043 163.361 135.948 163.384 135.849C163.407 135.749 163.41 135.645 163.392 135.544C163.375 135.444 163.337 135.347 163.282 135.261C163.226 135.175 163.154 135.101 163.069 135.043C161.773 133.987 161.495 135.153 160.698 136.922C157.022 137.049 153.384 137.703 149.895 138.866C143.033 139.352 137.136 141.458 134.46 147.608C129.924 158.028 134.739 178.712 122.271 182.639C111.942 185.879 110.309 190.739 106.777 195.029C106.513 195.345 106.33 195.72 106.242 196.122C106.155 196.525 106.166 196.943 106.275 197.34C106.384 197.737 106.587 198.102 106.867 198.404C107.148 198.705 107.497 198.935 107.886 199.072C115.014 201.554 123.904 202.481 131.162 202.481H178.608C186.831 202.481 177.286 175.906 179.302 166.601Z" fill="white"/>
<path opacity="0.3" d="M161.754 138.329C159.849 138.154 154.062 138.938 154.062 138.938C154.062 138.938 159.726 138.977 161.838 139.113C161.848 138.849 161.82 138.584 161.754 138.329Z" fill="#407BFF"/>
<path d="M182.917 200.886H115.402C113.244 200.886 111.495 202.636 111.495 204.794V208.701C111.495 210.859 113.244 212.609 115.402 212.609H182.917C185.075 212.609 186.825 210.859 186.825 208.701V204.794C186.825 202.636 185.075 200.886 182.917 200.886Z" fill="#407BFF"/>
<path opacity="0.3" d="M182.917 200.886H115.402C113.244 200.886 111.495 202.636 111.495 204.794V208.701C111.495 210.859 113.244 212.609 115.402 212.609H182.917C185.075 212.609 186.825 210.859 186.825 208.701V204.794C186.825 202.636 185.075 200.886 182.917 200.886Z" fill="black"/>
<path d="M186.702 141.744H158.339C156.755 141.799 155.235 142.376 154.012 143.383C152.789 144.39 151.932 145.773 151.574 147.316C147.815 166.295 146.563 185.684 147.848 204.988C147.987 206.502 148.684 207.91 149.802 208.939C150.92 209.969 152.38 210.547 153.9 210.561H182.257C182.973 210.573 183.683 210.433 184.342 210.151C185 209.869 185.591 209.452 186.078 208.926C186.564 208.4 186.934 207.777 187.163 207.099C187.392 206.42 187.476 205.701 187.408 204.988C186.124 185.684 187.375 166.295 191.128 147.316C191.737 144.232 189.799 141.744 186.702 141.744Z" fill="#407BFF"/>
<path opacity="0.3" d="M186.702 141.744H158.339C156.755 141.799 155.235 142.376 154.012 143.383C152.789 144.39 151.932 145.773 151.574 147.316C147.815 166.295 146.563 185.684 147.848 204.988C147.987 206.502 148.684 207.91 149.802 208.939C150.92 209.969 152.38 210.547 153.9 210.561H182.257C182.973 210.573 183.683 210.433 184.342 210.151C185 209.869 185.591 209.452 186.078 208.926C186.564 208.4 186.934 207.777 187.163 207.099C187.392 206.42 187.476 205.701 187.408 204.988C186.124 185.684 187.375 166.295 191.128 147.316C191.737 144.232 189.799 141.744 186.702 141.744Z" fill="black"/>
<path d="M190.635 144.083H164.21C162.734 144.134 161.317 144.669 160.176 145.606C159.035 146.543 158.235 147.829 157.898 149.267C154.393 166.966 153.227 185.048 154.431 203.051C154.561 204.46 155.21 205.771 156.252 206.728C157.294 207.686 158.654 208.223 160.069 208.235H186.494C187.161 208.245 187.822 208.115 188.435 207.852C189.047 207.59 189.598 207.202 190.051 206.713C190.504 206.224 190.849 205.645 191.063 205.015C191.278 204.384 191.357 203.714 191.296 203.051C190.099 185.048 191.264 166.967 194.763 149.267C195.327 146.409 193.519 144.083 190.635 144.083Z" fill="#407BFF"/>
<path d="M152.526 219.925H145.651C145.187 219.925 144.73 219.815 144.316 219.605C143.903 219.394 143.545 219.089 143.273 218.713L138.854 212.602H159.324L154.904 218.713C154.632 219.089 154.274 219.394 153.861 219.605C153.448 219.815 152.99 219.925 152.526 219.925Z" fill="#407BFF"/>
<path opacity="0.5" d="M138.854 212.609L140.687 215.136L158.41 213.872L159.324 212.609H138.854Z" fill="black"/>
<path d="M144.148 263.114H154.023L159.324 268.875H138.854L144.148 263.114Z" fill="#407BFF"/>
<path d="M151.878 219.925H146.299V263.107H151.878V219.925Z" fill="#263238"/>
<path opacity="0.6" d="M151.878 219.925H146.299V263.107H151.878V219.925Z" fill="white"/>
<path d="M206.284 104.73C206.155 105.708 206.019 106.557 205.844 107.451C205.669 108.346 205.494 109.207 205.306 110.076C204.917 111.819 204.438 113.543 203.939 115.26C202.935 118.709 201.656 122.072 200.115 125.317C199.908 125.738 199.778 126.062 199.467 126.665C199.198 127.124 198.906 127.569 198.593 127.999C198.003 128.796 197.4 129.503 196.791 130.183C195.573 131.544 194.303 132.775 193.026 134C190.467 136.397 187.785 138.659 184.991 140.778C184.685 141.019 184.3 141.137 183.911 141.108C183.523 141.078 183.16 140.904 182.893 140.62C182.627 140.336 182.477 139.962 182.473 139.572C182.469 139.183 182.612 138.806 182.872 138.516C185.114 135.924 187.408 133.332 189.553 130.74C190.648 129.444 191.704 128.148 192.683 126.852C193.169 126.204 193.629 125.556 194.011 124.908C194.192 124.63 194.354 124.34 194.497 124.04C194.569 123.878 194.756 123.392 194.899 123.042C195.547 121.513 196.052 119.945 196.584 118.377C197.115 116.808 197.569 115.208 197.996 113.594C198.424 111.981 198.8 110.354 199.163 108.741C199.338 107.924 199.513 107.114 199.668 106.298C199.824 105.481 199.979 104.646 200.096 103.913V103.842C200.244 103.045 200.694 102.337 201.354 101.866C202.013 101.395 202.829 101.198 203.631 101.316C204.432 101.434 205.157 101.859 205.652 102.5C206.146 103.142 206.373 103.95 206.284 104.756V104.73Z" fill="#FFC3BD"/>
<path d="M204.846 99.5911C202.423 100.415 200.322 101.985 198.845 104.075C198.845 104.075 202.766 110.341 203.427 114.443C206.712 110.672 209.952 102.708 204.846 99.5911Z" fill="#407BFF"/>
<path d="M175.161 139.819C175.124 139.453 175.161 139.083 175.269 138.73C175.376 138.378 175.553 138.051 175.788 137.768C176.023 137.484 176.312 137.251 176.638 137.08C176.964 136.909 177.321 136.805 177.688 136.773L180.008 136.579C180.008 136.579 184.388 136.009 185.879 139.67L185.497 140.402C185.191 140.991 184.756 141.503 184.226 141.901C183.695 142.299 183.082 142.573 182.432 142.703L178.991 143.389C178.371 143.512 177.733 143.501 177.118 143.357C176.64 143.246 176.209 142.988 175.885 142.62C175.56 142.252 175.359 141.791 175.31 141.303L175.161 139.819Z" fill="#FFC3BD"/>
<path d="M200.563 107.361C200.789 112.648 201.703 121.565 204.146 136.618H228.997C228.627 127.637 228.206 121.377 232.146 105.78C233.112 101.937 230.397 98.9496 225.971 98.3534C224.979 98.2174 223.929 98.1655 222.854 98.1137C219.096 97.8443 215.324 97.8443 211.566 98.1137C210.347 98.2238 209.09 98.3794 207.885 98.5478C205.787 98.8438 203.875 99.9105 202.521 101.54C201.168 103.169 200.469 105.244 200.563 107.361Z" fill="#407BFF"/>
<path d="M209.822 97.524C207.302 105.378 209.725 110.38 209.725 110.38C212.11 111.1 217.423 111.294 220.294 110.698C220.294 110.698 222.361 99.6041 223.968 97.0574C224.595 97.1552 225.211 97.3114 225.809 97.524C224.392 102.115 223.469 106.844 223.055 111.631C225.53 112.543 227.669 114.189 229.185 116.348C229.663 117.084 229.917 117.943 229.917 118.821C229.917 119.698 229.663 120.557 229.185 121.293C227.448 123.995 224.817 129.425 227.079 135.166H205.248C205.248 135.166 203.796 126.328 201.411 120.347C201.093 119.569 200.985 118.721 201.099 117.888C201.213 117.055 201.544 116.267 202.059 115.603C203.489 113.898 205.268 112.519 207.276 111.56C207.276 111.56 204.787 104.283 207.762 98.1202C208.432 97.8685 209.121 97.6692 209.822 97.524Z" fill="#263238"/>
<path d="M227.837 81.0972C230.124 81.2203 233.384 83.0801 231.077 85.2185C228.77 87.3569 225.737 83.3393 227.837 81.0972Z" fill="#407BFF"/>
<path d="M213.872 67.6642C208.863 68.4158 209.641 78.0322 203.174 79.0949C205.384 85.0306 210.587 83.6309 210.587 83.6309C210.587 83.6309 209.479 88.4844 217.112 91.4069C224.746 94.3294 233.772 89.3009 229.424 82.7237C234.077 77.6045 231.673 69.984 225.828 67.0745C221.422 64.8972 213.354 64.8 213.872 67.6642Z" fill="#263238"/>
<path d="M221.733 85.4129C221.02 89.0417 220.314 95.6966 222.854 98.1137C219.798 99.0126 216.798 100.095 213.872 101.354C213.232 101.071 212.679 100.621 212.273 100.051C211.867 99.4807 211.623 98.8114 211.566 98.1137C215.616 97.1417 215.512 94.1414 214.806 91.3162L221.733 85.4129Z" fill="#FFC3BD"/>
<path d="M213.872 101.36C213.872 101.36 217.21 103.051 218.843 105.78C224.675 103.285 225.621 99.8957 224.85 98.0035C224.015 97.6193 223.204 97.1865 222.42 96.7075C222.42 96.7075 217.423 99.6883 213.872 101.36Z" fill="white"/>
<path d="M213.872 101.36C211.887 102.224 210.176 103.613 208.922 105.378C206.978 104.587 206.809 99.8503 208.274 98.3729C209.377 97.9604 210.543 97.7412 211.721 97.7249C211.721 97.7249 212.369 100.148 213.872 101.36Z" fill="white"/>
<path opacity="0.2" d="M218.907 87.8234L214.812 91.3226C214.978 91.975 215.087 92.6407 215.136 93.312C216.685 93.0852 218.81 91.368 218.972 89.7739C219.071 89.1253 219.05 88.464 218.907 87.8234Z" fill="black"/>
<path d="M225.562 78.7514C224.15 84.6547 223.67 87.1755 220.171 89.7221C214.909 93.5453 208.112 90.5321 207.768 84.3243C207.464 78.7385 209.829 70.0229 215.978 68.6621C222.128 67.3013 226.981 72.8482 225.562 78.7514Z" fill="#FFC3BD"/>
<path d="M213.872 68.4547C216.821 72.9907 222.679 75.5438 222.679 75.5438C221.318 76.6843 219.264 82.9634 223.217 83.7022C229.502 82.2701 228.763 73.8137 227.448 71.5975C226.133 69.3814 219.115 66.3228 213.872 68.4547Z" fill="#263238"/>
<path d="M204.12 136.618C204.12 136.618 206.22 182.691 206.621 201.353C207.043 220.761 207.224 266.088 207.224 266.088H212.123C212.123 266.088 219.938 228.42 217.624 201.353C221.124 180.572 223.489 136.618 223.489 136.618H204.12Z" fill="#FFC3BD"/>
<path d="M210.645 136.618C210.645 136.618 228.349 184.868 235.38 202.915C242.767 221.862 254.891 264.682 255.105 266.088H259.343C259.343 266.088 254.489 216.62 245.676 199.791C243.013 178.718 228.997 136.618 228.997 136.618H210.645Z" fill="#FFC3BD"/>
<path d="M207.289 265.33L212.538 265.408C212.631 265.407 212.721 265.442 212.79 265.504C212.86 265.566 212.904 265.652 212.913 265.745L213.367 270.041C213.376 270.15 213.362 270.259 213.327 270.363C213.291 270.466 213.234 270.56 213.159 270.64C213.085 270.72 212.995 270.784 212.894 270.827C212.794 270.87 212.686 270.891 212.576 270.89C210.691 270.825 207.963 270.67 205.585 270.631C202.798 270.592 203.07 270.702 199.804 270.631C197.86 270.631 197.51 268.596 198.359 268.428C202.215 267.663 202.604 267.624 206.09 265.667C206.453 265.451 206.866 265.334 207.289 265.33Z" fill="#263238"/>
<path d="M254.593 265.33L259.842 265.408C259.936 265.407 260.027 265.441 260.097 265.503C260.168 265.565 260.213 265.651 260.224 265.745L260.839 270.041C260.852 270.148 260.842 270.257 260.81 270.361C260.777 270.464 260.723 270.559 260.65 270.639C260.578 270.72 260.489 270.784 260.39 270.827C260.29 270.87 260.183 270.892 260.075 270.89C258.183 270.825 257.587 270.67 255.202 270.631C252.415 270.592 253.705 270.702 250.439 270.631C248.463 270.631 248.074 268.602 248.916 268.427C251.573 267.87 252.234 266.801 253.4 265.667C253.739 265.404 254.167 265.283 254.593 265.33Z" fill="#263238"/>
<path d="M255.597 265.836C254.761 265.836 254.301 265.836 254.1 265.453C253.899 265.071 253.135 263.969 253.187 263.555C253.238 263.14 256.627 262.803 256.964 263.47C257.301 264.138 257.295 265.784 255.597 265.836Z" fill="#263238"/>
<path d="M207.107 265.836C206.582 265.836 206.304 265.836 206.181 265.453C205.923 264.846 205.745 264.208 205.649 263.555C205.688 263.133 207.814 262.803 208.008 263.47C208.202 264.138 208.164 265.784 207.107 265.836Z" fill="#263238"/>
<path opacity="0.2" d="M229.003 136.611H204.152C204.152 136.611 206.246 182.691 206.647 201.353C206.699 203.705 206.751 206.44 206.79 209.421C208.792 207.36 212.9 203.258 218.052 198.839C219.426 189.767 220.605 177.396 221.519 166.056C224.441 173.949 227.545 182.295 230.28 189.54C234.075 186.963 238.176 184.869 242.488 183.306C237.473 162.071 229.003 136.611 229.003 136.611Z" fill="black"/>
<path d="M230.15 134.473L230.092 136.618C230.092 136.618 240.181 157.756 242.78 180.131C225.809 185.639 205.481 210.801 205.481 210.801C196.843 199.733 204.237 148.049 203.666 136.987L203.018 134.473H230.15Z" fill="#263238"/>
<path d="M217.689 78.8162C217.605 79.3022 217.274 79.6522 216.957 79.5938C216.639 79.5355 216.452 79.0949 216.542 78.6089C216.633 78.1229 216.95 77.7794 217.268 77.8313C217.586 77.8831 217.773 78.3302 217.689 78.8162Z" fill="#263238"/>
<path d="M211.695 77.8442C211.611 78.3302 211.287 78.6737 210.969 78.6218C210.652 78.57 210.464 78.1229 210.548 77.6369C210.632 77.1509 210.963 76.801 211.28 76.8593C211.598 76.9176 211.786 77.3582 211.695 77.8442Z" fill="#263238"/>
<path d="M211.417 76.9111L210.308 76.3668C210.308 76.3668 210.743 77.3842 211.417 76.9111Z" fill="#263238"/>
<path d="M213.224 78.9329C212.594 79.9628 211.827 80.9024 210.943 81.7258C211.158 81.9494 211.419 82.1233 211.707 82.2353C211.996 82.3473 212.306 82.3945 212.615 82.3738L213.224 78.9329Z" fill="#ED847E"/>
<path d="M215.091 84.6547C214.815 84.6531 214.539 84.627 214.268 84.577C214.229 84.5706 214.195 84.5494 214.172 84.5179C214.149 84.4864 214.139 84.4471 214.145 84.4085C214.152 84.3712 214.174 84.3383 214.206 84.3166C214.237 84.2949 214.275 84.286 214.313 84.2918C214.916 84.4149 215.539 84.3933 216.131 84.2289C216.724 84.0644 217.269 83.7617 217.722 83.3458C217.734 83.3318 217.75 83.3207 217.767 83.313C217.784 83.3054 217.803 83.3015 217.822 83.3015C217.841 83.3015 217.86 83.3054 217.877 83.313C217.894 83.3207 217.91 83.3318 217.922 83.3458C217.949 83.3725 217.964 83.4086 217.964 83.4462C217.964 83.4838 217.949 83.5199 217.922 83.5466C217.157 84.268 216.142 84.6651 215.091 84.6547Z" fill="#263238"/>
<path d="M226.761 85.1472C226.392 85.6348 225.925 86.0388 225.388 86.3325C224.852 86.6263 224.26 86.8031 223.651 86.8514C222.102 86.9162 221.752 85.1602 222.536 83.6114C223.242 82.2442 224.901 80.5594 226.282 81.2138C227.662 81.8683 227.759 83.8771 226.761 85.1472Z" fill="#FFC3BD"/>
<path d="M219.672 76.5482C219.598 76.5211 219.536 76.4682 219.497 76.3992C219.344 76.0689 219.115 75.7794 218.829 75.5542C218.543 75.329 218.208 75.1745 217.851 75.1032C217.81 75.1027 217.77 75.0936 217.733 75.0766C217.696 75.0596 217.663 75.0351 217.636 75.0045C217.609 74.974 217.589 74.9382 217.577 74.8993C217.565 74.8605 217.561 74.8195 217.565 74.7791C217.57 74.7386 217.583 74.6995 217.603 74.6644C217.624 74.6292 217.652 74.5988 217.685 74.575C217.718 74.5512 217.755 74.5346 217.795 74.5262C217.835 74.5179 217.876 74.518 217.916 74.5265C218.369 74.6065 218.796 74.7942 219.162 75.0739C219.527 75.3536 219.82 75.717 220.015 76.1335C220.049 76.2023 220.055 76.2817 220.031 76.3545C220.006 76.4273 219.954 76.4876 219.886 76.5223C219.82 76.5567 219.744 76.5659 219.672 76.5482Z" fill="#263238"/>
<path d="M209.453 74.1766C209.378 74.1675 209.308 74.1305 209.259 74.0729C209.212 74.012 209.191 73.9357 209.2 73.8597C209.208 73.7837 209.246 73.7139 209.304 73.6646C209.657 73.3648 210.076 73.1537 210.527 73.0488C210.978 72.944 211.447 72.9485 211.896 73.062C211.933 73.0739 211.967 73.0929 211.996 73.1179C212.025 73.1429 212.049 73.1735 212.067 73.2078C212.084 73.2421 212.094 73.2795 212.097 73.3178C212.1 73.3562 212.096 73.3948 212.084 73.4314C212.072 73.4679 212.053 73.5018 212.028 73.5311C212.003 73.5603 211.972 73.5844 211.938 73.6018C211.904 73.6193 211.866 73.6298 211.828 73.6328C211.79 73.6358 211.751 73.6312 211.715 73.6193C211.36 73.5327 210.99 73.5329 210.636 73.6197C210.282 73.7066 209.954 73.8776 209.68 74.1182C209.649 74.1451 209.613 74.1643 209.573 74.1745C209.534 74.1846 209.493 74.1853 209.453 74.1766Z" fill="#263238"/>
<path d="M217.404 77.8831L216.296 77.3388C216.296 77.3388 216.737 78.3562 217.404 77.8831Z" fill="#263238"/>
<path d="M232.029 102.3C232.152 102.604 232.34 103.058 232.515 103.44C232.69 103.823 232.878 104.244 233.073 104.646C233.455 105.449 233.87 106.246 234.304 107.024C235.15 108.592 236.092 110.106 237.123 111.56C237.635 112.279 238.172 112.979 238.736 113.646C239.3 114.314 239.864 114.981 240.466 115.59C241.069 116.199 241.704 116.796 242.346 117.353C242.67 117.638 242.994 117.904 243.337 118.163L243.849 118.539L244.108 118.727L244.231 118.817H244.283L244.192 118.765C243.81 118.588 243.38 118.541 242.968 118.629C242.725 118.668 242.499 118.779 242.32 118.947C242.449 118.838 242.555 118.703 242.631 118.552C243.032 117.869 243.37 117.151 243.642 116.407C244.29 114.774 244.801 112.992 245.287 111.223C246.259 107.62 247.121 103.9 247.944 100.207C248.029 99.828 248.253 99.4947 248.571 99.2723C248.889 99.0499 249.279 98.9545 249.663 99.0048C250.048 99.0552 250.4 99.2476 250.651 99.5444C250.901 99.8411 251.031 100.221 251.016 100.608C250.874 104.516 250.496 108.411 249.882 112.272C249.567 114.258 249.134 116.223 248.586 118.156C248.286 119.238 247.882 120.288 247.38 121.293C247.034 122.004 246.562 122.647 245.987 123.191C245.459 123.679 244.814 124.023 244.115 124.189C243.651 124.295 243.171 124.311 242.702 124.235C242.481 124.198 242.265 124.141 242.054 124.066C241.866 124.003 241.684 123.925 241.51 123.833L241.263 123.697L241.153 123.632L240.985 123.528L240.648 123.314C240.421 123.172 240.194 123.029 240 122.874C239.559 122.582 239.125 122.271 238.704 121.954C237.863 121.317 237.058 120.633 236.293 119.906C234.771 118.49 233.383 116.937 232.146 115.266C230.905 113.636 229.78 111.921 228.776 110.134C228.284 109.24 227.817 108.333 227.377 107.412C227.156 106.946 226.943 106.486 226.729 106.006C226.515 105.527 226.346 105.08 226.126 104.49C225.897 103.733 225.964 102.917 226.313 102.207C226.661 101.496 227.266 100.944 228.005 100.662C228.744 100.38 229.563 100.387 230.296 100.684C231.029 100.981 231.623 101.544 231.958 102.261L232.029 102.3Z" fill="#FFC3BD"/>
<path d="M227.448 98.6515C229.87 99.4746 231.969 101.045 233.442 103.136C233.442 103.136 229.554 109.402 228.867 113.504C225.588 109.732 222.329 101.768 227.448 98.6515Z" fill="#407BFF"/>
<path d="M250.543 98.8718C251.055 98.0294 250.646 93.7267 248.728 93.1824C247.841 92.9297 248.625 94.8802 248.612 95.5994C248.612 97.5434 247.16 100.868 248.126 101.146C249.091 101.425 249.661 100.343 250.543 98.8718Z" fill="#FFC3BD"/>
<path d="M257.256 96.2863C257.109 95.9485 256.897 95.6432 256.631 95.3884C256.365 95.1336 256.051 94.9343 255.707 94.8022C255.363 94.6701 254.996 94.6078 254.628 94.6189C254.26 94.6301 253.898 94.7145 253.562 94.8672L251.424 95.8262C251.424 95.8262 247.322 97.4722 247.815 101.399L248.508 101.853C249.063 102.215 249.692 102.448 250.349 102.535C251.007 102.623 251.675 102.562 252.305 102.358L255.643 101.269C256.244 101.077 256.797 100.756 257.263 100.33C257.624 100 257.874 99.5652 257.976 99.0865C258.078 98.6077 258.028 98.109 257.833 97.6601L257.256 96.2863Z" fill="#FFC3BD"/>
<path d="M254.664 93.7786C254.531 93.8421 254.412 93.9324 254.315 94.0439C254.218 94.1553 254.145 94.2856 254.1 94.4266L247.685 79.7818C247.368 84.5575 249.474 89.1972 249.474 89.1972L251.482 89.9878L254.249 96.3058C254.722 97.3944 255.681 98.0294 256.388 97.7184C257.094 97.4074 257.282 96.2734 256.809 95.1847C256.336 94.0961 255.403 93.4675 254.664 93.7786ZM256.154 97.1741C255.649 97.4009 254.949 96.9408 254.612 96.1567C254.275 95.3726 254.405 94.5562 254.91 94.3358C255.416 94.1155 256.109 94.5626 256.453 95.3532C256.796 96.1438 256.692 96.9538 256.18 97.2L256.154 97.1741Z" fill="#263238"/>
<path d="M255.474 94.7376C254.282 94.4978 252.882 94.6145 252.428 95.3856C251.975 96.1567 252.837 96.4548 253.336 96.2798C253.835 96.1049 255.649 97.051 255.928 96.6168C256.206 96.1826 255.474 94.7376 255.474 94.7376Z" fill="#FFC3BD"/>
<path d="M250.186 93.3574C250.326 93.4172 250.451 93.5059 250.554 93.6176C250.657 93.7293 250.735 93.8614 250.783 94.0054L256.615 79.1014C257.12 83.8642 255.208 88.5816 255.208 88.5816L253.213 89.424L250.705 95.904C250.277 97.0121 249.344 97.686 248.625 97.4009C247.905 97.1158 247.672 95.9947 248.106 94.8866C248.54 93.7786 249.48 93.0722 250.186 93.3574ZM248.832 96.8112C249.344 97.0121 250.018 96.5261 250.329 95.729C250.64 94.932 250.478 94.122 249.96 93.9211C249.441 93.7202 248.767 94.1998 248.456 94.9968C248.145 95.7938 248.314 96.6103 248.832 96.8112Z" fill="#263238"/>
<path d="M248.728 93.1824C248.003 92.975 248.398 94.2581 248.56 95.1264C248.593 95.2841 248.611 95.4447 248.612 95.6059L250.037 94.446C249.917 94.1572 249.739 93.8962 249.514 93.6789C249.288 93.4616 249.021 93.2926 248.728 93.1824Z" fill="#FFC3BD"/>
</svg>
