<svg width="360" height="360" viewBox="0 0 360 360" fill="none" xmlns="http://www.w3.org/2000/svg">
<path d="M148.054 48.96L79.5168 138.002L263.837 92.1816L161.172 45.6696C158.935 44.6545 156.421 44.4271 154.038 45.0247C151.656 45.6223 149.546 47.0094 148.054 48.96Z" fill="#EBEBEB"/>
<path d="M78.5448 138.636L147.751 48.7368C149.295 46.7153 151.48 45.2795 153.948 44.6657C156.416 44.052 159.02 44.2968 161.33 45.36L265.01 92.3256L78.5448 138.636ZM156.665 45.036C155.055 45.0371 153.467 45.4107 152.026 46.1277C150.584 46.8447 149.328 47.8856 148.356 49.1688L80.4816 137.376L262.685 92.0808L161.021 46.0008C159.652 45.3836 158.166 45.0669 156.665 45.072V45.036Z" fill="#E0E0E0"/>
<path d="M79.5119 138.006L264.481 92.0248L289.401 192.272C289.894 194.257 289.579 196.356 288.525 198.109C287.47 199.861 285.763 201.123 283.778 201.616L113.776 243.876C111.791 244.37 109.692 244.054 107.939 243C106.187 241.945 104.925 240.238 104.432 238.253L79.5119 138.006Z" fill="#F0F0F0"/>
<path d="M253.094 97.5168L189.014 162.986L92.16 141.185L81.0792 89.8128C80.466 87.1629 80.9186 84.3781 82.3395 82.0589C83.7605 79.7396 86.0359 78.0716 88.6752 77.4144L228.787 42.588C230.108 42.2585 231.481 42.1927 232.827 42.3944C234.174 42.5962 235.467 43.0615 236.634 43.7637C237.8 44.4659 238.816 45.3912 239.625 46.4867C240.433 47.5822 241.017 48.8264 241.344 50.148L253.094 97.5168Z" fill="white"/>
<path d="M180.216 157.838L104.119 237.355C104.388 238.437 104.867 239.454 105.529 240.351C106.191 241.247 107.024 242.004 107.979 242.578C108.933 243.152 109.992 243.533 111.094 243.698C112.196 243.863 113.32 243.809 114.401 243.54L283.097 201.6C285.279 201.057 287.157 199.67 288.316 197.743C289.476 195.817 289.823 193.508 289.282 191.326L289.123 190.692L189.619 155.592C188.002 155.02 186.254 154.928 184.586 155.327C182.918 155.725 181.4 156.598 180.216 157.838Z" fill="#E0E0E0"/>
<path d="M155.904 84.9986L101.091 98.6346L102.483 104.231L157.296 90.5952L155.904 84.9986Z" fill="#E0E0E0"/>
<path d="M226.236 82.5693L104.619 112.824L106.192 119.147L227.809 88.8925L226.236 82.5693Z" fill="#E0E0E0"/>
<path d="M230.083 98.0177L108.466 128.272L110.039 134.596L231.656 104.341L230.083 98.0177Z" fill="#E0E0E0"/>
<path d="M232.639 118.49L228.83 122.299L126.734 148.99L113.393 145.872L112.889 144.425L234.115 114.271L234.641 116.366L232.639 118.49Z" fill="#E0E0E0"/>
<path d="M206.525 145.094L160.531 156.528L146.47 153.317L215.208 136.217L206.525 145.094Z" fill="#E0E0E0"/>
<path d="M177.437 160.733C177.437 160.733 177.386 160.812 177.264 160.949L176.717 161.546L174.6 163.814L166.759 172.116C160.121 179.107 150.919 188.77 140.731 199.361C130.543 209.952 121.183 219.456 114.358 226.267C110.945 229.673 108.166 232.423 106.236 234.302L104.011 236.462L103.421 237.017C103.359 237.086 103.289 237.146 103.212 237.197C103.265 237.122 103.325 237.052 103.392 236.988L103.954 236.405L106.114 234.194L114.156 226.08C120.931 219.218 130.241 209.693 140.45 199.094C150.66 188.496 159.89 178.934 166.55 171.929L174.47 163.714L176.63 161.496L177.206 160.927C177.365 160.79 177.437 160.733 177.437 160.733Z" fill="#FAFAFA"/>
<path d="M289.123 190.678C289.087 190.778 267.869 183.413 241.733 174.226C215.597 165.038 194.436 157.507 194.472 157.406C194.508 157.306 215.726 164.664 241.862 173.851C267.998 183.038 289.159 190.57 289.123 190.678Z" fill="#FAFAFA"/>
<path d="M256.14 94.3632C256.1 94.4274 256.054 94.4876 256.003 94.5432L255.6 95.04L253.894 96.9336L247.536 103.838C242.15 109.649 234.648 117.612 226.238 126.302C217.829 134.993 210.067 142.747 204.437 148.32L197.734 154.886L195.89 156.65L195.408 157.104C195.293 157.205 195.235 157.255 195.228 157.248C195.274 157.186 195.324 157.129 195.379 157.075L195.833 156.593L197.626 154.778L204.235 148.126C209.822 142.502 217.505 134.712 225.914 126.029C234.324 117.346 241.855 109.44 247.298 103.68L253.742 96.8616L255.506 95.0184L255.974 94.5432C256.022 94.4766 256.078 94.4161 256.14 94.3632Z" fill="#FAFAFA"/>
<path d="M177.437 160.733C177.351 160.728 177.267 160.714 177.185 160.69L176.465 160.517L173.585 159.797C171.122 159.178 167.544 158.306 163.116 157.27C154.267 155.174 141.991 152.474 128.426 149.537C114.862 146.599 102.593 143.856 93.7584 141.689C89.3376 140.609 85.7664 139.702 83.3112 139.039L80.4816 138.269L79.7616 138.06C79.6766 138.042 79.5943 138.013 79.5168 137.974L79.7688 138.024L80.4888 138.19L83.3688 138.91C85.8384 139.529 89.4168 140.393 93.8448 141.437C102.694 143.532 114.962 146.232 128.534 149.17C142.106 152.107 154.368 154.85 163.202 157.018C167.623 158.098 171.194 158.998 173.65 159.667L176.472 160.438L177.192 160.646L177.437 160.733Z" fill="#FAFAFA"/>
<path d="M253.094 97.5168C253.094 97.5168 253.022 97.2792 252.9 96.7968L252.374 94.7592C251.914 92.952 251.244 90.3096 250.38 86.904L243.13 58.0176C242.746 56.4912 242.354 54.9288 241.956 53.3304C241.762 52.5384 241.56 51.7248 241.351 50.9112C241.25 50.5008 241.15 50.0904 241.02 49.6944C240.907 49.2901 240.763 48.8953 240.588 48.5136C239.874 46.8983 238.752 45.497 237.331 44.4478C235.911 43.3985 234.242 42.7377 232.488 42.5304C231.578 42.4045 230.655 42.4045 229.745 42.5304C228.838 42.6888 227.916 42.9408 226.987 43.164L221.335 44.604L209.52 47.52L157.025 60.624L104.465 73.6704L92.664 76.5936L89.784 77.3136C88.8492 77.5078 87.9336 77.7849 87.048 78.1416C85.3399 78.882 83.8662 80.0744 82.7856 81.5904C82.2627 82.3271 81.8368 83.1281 81.5184 83.9736C81.2215 84.8088 81.0257 85.6766 80.9352 86.5584C80.7264 88.3224 81.216 90.0216 81.5616 91.6992C82.2816 95.0592 82.9704 98.2776 83.628 101.354C86.256 113.659 88.38 123.61 89.8488 130.5C90.5688 133.942 91.1376 136.606 91.5264 138.42C91.7064 139.32 91.8504 140.011 91.9512 140.486C92.052 140.962 92.0808 141.206 92.0808 141.206C92.0808 141.206 92.016 140.969 91.908 140.486C91.8 140.004 91.6488 139.327 91.4472 138.434C91.044 136.613 90.4608 133.949 89.7048 130.514C88.2 123.631 86.0328 113.681 83.3544 101.398C82.692 98.3232 81.9864 95.1048 81.2592 91.7424C80.9136 90.0864 80.4096 88.3296 80.6256 86.508C80.7084 85.5962 80.9068 84.6986 81.216 83.8368C81.5449 82.9644 81.9828 82.137 82.5192 81.3744C83.0647 80.5982 83.7167 79.9026 84.456 79.308C85.1963 78.6908 86.0236 78.1861 86.9112 77.8104C87.8121 77.4427 88.7448 77.1583 89.6976 76.9608L92.5776 76.2408L104.4 73.3176L156.96 60.2424L209.52 47.196L221.321 44.2728L226.973 42.876C227.902 42.6456 228.809 42.4008 229.759 42.2352C231.147 42.0279 232.562 42.0994 233.922 42.4456C235.282 42.7917 236.559 43.4056 237.679 44.2512C239.104 45.3298 240.229 46.755 240.948 48.3912C241.129 48.7844 241.278 49.1913 241.394 49.608C241.524 50.0184 241.625 50.4288 241.726 50.8392C241.927 51.6528 242.122 52.4664 242.323 53.2656C242.719 54.864 243.101 56.4264 243.482 57.9528L250.61 86.8896C251.438 90.3024 252.086 92.952 252.526 94.7592C252.742 95.6592 252.907 96.3432 253.015 96.8112C253.123 97.2792 253.094 97.5168 253.094 97.5168Z" fill="#E0E0E0"/>
<path d="M325.44 323.28C325.44 323.388 260.323 323.474 180 323.474C99.6768 323.474 34.56 323.395 34.56 323.28C34.56 323.165 99.6696 323.078 180 323.078C260.33 323.078 325.44 323.179 325.44 323.28Z" fill="#263238"/>
<path d="M172.591 59.5152L165.47 64.9368L165.816 75.2904L159.3 70.1136L155.7 73.1952L142.02 56.304L172.591 59.5152Z" fill="#2F54EB"/>
<path d="M162.792 67.14C162.792 67.4568 165.816 75.2904 165.816 75.2904L159.3 70.1136L162.792 67.14Z" fill="#2F54EB"/>
<g opacity="0.3">
<path d="M162.792 67.14C162.792 67.4568 165.816 75.2904 165.816 75.2904L159.3 70.1136L162.792 67.14Z" fill="black"/>
</g>
<path d="M142.02 56.304L162.792 67.14L165.816 75.2904L165.47 64.9368L142.02 56.304Z" fill="#2F54EB"/>
<path opacity="0.1" d="M142.02 56.304L162.792 67.14L165.816 75.2904L165.47 64.9368L142.02 56.304Z" fill="black"/>
<path d="M199.62 195.998C198.34 195.956 197.082 195.65 195.926 195.098C197.206 195.141 198.464 195.447 199.62 195.998Z" fill="#263238"/>
<path d="M205.51 197.438C205.51 197.546 204.97 197.51 204.365 197.366C203.76 197.222 203.285 197.006 203.306 196.898C203.328 196.79 203.846 196.826 204.458 196.978C205.07 197.129 205.538 197.33 205.51 197.438Z" fill="#263238"/>
<path d="M181.202 73.9368C180.564 73.9461 179.928 73.8463 179.323 73.6416C178.689 73.5637 178.074 73.371 177.509 73.0728C178.151 72.9885 178.804 73.0525 179.417 73.26C180.058 73.3385 180.67 73.5707 181.202 73.9368Z" fill="#263238"/>
<path d="M188.172 76.9248C186.964 76.5285 185.821 75.9559 184.781 75.2256C185.424 75.2867 186.043 75.4989 186.588 75.8448C187.531 76.32 188.23 76.8312 188.172 76.9248Z" fill="#263238"/>
<path d="M194.213 81.504C194.134 81.5832 193.493 81.0432 192.686 80.3664C191.88 79.6896 191.246 79.1136 191.34 79.02C191.954 79.2369 192.509 79.5945 192.96 80.064C193.745 80.7552 194.292 81.432 194.213 81.504Z" fill="#263238"/>
<path d="M198.821 87.516C198.72 87.5664 198.245 86.868 197.669 86.004C197.265 85.5089 196.949 84.9489 196.733 84.348C196.812 84.2832 197.417 84.9024 198 85.788C198.406 86.291 198.688 86.8832 198.821 87.516Z" fill="#263238"/>
<path d="M201.434 94.6224C201.125 94.064 200.911 93.4582 200.801 92.8296C200.56 92.2361 200.426 91.6049 200.405 90.9648C200.794 91.4831 201.057 92.0844 201.175 92.7216C201.417 93.3241 201.506 93.9771 201.434 94.6224Z" fill="#263238"/>
<path d="M201.823 102.182C201.695 101.557 201.668 100.915 201.744 100.282C201.69 99.6452 201.748 99.0041 201.917 98.388C202.137 98.996 202.213 99.6465 202.14 100.289C202.185 100.936 202.077 101.585 201.823 102.182Z" fill="#263238"/>
<path d="M199.858 109.483C199.935 108.851 200.115 108.236 200.39 107.662C200.537 107.044 200.78 106.454 201.11 105.912C201.146 106.561 201.014 107.208 200.729 107.791C200.582 108.418 200.283 109 199.858 109.483Z" fill="#263238"/>
<path d="M195.458 115.632C195.386 115.546 195.948 114.912 196.632 114.134C197.316 113.357 197.863 112.694 197.957 112.774C197.752 113.39 197.399 113.947 196.927 114.394C196.229 115.2 195.53 115.711 195.458 115.632Z" fill="#263238"/>
<path d="M189.108 119.722C189.594 119.31 190.144 118.98 190.735 118.742C191.267 118.39 191.853 118.127 192.47 117.965C192.052 118.463 191.518 118.851 190.915 119.095C190.374 119.45 189.753 119.665 189.108 119.722Z" fill="#263238"/>
<path d="M181.721 121.313C182.323 121.091 182.958 120.972 183.6 120.96C184.223 120.817 184.865 120.776 185.501 120.838C184.936 121.158 184.3 121.334 183.65 121.349C183.015 121.501 182.351 121.489 181.721 121.313Z" fill="#263238"/>
<path d="M174.305 119.909C175.536 120.165 176.741 120.534 177.905 121.01C177.259 121.091 176.604 121.002 176.004 120.751C175.374 120.624 174.787 120.334 174.305 119.909Z" fill="#263238"/>
<path d="M169.049 114.696C169.157 114.66 169.488 115.416 170.078 116.266C170.669 117.115 171.238 117.706 171.158 117.814C171.079 117.922 170.374 117.382 169.754 116.496C169.319 115.995 169.07 115.359 169.049 114.696Z" fill="#263238"/>
<path d="M172.246 108.799C172.246 108.914 171.461 109.166 170.64 109.75C169.819 110.333 169.38 111.06 169.279 111.002C169.178 110.945 169.495 110.081 170.41 109.433C170.919 108.996 171.575 108.769 172.246 108.799Z" fill="#263238"/>
<path d="M178.754 111.499C178.654 111.557 178.193 110.851 177.444 110.16C176.695 109.469 175.932 109.123 176.004 109.015C176.673 109.068 177.296 109.374 177.746 109.872C178.264 110.279 178.621 110.855 178.754 111.499Z" fill="#263238"/>
<path d="M178.999 118.85C179.053 118.223 179.171 117.603 179.352 117C179.406 116.37 179.524 115.748 179.705 115.142C179.898 115.771 179.898 116.443 179.705 117.072C179.655 117.723 179.409 118.343 178.999 118.85Z" fill="#263238"/>
<path d="M174.067 124.502C174.002 124.409 174.658 123.869 175.442 123.199C176.227 122.53 176.882 121.954 176.933 122.026C176.983 122.098 176.515 122.803 175.702 123.466C174.888 124.128 174.125 124.596 174.067 124.502Z" fill="#263238"/>
<path d="M167.335 128.002C167.812 127.571 168.37 127.24 168.977 127.03C169.531 126.703 170.146 126.495 170.784 126.418C169.757 127.18 168.583 127.719 167.335 128.002Z" fill="#263238"/>
<path d="M160.56 131.443C160.502 131.35 161.186 130.838 162.094 130.291C162.623 129.922 163.228 129.676 163.865 129.571C163.922 129.679 163.188 130.118 162.288 130.637C161.774 131.022 161.186 131.297 160.56 131.443Z" fill="#263238"/>
<path d="M154.8 136.397C154.721 136.325 155.218 135.619 155.974 134.878C156.391 134.384 156.915 133.992 157.507 133.733C157.579 133.819 156.996 134.453 156.254 135.173C155.513 135.893 154.915 136.469 154.8 136.397Z" fill="#263238"/>
<path d="M150.48 142.603C150.601 141.968 150.867 141.369 151.258 140.854C151.812 139.954 152.381 139.306 152.467 139.37C152.28 139.982 151.985 140.555 151.596 141.062C151.049 141.948 150.581 142.654 150.48 142.603Z" fill="#263238"/>
<path d="M147.715 149.659C147.678 149.014 147.797 148.37 148.061 147.78C148.196 147.147 148.48 146.554 148.889 146.052C148.678 147.303 148.283 148.517 147.715 149.652V149.659Z" fill="#263238"/>
<path d="M146.722 157.176C146.46 155.914 146.55 154.604 146.981 153.389C147.09 154.018 147.09 154.661 146.981 155.29C147.006 155.929 146.918 156.567 146.722 157.176Z" fill="#263238"/>
<path d="M147.715 164.686C147.392 164.129 147.189 163.511 147.118 162.871C146.906 162.258 146.852 161.602 146.959 160.963C147.238 161.54 147.423 162.157 147.506 162.792C147.706 163.402 147.777 164.047 147.715 164.686Z" fill="#263238"/>
<path d="M150.646 171.67C150.552 171.727 150.041 171.036 149.573 170.086C149.226 169.539 149.016 168.916 148.961 168.271C149.376 168.758 149.702 169.314 149.926 169.913C150.267 170.452 150.511 171.046 150.646 171.67Z" fill="#263238"/>
<path d="M155.196 177.739C155.124 177.811 154.476 177.264 153.756 176.458C153.292 176.006 152.938 175.454 152.719 174.845C152.813 174.773 153.382 175.406 154.058 176.198C154.735 176.99 155.275 177.66 155.196 177.739Z" fill="#263238"/>
<path d="M161.042 182.563C160.417 182.395 159.839 182.082 159.358 181.649C158.508 181.03 157.918 180.41 157.975 180.324C158.57 180.563 159.118 180.904 159.595 181.332C160.43 181.944 161.1 182.47 161.042 182.563Z" fill="#263238"/>
<path d="M167.882 185.832C167.235 185.828 166.597 185.667 166.025 185.364C165.4 185.189 164.829 184.863 164.362 184.414C164.992 184.507 165.603 184.704 166.169 184.997C166.781 185.182 167.359 185.464 167.882 185.832Z" fill="#263238"/>
<path d="M171.691 186.804C171.691 186.905 171.626 186.991 171.59 186.984C171.554 186.977 171.54 186.883 171.59 186.775C171.641 186.667 171.655 186.588 171.691 186.595C171.727 186.602 171.713 186.696 171.691 186.804Z" fill="#263238"/>
<path d="M166.186 167.949L158.313 165.363L156.704 170.261L164.578 172.847L166.186 167.949Z" fill="#2F54EB"/>
<g opacity="0.3">
<path d="M166.186 167.949L158.313 165.363L156.704 170.261L164.578 172.847L166.186 167.949Z" fill="black"/>
</g>
<path d="M166.169 167.962C164.697 168.7 163.171 169.326 161.604 169.834L161.467 169.884L161.381 169.769L161.244 169.596C160.152 168.268 159.167 166.854 158.299 165.37C159.486 166.615 160.576 167.948 161.561 169.358L161.69 169.531L161.467 169.466C162.991 168.839 164.564 168.336 166.169 167.962Z" fill="#2F54EB"/>
<g opacity="0.1">
<path d="M166.169 167.962C164.697 168.7 163.171 169.326 161.604 169.834L161.467 169.884L161.381 169.769L161.244 169.596C160.152 168.268 159.167 166.854 158.299 165.37C159.486 166.615 160.576 167.948 161.561 169.358L161.69 169.531L161.467 169.466C162.991 168.839 164.564 168.336 166.169 167.962Z" fill="black"/>
</g>
<path d="M160.56 168.372C160.018 168.86 159.391 169.243 158.71 169.502C158.082 169.874 157.395 170.135 156.679 170.273C157.226 169.788 157.855 169.405 158.537 169.142C159.162 168.772 159.847 168.512 160.56 168.372Z" fill="#2F54EB"/>
<g opacity="0.1">
<path d="M160.56 168.372C160.018 168.86 159.391 169.243 158.71 169.502C158.082 169.874 157.395 170.135 156.679 170.273C157.226 169.788 157.855 169.405 158.537 169.142C159.162 168.772 159.847 168.512 160.56 168.372Z" fill="black"/>
</g>
<path d="M164.7 172.901C164.259 172.358 163.918 171.741 163.692 171.079C163.217 170.006 162.9 169.085 163.044 169.099C163.486 169.643 163.829 170.259 164.059 170.921C164.395 171.535 164.612 172.207 164.7 172.901Z" fill="#2F54EB"/>
<g opacity="0.1">
<path d="M164.7 172.901C164.259 172.358 163.918 171.741 163.692 171.079C163.217 170.006 162.9 169.085 163.044 169.099C163.486 169.643 163.829 170.259 164.059 170.921C164.395 171.535 164.612 172.207 164.7 172.901Z" fill="black"/>
</g>
<path d="M198.292 187.135L178.044 180.486L173.906 193.086L194.154 199.735L198.292 187.135Z" fill="#2F54EB"/>
<path d="M198.274 187.15C197.985 187.315 197.681 187.453 197.366 187.56L194.846 188.546C192.686 189.36 189.742 190.469 186.422 191.686L186.286 191.736L186.199 191.621L185.861 191.174C183.658 188.294 181.67 185.609 180.252 183.672L178.56 181.375C178.344 181.1 178.154 180.806 177.991 180.497C178.255 180.735 178.496 180.998 178.711 181.282L180.475 183.506C181.951 185.393 183.967 188.021 186.178 190.937L186.516 191.376L186.293 191.311C189.605 190.102 192.593 189.036 194.753 188.287L197.316 187.416C197.626 187.297 197.947 187.208 198.274 187.15Z" fill="#2F54EB"/>
<g opacity="0.2">
<path d="M198.274 187.15C197.985 187.315 197.681 187.453 197.366 187.56L194.846 188.546C192.686 189.36 189.742 190.469 186.422 191.686L186.286 191.736L186.199 191.621L185.861 191.174C183.658 188.294 181.67 185.609 180.252 183.672L178.56 181.375C178.344 181.1 178.154 180.806 177.991 180.497C178.255 180.735 178.496 180.998 178.711 181.282L180.475 183.506C181.951 185.393 183.967 188.021 186.178 190.937L186.516 191.376L186.293 191.311C189.605 190.102 192.593 189.036 194.753 188.287L197.316 187.416C197.626 187.297 197.947 187.208 198.274 187.15Z" fill="black"/>
</g>
<path d="M183.874 188.222C182.299 189.206 180.659 190.079 178.963 190.836C177.325 191.705 175.629 192.46 173.887 193.097C175.455 192.105 177.094 191.229 178.79 190.476C180.427 189.601 182.126 188.848 183.874 188.222Z" fill="#2F54EB"/>
<g opacity="0.2">
<path d="M183.874 188.222C182.299 189.206 180.659 190.079 178.963 190.836C177.325 191.705 175.629 192.46 173.887 193.097C175.455 192.105 177.094 191.229 178.79 190.476C180.427 189.601 182.126 188.848 183.874 188.222Z" fill="black"/>
</g>
<path d="M194.501 199.865C193.615 198.32 192.842 196.712 192.19 195.055C191.42 193.447 190.771 191.784 190.246 190.08C191.132 191.627 191.905 193.237 192.557 194.897C193.327 196.503 193.976 198.163 194.501 199.865Z" fill="#2F54EB"/>
<g opacity="0.2">
<path d="M194.501 199.865C193.615 198.32 192.842 196.712 192.19 195.055C191.42 193.447 190.771 191.784 190.246 190.08C191.132 191.627 191.905 193.237 192.557 194.897C193.327 196.503 193.976 198.163 194.501 199.865Z" fill="black"/>
</g>
<path d="M179.136 183.6C178.632 183.97 178.03 184.182 177.405 184.209C176.781 184.237 176.163 184.079 175.628 183.755C175.094 183.431 174.667 182.956 174.403 182.389C174.138 181.823 174.047 181.191 174.142 180.573C174.236 179.955 174.512 179.38 174.934 178.918C175.356 178.457 175.905 178.131 176.512 177.982C177.119 177.833 177.756 177.867 178.344 178.08C178.931 178.293 179.443 178.676 179.813 179.179C180.059 179.514 180.237 179.894 180.336 180.297C180.435 180.7 180.454 181.119 180.391 181.53C180.328 181.94 180.185 182.335 179.969 182.69C179.754 183.045 179.471 183.354 179.136 183.6Z" fill="#263238"/>
<path d="M179.28 180.468C178.611 180.965 177.901 181.404 177.156 181.778L176.652 182.059L176.558 182.11L176.508 182.023C176.167 181.483 175.878 180.911 175.644 180.317C176.045 180.815 176.395 181.353 176.688 181.922L176.551 181.879L177.055 181.591C177.763 181.153 178.507 180.777 179.28 180.468Z" fill="white"/>
<path d="M185.286 170.158L174.676 166.674L172.509 173.275L183.118 176.759L185.286 170.158Z" fill="#2F54EB"/>
<g opacity="0.2">
<path d="M185.286 170.158L174.676 166.674L172.509 173.275L183.118 176.759L185.286 170.158Z" fill="black"/>
</g>
<path d="M185.263 170.165C185.115 170.253 184.958 170.326 184.795 170.381L183.47 170.899C182.354 171.324 180.799 171.907 179.057 172.541H178.985L178.942 172.476L178.769 172.246C177.61 170.719 176.609 169.33 175.824 168.314L174.96 167.141C174.848 166.996 174.75 166.842 174.665 166.68C174.798 166.804 174.919 166.942 175.025 167.09L175.954 168.257C176.724 169.243 177.782 170.618 178.934 172.145L179.114 172.382H178.999C180.734 171.749 182.297 171.187 183.434 170.798L184.774 170.345C184.93 170.267 185.094 170.206 185.263 170.165Z" fill="#2F54EB"/>
<g opacity="0.2">
<path d="M185.263 170.165C185.115 170.253 184.958 170.326 184.795 170.381L183.47 170.899C182.354 171.324 180.799 171.907 179.057 172.541H178.985L178.942 172.476L178.769 172.246C177.61 170.719 176.609 169.33 175.824 168.314L174.96 167.141C174.848 166.996 174.75 166.842 174.665 166.68C174.798 166.804 174.919 166.942 175.025 167.09L175.954 168.257C176.724 169.243 177.782 170.618 178.934 172.145L179.114 172.382H178.999C180.734 171.749 182.297 171.187 183.434 170.798L184.774 170.345C184.93 170.267 185.094 170.206 185.263 170.165Z" fill="#2F54EB"/>
</g>
<path d="M177.725 170.726C176.9 171.239 176.041 171.696 175.154 172.094C174.294 172.55 173.404 172.947 172.49 173.282C173.312 172.762 174.171 172.302 175.061 171.907C175.919 171.45 176.81 171.055 177.725 170.726Z" fill="#2F54EB"/>
<g opacity="0.2">
<path d="M177.725 170.726C176.9 171.239 176.041 171.696 175.154 172.094C174.294 172.55 173.404 172.947 172.49 173.282C173.312 172.762 174.171 172.302 175.061 171.907C175.919 171.45 176.81 171.055 177.725 170.726Z" fill="#2F54EB"/>
</g>
<path d="M183.29 176.825C182.826 176.016 182.422 175.173 182.081 174.305C181.681 173.46 181.339 172.59 181.058 171.698C181.932 173.348 182.678 175.062 183.29 176.825Z" fill="#2F54EB"/>
<g opacity="0.2">
<path d="M183.29 176.825C182.826 176.016 182.422 175.173 182.081 174.305C181.681 173.46 181.339 172.59 181.058 171.698C181.932 173.348 182.678 175.062 183.29 176.825Z" fill="#2F54EB"/>
</g>
<path d="M100.08 87.5304C99.3479 90.4121 97.7777 93.0119 95.568 95.0012C93.3583 96.9905 90.6084 98.2799 87.6659 98.7064C84.7235 99.1329 81.7206 98.6774 79.037 97.3973C76.3535 96.1173 74.1097 94.0703 72.5895 91.5151C71.0693 88.9599 70.3409 86.0113 70.4963 83.0422C70.6518 80.073 71.6842 77.2167 73.463 74.8342C75.2418 72.4518 77.687 70.6503 80.4896 69.6575C83.2922 68.6648 86.3262 68.5253 89.208 69.2568C93.0722 70.2396 96.388 72.7165 98.4267 76.1431C100.465 79.5697 101.06 83.6655 100.08 87.5304Z" fill="#263238"/>
<path d="M91.0584 75.6792C91.3248 75.7872 89.6184 80.82 87.2424 86.9256C86.8896 87.8112 86.5224 88.6608 86.2272 89.496L86.0472 89.9496L85.5936 89.7768C80.7192 87.8976 77.1552 86.3496 77.2416 86.1264C77.328 85.9032 81.0288 87.0696 85.9392 88.848L85.3056 89.136C85.6224 88.3008 85.9536 87.444 86.292 86.5584C88.6608 80.4456 90.7992 75.6 91.0584 75.6792Z" fill="white"/>
<path d="M284.868 300.305C287.562 299.04 290.59 298.671 293.508 299.254C295.078 299.513 296.712 299.974 297.785 301.154C298.858 302.335 299.052 304.409 297.828 305.424C297.035 305.954 296.085 306.196 295.135 306.108C292.846 306.108 290.311 305.676 288.482 307.051C287.438 307.836 286.747 309.139 285.502 309.528C284.878 309.67 284.226 309.607 283.642 309.347C283.058 309.087 282.574 308.646 282.262 308.088C281.668 306.942 281.537 305.613 281.894 304.373C282.042 303.511 282.388 302.695 282.903 301.99C283.419 301.284 284.092 300.707 284.868 300.305Z" fill="#2F54EB"/>
<g opacity="0.2">
<path d="M284.868 300.305C287.562 299.04 290.59 298.671 293.508 299.254C295.078 299.513 296.712 299.974 297.785 301.154C298.858 302.335 299.052 304.409 297.828 305.424C297.035 305.954 296.085 306.196 295.135 306.108C292.846 306.108 290.311 305.676 288.482 307.051C287.438 307.836 286.747 309.139 285.502 309.528C284.878 309.67 284.226 309.607 283.642 309.347C283.058 309.087 282.574 308.646 282.262 308.088C281.668 306.942 281.537 305.613 281.894 304.373C282.042 303.511 282.388 302.695 282.903 301.99C283.419 301.284 284.092 300.707 284.868 300.305Z" fill="white"/>
</g>
<path d="M278.842 288.67C280.454 290.966 283.579 290.203 285.026 288.799C286.474 287.395 287.093 285.365 287.647 283.428C288.922 279 290.203 274.356 289.26 269.849C289.027 268.483 288.427 267.206 287.525 266.155C287.066 265.638 286.479 265.251 285.823 265.033C285.167 264.814 284.465 264.772 283.788 264.91C282.211 265.327 281.232 266.875 280.526 268.344C278.441 272.681 277.347 277.428 277.322 282.24C277.322 284.479 277.582 286.826 278.842 288.677" fill="#2F54EB"/>
<path d="M274.428 291.967C276.17 289.894 276.502 286.87 275.724 284.27C274.842 281.692 273.268 279.405 271.174 277.661C268.789 275.555 266.019 273.931 263.016 272.88C261.851 272.409 260.599 272.196 259.344 272.254C258.718 272.291 258.11 272.48 257.573 272.805C257.036 273.13 256.586 273.581 256.262 274.118C255.406 275.753 256.226 277.718 257.119 279.36C258.689 282.217 260.48 284.947 262.476 287.525C264.082 289.591 265.925 291.636 268.373 292.565C270.821 293.494 273.362 293.393 274.658 291.694" fill="#2F54EB"/>
<g opacity="0.1">
<path d="M274.428 291.967C276.17 289.894 276.502 286.87 275.724 284.27C274.842 281.692 273.268 279.405 271.174 277.661C268.789 275.555 266.019 273.931 263.016 272.88C261.851 272.409 260.599 272.196 259.344 272.254C258.718 272.291 258.11 272.48 257.573 272.805C257.036 273.13 256.586 273.581 256.262 274.118C255.406 275.753 256.226 277.718 257.119 279.36C258.689 282.217 260.48 284.947 262.476 287.525C264.082 289.591 265.925 291.636 268.373 292.565C270.821 293.494 273.362 293.393 274.658 291.694" fill="black"/>
</g>
<path d="M278.734 323.323C278.817 322.981 278.865 322.631 278.878 322.279C278.957 321.516 279.043 320.566 279.158 319.399C279.299 317.997 279.513 316.603 279.799 315.223C280.171 313.541 280.679 311.891 281.318 310.291C281.943 308.692 282.792 307.189 283.838 305.827C284.688 304.717 285.775 303.812 287.021 303.178C287.865 302.762 288.768 302.48 289.699 302.342C290.049 302.331 290.396 302.282 290.736 302.198C290.387 302.156 290.034 302.156 289.685 302.198C288.716 302.271 287.768 302.515 286.884 302.918C285.576 303.54 284.428 304.454 283.529 305.59C282.438 306.969 281.557 308.503 280.915 310.14C280.269 311.773 279.765 313.46 279.41 315.18C279.139 316.576 278.954 317.988 278.856 319.406C278.762 320.616 278.726 321.566 278.712 322.286C278.684 322.632 278.691 322.979 278.734 323.323Z" fill="#263238"/>
<path d="M278.928 321.12C278.95 320.96 278.95 320.798 278.928 320.638V319.255C278.928 318.053 278.928 316.31 278.986 314.165C279.094 309.845 279.461 303.934 280.181 297.418C280.901 290.902 281.851 285.034 282.722 280.858C282.924 279.806 283.133 278.856 283.327 278.028C283.522 277.2 283.673 276.473 283.824 275.868C283.975 275.263 284.062 274.874 284.148 274.522C284.197 274.365 284.226 274.203 284.234 274.039C284.161 274.183 284.106 274.336 284.069 274.493L283.666 275.825C283.486 276.401 283.306 277.114 283.097 277.942C282.888 278.77 282.65 279.713 282.42 280.771C281.245 286.25 280.363 291.787 279.778 297.36C279.058 303.89 278.741 309.838 278.712 314.143C278.712 316.303 278.712 318.038 278.784 319.241C278.818 319.802 278.846 320.263 278.87 320.623C278.873 320.79 278.893 320.957 278.928 321.12Z" fill="#263238"/>
<path d="M278.957 309.658C278.996 309.178 278.996 308.697 278.957 308.218C278.876 306.905 278.727 305.598 278.51 304.301C277.795 300.013 276.567 295.826 274.853 291.83C273.198 287.792 270.822 284.088 267.84 280.901C267.324 280.354 266.774 279.842 266.191 279.367C265.939 279.151 265.716 278.942 265.471 278.77L264.838 278.33C264.45 278.038 264.041 277.776 263.614 277.546C265.017 278.651 266.351 279.841 267.61 281.11C270.492 284.323 272.805 288.005 274.45 291.996C275.395 294.173 276.196 296.41 276.847 298.692C277.474 300.787 277.891 302.717 278.208 304.344C278.525 305.971 278.676 307.303 278.784 308.225C278.807 308.706 278.865 309.185 278.957 309.658Z" fill="#263238"/>
<path d="M169.452 214.74H199.598L211.536 181.39H209.866L198.029 213.113L169.452 213.278V214.74Z" fill="#455A64"/>
<path d="M156.132 218.952L157.248 323.417H160.315L159.07 218.182L156.132 218.952Z" fill="#263238"/>
<path d="M220.658 217.937C220.248 219.931 223.423 323.654 223.423 323.654H226.303L223.963 217.937H220.658Z" fill="#263238"/>
<path d="M255.902 214.74H127.721V220.025H138.298L131.414 323.078L134.424 323.244L141.314 220.025H245.117L250.15 323.287H253.166L248.134 220.025H255.902V214.74Z" fill="#263238"/>
<path d="M183.6 319.486V311.566L168.761 311.414L168.595 323.006L169.517 323.071C173.606 323.345 190.339 324.151 193.082 323.352C196.135 322.459 183.6 319.486 183.6 319.486Z" fill="#2F54EB"/>
<path d="M173.966 322.942C173.762 321.687 173.101 320.554 172.109 319.759C171.136 318.971 169.903 318.573 168.653 318.643L168.61 322.79L173.966 322.942Z" fill="#F5F5F5"/>
<path d="M189.706 321.156C189.706 321.156 194.112 322.481 193.55 323.201C192.989 323.921 176.054 323.741 168.588 323.006V322.675L188.345 323.057C188.345 323.057 188.842 321.185 189.706 321.156Z" fill="#F5F5F5"/>
<path d="M168.386 322.661H168.638L169.358 322.718L172.051 322.862C174.326 322.97 177.473 323.071 180.95 323.114C184.428 323.158 187.582 323.114 189.857 323.064L192.557 322.985L193.277 322.949H193.529C193.445 322.938 193.36 322.938 193.277 322.949H192.557H189.857C187.582 322.949 184.428 322.949 180.958 322.949C177.487 322.949 174.334 322.819 172.058 322.747L169.358 322.661H168.638H168.386Z" fill="#263238"/>
<path d="M188.366 323.28C188.489 322.834 188.663 322.404 188.885 321.998C189.153 321.622 189.465 321.279 189.814 320.976C189.368 321.168 188.992 321.492 188.734 321.904C188.477 322.315 188.351 322.795 188.374 323.28H188.366Z" fill="#263238"/>
<path d="M184.01 321.019C184.054 321.019 184.27 320.789 184.486 320.45C184.702 320.112 184.853 319.817 184.81 319.788C184.766 319.759 184.558 320.018 184.334 320.357C184.18 320.551 184.069 320.777 184.01 321.019Z" fill="#263238"/>
<path d="M182.815 320.4C182.851 320.436 183.089 320.285 183.348 320.054C183.607 319.824 183.787 319.615 183.751 319.579C183.715 319.543 183.485 319.694 183.226 319.918C182.966 320.141 182.786 320.335 182.815 320.4Z" fill="#263238"/>
<path d="M182.074 318.96C182.319 319.055 182.582 319.092 182.844 319.068C183.105 319.102 183.371 319.078 183.622 318.996C183.377 318.901 183.113 318.864 182.851 318.888C182.59 318.855 182.324 318.879 182.074 318.96Z" fill="#263238"/>
<path d="M181.822 317.974C182.088 318.118 182.382 318.207 182.684 318.233C182.987 318.259 183.291 318.222 183.578 318.125C182.992 318.079 182.407 318.029 181.822 317.974Z" fill="#263238"/>
<path d="M184.529 319.73C184.846 319.785 185.17 319.785 185.486 319.73C185.831 319.694 186.171 319.624 186.502 319.522C186.704 319.465 186.9 319.385 187.085 319.284C187.142 319.254 187.192 319.213 187.233 319.164C187.273 319.114 187.304 319.057 187.322 318.996C187.338 318.925 187.334 318.851 187.31 318.782C187.286 318.713 187.243 318.653 187.186 318.607C186.824 318.428 186.412 318.38 186.019 318.469C185.625 318.558 185.275 318.78 185.026 319.097C184.874 319.283 184.763 319.499 184.702 319.73C184.702 319.896 184.702 319.99 184.702 319.99C184.797 319.696 184.946 319.423 185.141 319.183C185.357 318.931 185.642 318.748 185.962 318.658C186.148 318.598 186.345 318.575 186.54 318.591C186.735 318.607 186.925 318.662 187.099 318.751C187.25 318.866 187.186 319.039 187.02 319.14C186.848 319.232 186.667 319.307 186.48 319.363C186.158 319.47 185.828 319.552 185.494 319.608C184.896 319.68 184.529 319.68 184.529 319.73Z" fill="#263238"/>
<path d="M184.774 319.781C184.894 319.582 184.937 319.347 184.896 319.118C184.869 318.862 184.783 318.615 184.644 318.398C184.565 318.255 184.451 318.135 184.312 318.048C184.174 317.961 184.015 317.91 183.852 317.902C183.755 317.921 183.669 317.978 183.614 318.06C183.558 318.142 183.538 318.243 183.557 318.341C183.576 318.492 183.628 318.636 183.708 318.766C183.835 318.975 183.985 319.171 184.154 319.349C184.298 319.522 184.484 319.656 184.694 319.738C184.694 319.738 184.507 319.565 184.248 319.262C184.098 319.085 183.968 318.892 183.859 318.686C183.73 318.485 183.643 318.118 183.859 318.082C184.075 318.046 184.342 318.298 184.486 318.492C184.613 318.679 184.702 318.889 184.745 319.111C184.78 319.333 184.79 319.557 184.774 319.781Z" fill="#263238"/>
<path d="M168.732 318.607C168.732 318.607 169.157 318.571 169.826 318.658C170.698 318.768 171.523 319.117 172.21 319.666C172.878 320.241 173.376 320.988 173.65 321.826C173.866 322.459 173.887 322.891 173.916 322.884C173.945 322.877 173.916 322.776 173.916 322.589C173.891 322.316 173.841 322.046 173.765 321.782C173.506 320.909 172.989 320.134 172.283 319.558C171.576 318.983 170.713 318.634 169.805 318.557C169.532 318.526 169.257 318.526 168.984 318.557C168.898 318.557 168.812 318.574 168.732 318.607Z" fill="#263238"/>
<path d="M170.338 312.48C170.165 314.506 170.117 316.54 170.194 318.571C170.308 317.56 170.361 316.543 170.352 315.526C170.404 314.511 170.399 313.494 170.338 312.48Z" fill="#263238"/>
<path d="M175.853 321.516C176.559 321.691 177.285 321.771 178.013 321.754C178.736 321.801 179.463 321.75 180.173 321.602C180.173 321.552 179.201 321.602 178.013 321.602C176.825 321.602 175.86 321.466 175.853 321.516Z" fill="#263238"/>
<path d="M172.944 321.48C172.944 321.516 173.023 321.689 173.117 321.912C173.21 322.135 173.268 322.33 173.318 322.33C173.369 322.33 173.398 322.092 173.282 321.84C173.167 321.588 172.98 321.444 172.944 321.48Z" fill="#263238"/>
<path d="M171.864 320.105C171.864 320.141 171.922 320.292 172.073 320.45C172.224 320.609 172.375 320.71 172.411 320.674C172.447 320.638 172.354 320.486 172.202 320.328C172.051 320.17 171.9 320.069 171.864 320.105Z" fill="#263238"/>
<path d="M170.302 319.464C170.302 319.514 170.51 319.514 170.726 319.594C170.942 319.673 171.101 319.795 171.137 319.759C171.173 319.723 171.058 319.522 170.784 319.428C170.51 319.334 170.287 319.421 170.302 319.464Z" fill="#263238"/>
<path d="M169.2 319.162C169.2 319.205 169.265 319.284 169.387 319.334C169.51 319.385 169.625 319.385 169.639 319.334C169.654 319.284 169.574 319.212 169.452 319.162C169.33 319.111 169.2 319.111 169.2 319.162Z" fill="#263238"/>
<path d="M212.774 311.494L209.52 304.258L195.934 310.226L200.549 320.854L201.413 320.537C205.258 319.097 220.853 312.955 223.013 311.098C225.454 309.024 212.774 311.494 212.774 311.494Z" fill="#2F54EB"/>
<path d="M205.452 318.586C204.752 317.517 203.679 316.747 202.442 316.426C201.233 316.111 199.95 316.258 198.842 316.836L200.506 320.63L205.452 318.586Z" fill="#F5F5F5"/>
<path d="M219.06 310.486C219.06 310.486 223.618 309.874 223.38 310.766C223.142 311.659 207.655 318.456 200.549 320.846L200.441 320.537L218.599 312.754C218.599 312.754 218.282 310.867 219.06 310.486Z" fill="#F5F5F5"/>
<path d="M200.239 320.63L200.484 320.551L201.204 320.299L203.724 319.32C205.841 318.478 208.764 317.282 211.939 315.886C215.114 314.489 217.98 313.171 220.032 312.178L222.458 310.997L223.114 310.658C223.193 310.627 223.268 310.586 223.337 310.536L223.099 310.63L222.43 310.932L219.982 312.07C217.915 313.02 215.05 314.33 211.867 315.72C208.685 317.11 205.776 318.334 203.674 319.205L201.182 320.234L200.506 320.515L200.239 320.63Z" fill="#263238"/>
<path d="M218.714 312.977C218.639 312.52 218.619 312.056 218.657 311.594C218.752 311.141 218.894 310.7 219.082 310.277C218.728 310.617 218.513 311.076 218.477 311.566C218.381 312.049 218.465 312.551 218.714 312.977Z" fill="#263238"/>
<path d="M213.84 312.696C213.89 312.696 213.977 312.386 214.042 311.976C214.106 311.566 214.114 311.256 214.042 311.256C213.97 311.256 213.905 311.566 213.84 311.976C213.781 312.212 213.781 312.46 213.84 312.696Z" fill="#263238"/>
<path d="M212.458 312.602C212.501 312.602 212.652 312.379 212.796 312.07C212.94 311.76 213.012 311.486 212.969 311.465C212.926 311.443 212.774 311.681 212.63 311.998C212.486 312.314 212.4 312.581 212.458 312.602Z" fill="#263238"/>
<path d="M211.198 311.623C211.45 311.599 211.695 311.523 211.918 311.4C212.314 311.234 212.638 311.062 212.594 311.018C212.551 310.975 212.242 311.069 211.874 311.234C211.507 311.4 211.176 311.573 211.198 311.623Z" fill="#263238"/>
<path d="M210.564 310.824C210.867 310.874 211.178 310.831 211.457 310.702C211.752 310.629 212.018 310.468 212.22 310.241C211.936 310.314 211.658 310.413 211.392 310.536C211.107 310.605 210.83 310.702 210.564 310.824Z" fill="#263238"/>
<path d="M213.754 311.314C214.064 311.233 214.358 311.102 214.625 310.925C214.921 310.746 215.201 310.541 215.46 310.313C215.622 310.178 215.77 310.026 215.899 309.859C215.975 309.753 216.008 309.622 215.993 309.492C215.98 309.421 215.946 309.356 215.896 309.305C215.846 309.254 215.782 309.219 215.712 309.204C215.451 309.193 215.192 309.24 214.952 309.342C214.712 309.444 214.497 309.598 214.324 309.794C214.151 309.989 214.024 310.22 213.951 310.47C213.879 310.721 213.863 310.984 213.905 311.242C213.913 311.33 213.94 311.416 213.984 311.494C213.958 311.185 213.983 310.873 214.056 310.572C214.151 310.255 214.336 309.972 214.589 309.758C214.883 309.496 215.268 309.359 215.662 309.377C215.849 309.413 215.863 309.6 215.748 309.766C215.63 309.919 215.497 310.061 215.352 310.19C215.1 310.417 214.833 310.626 214.553 310.817C214.07 311.141 213.739 311.285 213.754 311.314Z" fill="#263238"/>
<path d="M213.998 311.256C214.021 311.027 213.962 310.798 213.833 310.608C213.703 310.391 213.526 310.206 213.314 310.068C213.184 309.972 213.03 309.91 212.869 309.888C212.708 309.867 212.544 309.887 212.393 309.946C212.312 310.002 212.257 310.088 212.239 310.186C212.222 310.283 212.243 310.383 212.299 310.464C212.378 310.595 212.486 310.706 212.616 310.788C212.817 310.931 213.035 311.05 213.264 311.141C213.468 311.238 213.693 311.283 213.919 311.27C213.919 311.27 213.674 311.191 213.314 311.018C213.102 310.922 212.902 310.801 212.717 310.658C212.515 310.529 212.292 310.234 212.494 310.097C212.615 310.061 212.742 310.053 212.867 310.073C212.991 310.093 213.11 310.141 213.214 310.212C213.411 310.327 213.581 310.484 213.71 310.673C213.823 310.859 213.919 311.054 213.998 311.256Z" fill="#263238"/>
<path d="M198.893 316.8C198.893 316.8 199.26 316.591 199.908 316.397C200.747 316.133 201.644 316.113 202.494 316.339C203.344 316.565 204.112 317.027 204.71 317.671C205.171 318.168 205.366 318.55 205.394 318.528C205.367 318.431 205.326 318.339 205.272 318.254C205.141 318.017 204.984 317.795 204.804 317.592C204.211 316.897 203.424 316.395 202.543 316.152C201.661 315.925 200.732 315.963 199.872 316.26C199.62 316.352 199.379 316.47 199.152 316.613C198.965 316.714 198.886 316.8 198.893 316.8Z" fill="#263238"/>
<path d="M197.82 310.514C198.125 311.497 198.493 312.459 198.922 313.394C199.295 314.341 199.721 315.267 200.196 316.166C199.883 315.197 199.513 314.248 199.087 313.322C198.717 312.364 198.294 311.426 197.82 310.514Z" fill="#263238"/>
<path d="M206.575 316.512C207.292 316.375 207.989 316.147 208.649 315.835C209.331 315.581 209.976 315.235 210.564 314.806C210.564 314.762 209.678 315.202 208.577 315.67C207.475 316.138 206.561 316.462 206.575 316.512Z" fill="#263238"/>
<path d="M203.911 317.671C203.911 317.722 204.07 317.83 204.25 317.995C204.43 318.161 204.559 318.319 204.602 318.29C204.646 318.262 204.602 318.046 204.372 317.858C204.142 317.671 203.926 317.628 203.911 317.671Z" fill="#263238"/>
<path d="M202.363 316.865C202.363 316.915 202.493 317.016 202.694 317.095C202.896 317.174 203.076 317.203 203.098 317.16C203.119 317.117 202.968 317.009 202.766 316.93C202.565 316.85 202.378 316.8 202.363 316.865Z" fill="#263238"/>
<path d="M200.678 316.922C200.678 316.966 200.887 316.886 201.118 316.872C201.348 316.858 201.535 316.872 201.557 316.872C201.578 316.872 201.384 316.685 201.103 316.714C200.822 316.742 200.642 316.886 200.678 316.922Z" fill="#263238"/>
<path d="M199.534 317.102C199.534 317.153 199.649 317.189 199.778 317.182C199.908 317.174 200.016 317.131 200.016 317.081C200.016 317.03 199.901 316.994 199.771 317.002C199.642 317.009 199.534 317.052 199.534 317.102Z" fill="#263238"/>
<path d="M78.1272 258.566L67.4136 178.51C67.3468 178.011 67.3921 177.504 67.5462 177.026C67.7003 176.547 67.9592 176.109 68.3042 175.744C68.6492 175.378 69.0714 175.094 69.5402 174.912C70.0089 174.731 70.5123 174.656 71.0136 174.694L96.84 176.854C97.992 176.95 99.0723 177.453 99.8885 178.272C100.705 179.091 101.204 180.172 101.297 181.325L107.59 257.119L78.1272 258.566Z" fill="#2F54EB"/>
<g opacity="0.2">
<path d="M78.1272 258.566L67.4136 178.51C67.3468 178.011 67.3921 177.504 67.5462 177.026C67.7003 176.547 67.9592 176.109 68.3042 175.744C68.6492 175.378 69.0714 175.094 69.5402 174.912C70.0089 174.731 70.5123 174.656 71.0136 174.694L96.84 176.854C97.992 176.95 99.0723 177.453 99.8885 178.272C100.705 179.091 101.204 180.172 101.297 181.325L107.59 257.119L78.1272 258.566Z" fill="black"/>
</g>
<path d="M103.039 140.911C102.823 137.858 102.024 134.885 101.599 131.861C101.174 128.837 101.088 125.654 102.283 122.839C103.015 121.27 104.049 119.86 105.327 118.691C106.604 117.523 108.1 116.617 109.728 116.028C112.998 114.868 116.49 114.469 119.938 114.862C120.561 114.88 121.175 115.02 121.745 115.272C122.026 115.402 122.269 115.604 122.45 115.856C122.63 116.108 122.742 116.403 122.774 116.712C122.781 116.865 122.757 117.018 122.702 117.161C122.647 117.305 122.563 117.435 122.456 117.545C122.349 117.654 122.22 117.74 122.078 117.798C121.935 117.855 121.783 117.883 121.63 117.878C122.945 118.013 124.241 118.29 125.496 118.706C126.006 118.851 126.449 119.169 126.749 119.606C126.87 119.88 126.918 120.181 126.888 120.479C126.858 120.777 126.75 121.062 126.576 121.306C126.218 121.788 125.777 122.203 125.273 122.53C125.427 122.499 125.586 122.5 125.74 122.531C125.894 122.562 126.04 122.623 126.17 122.71C126.301 122.798 126.413 122.91 126.5 123.041C126.586 123.172 126.647 123.319 126.677 123.473C126.723 123.787 126.703 124.108 126.617 124.415C126.531 124.721 126.383 125.006 126.18 125.251C125.813 125.77 125.338 126.194 124.956 126.691C123.401 128.758 123.703 131.63 124.078 134.194" fill="#263238"/>
<path d="M103.32 158.796L117.871 158.537C118.066 156.852 118.346 150.3 118.346 150.3C118.346 150.3 124.43 149.738 124.877 143.719C125.323 137.7 125.136 123.804 125.136 123.804C121.803 122.121 118.081 121.359 114.355 121.596C110.628 121.832 107.033 123.06 103.939 125.15L103.003 125.784L103.32 158.796Z" fill="#B78876"/>
<path d="M123.12 134.244C122.998 134.121 122.914 133.964 122.881 133.794C122.847 133.624 122.865 133.448 122.932 133.287C122.998 133.127 123.111 132.99 123.255 132.894C123.4 132.798 123.569 132.746 123.743 132.746C123.916 132.746 124.086 132.798 124.23 132.894C124.375 132.99 124.487 133.127 124.554 133.287C124.621 133.448 124.638 133.624 124.605 133.794C124.571 133.964 124.488 134.121 124.366 134.244C124.285 134.327 124.188 134.393 124.081 134.438C123.974 134.483 123.859 134.506 123.743 134.506C123.627 134.506 123.512 134.483 123.405 134.438C123.298 134.393 123.201 134.327 123.12 134.244Z" fill="#263238"/>
<path d="M124.654 132.782C124.553 132.883 123.991 132.394 123.163 132.336C122.335 132.278 121.723 132.674 121.615 132.559C121.507 132.444 121.68 132.329 121.954 132.142C122.325 131.912 122.76 131.806 123.196 131.838C123.632 131.871 124.046 132.04 124.38 132.322C124.625 132.545 124.704 132.739 124.654 132.782Z" fill="#263238"/>
<path d="M115.049 132.919C115.192 133.019 115.302 133.159 115.365 133.321C115.428 133.483 115.441 133.661 115.403 133.831C115.365 134.001 115.278 134.156 115.152 134.276C115.025 134.396 114.866 134.476 114.695 134.505C114.523 134.535 114.346 134.512 114.187 134.441C114.028 134.37 113.894 134.253 113.802 134.106C113.709 133.958 113.663 133.786 113.668 133.612C113.674 133.438 113.731 133.27 113.832 133.128C113.898 133.034 113.982 132.954 114.079 132.893C114.176 132.832 114.284 132.79 114.397 132.771C114.51 132.751 114.626 132.755 114.738 132.78C114.85 132.805 114.955 132.853 115.049 132.919Z" fill="#263238"/>
<path d="M115.596 132.962C115.495 133.056 114.934 132.566 114.106 132.509C113.278 132.451 112.666 132.847 112.565 132.739C112.464 132.631 112.622 132.502 112.903 132.322C113.272 132.088 113.707 131.98 114.143 132.012C114.578 132.045 114.992 132.216 115.322 132.502C115.567 132.718 115.646 132.919 115.596 132.962Z" fill="#263238"/>
<path d="M118.505 140.011C118.941 139.867 119.399 139.799 119.858 139.81C120.082 139.81 120.254 139.759 120.276 139.644C120.294 139.426 120.255 139.208 120.161 139.01C119.981 138.449 119.794 137.88 119.606 137.282C118.85 134.827 118.332 132.804 118.462 132.768C118.591 132.732 119.297 134.69 120.06 137.146C120.24 137.743 120.406 138.319 120.578 138.881C120.697 139.171 120.717 139.492 120.636 139.795C120.6 139.876 120.545 139.948 120.476 140.004C120.408 140.061 120.327 140.1 120.24 140.119C120.118 140.132 119.995 140.132 119.873 140.119C119.414 140.161 118.951 140.124 118.505 140.011Z" fill="#263238"/>
<path d="M115.747 140.76C114.919 140.191 118.051 142.2 119.743 142.2C119.433 142.615 118.992 142.912 118.491 143.043C117.989 143.174 117.459 143.131 116.986 142.92C115.2 142.164 115.747 140.76 115.747 140.76Z" fill="white"/>
<path d="M118.368 150.214C115.582 150.097 112.895 149.152 110.65 147.499C110.65 147.499 112.241 151.949 118.282 151.776L118.368 150.214Z" fill="#A36957"/>
<path d="M102.809 130.32L103.118 138.132C103.118 138.132 105.862 137.297 106.042 137.218C106.222 137.138 105.991 127.649 105.991 127.649C105.991 127.649 105.61 124.049 107.942 123.221C110.398 122.335 111.463 124.114 114.941 124.661C126.41 126.598 125.626 123.077 125.626 123.077C125.626 123.077 127.066 121.529 124.121 119.83C121.176 118.13 113.81 117.554 109.778 118.944C101.858 121.673 101.383 124.387 101.383 126.785C101.383 130.205 102.809 130.32 102.809 130.32Z" fill="#263238"/>
<path d="M104.155 131.126C104.026 131.076 99.6912 130.514 100.102 135.634C100.512 140.753 105.545 138.65 105.545 138.514C105.545 138.377 104.155 131.126 104.155 131.126Z" fill="#B78876"/>
<path d="M103.831 136.8C103.831 136.8 103.745 136.872 103.601 136.951C103.394 137.059 103.154 137.082 102.931 137.016C102.582 136.837 102.288 136.566 102.081 136.232C101.875 135.899 101.763 135.515 101.758 135.122C101.708 134.683 101.757 134.237 101.902 133.819C101.94 133.659 102.016 133.509 102.124 133.384C102.232 133.259 102.368 133.161 102.521 133.099C102.621 133.065 102.731 133.066 102.83 133.102C102.93 133.139 103.014 133.209 103.068 133.301C103.147 133.438 103.118 133.546 103.147 133.553C103.176 133.56 103.248 133.452 103.19 133.25C103.155 133.124 103.076 133.014 102.967 132.941C102.815 132.851 102.636 132.821 102.463 132.854C102.256 132.912 102.067 133.021 101.915 133.172C101.762 133.324 101.651 133.512 101.592 133.718C101.411 134.175 101.344 134.67 101.398 135.158C101.513 136.188 102.118 137.11 102.838 137.268C102.979 137.297 103.124 137.293 103.264 137.258C103.403 137.224 103.533 137.158 103.644 137.066C103.831 136.958 103.846 136.836 103.831 136.8Z" fill="#A36957"/>
<path d="M161.338 200.16C161.338 200.16 168.538 199.814 169.978 200.47C172.469 201.557 179.885 213.185 179.51 213.185C178.387 213.185 176.076 213.185 176.076 213.185L164.556 208.814L161.842 209.498L161.338 200.16Z" fill="#B78876"/>
<path d="M192.298 233.546C192.298 233.546 213.84 308.16 213.89 307.793C213.941 307.426 194.58 317.102 194.58 317.102L181.519 263.146L192.298 233.546Z" fill="#263238"/>
<path d="M194.155 317.556L214.56 307.598L213.674 304.87L193.111 314.842L194.155 317.556Z" fill="#455A64"/>
<path d="M191.477 290.11C191.369 290.11 191.146 289.67 190.966 289.073C190.786 288.475 190.728 287.95 190.836 287.921C190.944 287.892 191.167 288.353 191.347 288.958C191.527 289.562 191.578 290.074 191.477 290.11Z" fill="#455A64"/>
<path d="M192.809 294.48C192.701 294.48 192.463 294.048 192.283 293.45C192.103 292.853 192.031 292.334 192.132 292.298C192.233 292.262 192.47 292.73 192.658 293.328C192.845 293.926 192.91 294.43 192.809 294.48Z" fill="#455A64"/>
<path d="M194.198 298.8C194.09 298.836 193.853 298.375 193.658 297.778C193.464 297.18 193.392 296.669 193.493 296.633C193.594 296.597 193.838 297.058 194.033 297.655C194.227 298.253 194.299 298.8 194.198 298.8Z" fill="#455A64"/>
<path d="M195.653 303.12C195.545 303.156 195.3 302.702 195.098 302.105C194.897 301.507 194.81 300.996 194.918 300.96C195.026 300.924 195.271 301.378 195.473 301.975C195.674 302.573 195.754 303.12 195.653 303.12Z" fill="#455A64"/>
<path d="M197.165 307.44C197.064 307.44 196.805 307.022 196.596 306.432C196.387 305.842 196.294 305.33 196.402 305.294C196.51 305.258 196.754 305.705 196.97 306.302C197.186 306.9 197.28 307.382 197.165 307.44Z" fill="#455A64"/>
<path d="M198.72 311.695C198.612 311.695 198.353 311.285 198.137 310.694C197.921 310.104 197.82 309.593 197.921 309.557C198.022 309.521 198.288 309.967 198.504 310.558C198.72 311.148 198.842 311.659 198.72 311.695Z" fill="#455A64"/>
<path d="M197.59 313.488C197.412 313.249 197.267 312.987 197.158 312.71C196.906 312.192 196.56 311.436 196.164 310.493C195.365 308.606 194.378 305.95 193.385 302.99C192.391 300.031 191.556 297.324 190.966 295.366C190.692 294.444 190.462 293.666 190.246 293.04C190.141 292.759 190.074 292.467 190.044 292.169C190.185 292.431 190.301 292.706 190.39 292.99C190.591 293.53 190.865 294.307 191.196 295.279L193.723 302.861C194.71 305.82 195.653 308.484 196.387 310.392L197.266 312.646C197.403 312.914 197.512 313.196 197.59 313.488Z" fill="#455A64"/>
<path d="M91.7928 228.362C91.9728 224.41 89.7264 250.056 109.44 250.733C129.154 251.41 169.43 251.114 169.43 251.114L164.714 316.152H188.366L193.306 246.96C193.306 246.96 195.826 226.915 182.11 224.359C173.527 222.754 120.154 222.242 120.154 222.242L91.7928 228.362Z" fill="#263238"/>
<path d="M164.174 316.289H189.079V312.415L164.174 312.451V316.289Z" fill="#455A64"/>
<path d="M125.215 247.68C125.299 247.669 125.384 247.669 125.467 247.68L126.187 247.637L129.067 247.507L139.759 247.097L175.824 245.858H176.054V246.089C175.73 248.738 175.457 251.539 175.226 254.383C174.91 258.451 174.607 262.418 174.312 266.249C174.017 270.079 173.592 273.766 173.225 277.279C172.505 284.292 171.828 290.614 171.266 295.934C170.705 301.255 170.237 305.518 169.913 308.506C169.747 309.946 169.618 311.126 169.524 311.926C169.481 312.3 169.445 312.595 169.416 312.811C169.407 312.913 169.39 313.014 169.366 313.114C169.354 313.013 169.354 312.912 169.366 312.811C169.366 312.588 169.409 312.293 169.438 311.918C169.51 311.112 169.618 309.96 169.754 308.491C170.042 305.503 170.474 301.205 170.986 295.906C171.497 290.606 172.152 284.263 172.858 277.236C173.203 273.722 173.578 270.036 173.916 266.213C174.254 262.39 174.514 258.415 174.823 254.354C175.054 251.474 175.327 248.702 175.658 246.038L175.86 246.262L139.788 247.363L129.096 247.658L126.216 247.716H125.496C125.401 247.718 125.306 247.706 125.215 247.68Z" fill="#455A64"/>
<path d="M127.49 244.865C127.49 244.973 126.986 245.074 126.353 245.088C125.719 245.102 125.215 245.03 125.215 244.922C125.215 244.814 125.719 244.706 126.346 244.692C126.972 244.678 127.49 244.757 127.49 244.865Z" fill="#455A64"/>
<path d="M132.048 244.757C132.048 244.865 131.544 244.966 130.91 244.98C130.277 244.994 129.773 244.922 129.766 244.814C129.758 244.706 130.277 244.606 130.903 244.584C131.53 244.562 132.048 244.649 132.048 244.757Z" fill="#455A64"/>
<path d="M136.606 244.649C136.606 244.764 136.102 244.858 135.468 244.879C134.834 244.901 134.33 244.814 134.323 244.706C134.316 244.598 134.834 244.498 135.461 244.483C136.087 244.469 136.606 244.541 136.606 244.649Z" fill="#455A64"/>
<path d="M141.163 244.541C141.163 244.656 140.659 244.757 140.026 244.771C139.392 244.786 138.888 244.706 138.881 244.598C138.874 244.49 139.392 244.39 140.018 244.375C140.645 244.361 141.163 244.433 141.163 244.541Z" fill="#455A64"/>
<path d="M145.721 244.44C145.721 244.548 145.217 244.649 144.583 244.663C143.95 244.678 143.446 244.598 143.438 244.49C143.431 244.382 143.95 244.282 144.576 244.267C145.202 244.253 145.721 244.325 145.721 244.44Z" fill="#455A64"/>
<path d="M150.278 244.332C150.278 244.44 149.774 244.541 149.141 244.555C148.507 244.57 148.003 244.49 147.996 244.382C147.989 244.274 148.507 244.174 149.134 244.159C149.76 244.145 150.271 244.224 150.278 244.332Z" fill="#455A64"/>
<path d="M154.836 244.224C154.836 244.332 154.332 244.433 153.698 244.447C153.065 244.462 152.561 244.382 152.554 244.274C152.546 244.166 153.058 244.066 153.691 244.051C154.325 244.037 154.8 244.116 154.836 244.224Z" fill="#455A64"/>
<path d="M159.394 244.116C159.394 244.224 158.89 244.325 158.256 244.339C157.622 244.354 157.118 244.282 157.111 244.166C157.104 244.051 157.615 243.958 158.249 243.943C158.882 243.929 159.386 244.008 159.394 244.116Z" fill="#455A64"/>
<path d="M163.951 244.008C163.951 244.116 163.447 244.217 162.814 244.231C162.18 244.246 161.676 244.174 161.669 244.066C161.662 243.958 162.173 243.85 162.806 243.835C163.44 243.821 163.944 243.9 163.951 244.008Z" fill="#455A64"/>
<path d="M168.48 243.9C168.48 244.008 167.969 244.109 167.342 244.123C166.716 244.138 166.205 244.066 166.198 243.958C166.19 243.85 166.702 243.742 167.335 243.727C167.969 243.713 168.48 243.792 168.48 243.9Z" fill="#455A64"/>
<path d="M173.066 243.792C173.066 243.9 172.555 244.001 171.929 244.015C171.302 244.03 170.791 243.958 170.784 243.85C170.777 243.742 171.288 243.641 171.922 243.626C172.555 243.612 173.059 243.684 173.066 243.792Z" fill="#455A64"/>
<path d="M177.624 243.684C177.624 243.799 177.113 243.9 176.486 243.914C175.86 243.929 175.342 243.85 175.342 243.742C175.342 243.634 175.846 243.533 176.479 243.518C177.113 243.504 177.617 243.576 177.624 243.684Z" fill="#455A64"/>
<path d="M177.617 247.817C177.502 247.817 177.466 247.291 177.53 246.665C177.595 246.038 177.725 245.542 177.833 245.549C177.941 245.556 177.984 246.074 177.919 246.701C177.854 247.327 177.725 247.831 177.617 247.817Z" fill="#455A64"/>
<path d="M177.17 252.353C177.062 252.353 177.019 251.827 177.084 251.201C177.149 250.574 177.286 250.078 177.394 250.085C177.502 250.092 177.538 250.61 177.48 251.237C177.422 251.863 177.278 252.367 177.17 252.353Z" fill="#455A64"/>
<path d="M176.724 256.889C176.616 256.889 176.573 256.363 176.638 255.737C176.702 255.11 176.839 254.614 176.947 254.621C177.055 254.628 177.091 255.154 177.034 255.78C176.976 256.406 176.832 256.903 176.724 256.889Z" fill="#455A64"/>
<path d="M176.278 261.425C176.17 261.425 176.134 260.899 176.191 260.273C176.249 259.646 176.393 259.15 176.501 259.157C176.609 259.164 176.645 259.69 176.587 260.316C176.53 260.942 176.4 261.439 176.278 261.425Z" fill="#455A64"/>
<path d="M175.831 265.968C175.723 265.968 175.687 265.435 175.745 264.809C175.802 264.182 175.946 263.686 176.054 263.7C176.162 263.714 176.206 264.226 176.141 264.852C176.076 265.478 175.939 265.975 175.831 265.968Z" fill="#455A64"/>
<path d="M175.385 270.504C175.277 270.504 175.241 269.971 175.306 269.345C175.37 268.718 175.5 268.222 175.608 268.236C175.716 268.25 175.759 268.762 175.694 269.388C175.63 270.014 175.5 270.511 175.385 270.504Z" fill="#455A64"/>
<path d="M174.96 275.04C174.845 275.04 174.809 274.514 174.874 273.888C174.938 273.262 175.068 272.758 175.183 272.772C175.298 272.786 175.327 273.298 175.262 273.924C175.198 274.55 175.054 275.04 174.96 275.04Z" fill="#455A64"/>
<path d="M174.499 279.576C174.391 279.576 174.348 279.05 174.413 278.424C174.478 277.798 174.614 277.294 174.722 277.308C174.83 277.322 174.866 277.834 174.809 278.46C174.751 279.086 174.607 279.583 174.499 279.576Z" fill="#455A64"/>
<path d="M174.053 284.112C173.945 284.112 173.909 283.586 173.966 282.96C174.024 282.334 174.168 281.837 174.276 281.844C174.384 281.851 174.42 282.37 174.362 282.996C174.305 283.622 174.161 284.126 174.053 284.112Z" fill="#455A64"/>
<path d="M173.606 288.648C173.498 288.648 173.462 288.122 173.52 287.496C173.578 286.87 173.722 286.373 173.83 286.38C173.938 286.387 173.974 286.906 173.916 287.532C173.858 288.158 173.714 288.662 173.606 288.648Z" fill="#455A64"/>
<path d="M173.16 293.184C173.052 293.184 173.016 292.658 173.074 292.032C173.131 291.406 173.275 290.909 173.383 290.916C173.491 290.923 173.534 291.442 173.47 292.068C173.405 292.694 173.268 293.198 173.16 293.184Z" fill="#455A64"/>
<path d="M172.721 297.72C172.606 297.72 172.57 297.194 172.634 296.568C172.699 295.942 172.829 295.445 172.937 295.452C173.045 295.459 173.088 295.985 173.023 296.611C172.958 297.238 172.8 297.734 172.721 297.72Z" fill="#455A64"/>
<path d="M172.274 302.256C172.166 302.256 172.123 301.73 172.188 301.104C172.253 300.478 172.382 299.981 172.498 299.988C172.613 299.995 172.642 300.521 172.577 301.147C172.512 301.774 172.382 302.27 172.274 302.256Z" fill="#455A64"/>
<path d="M171.828 306.799C171.72 306.799 171.677 306.266 171.742 305.64C171.806 305.014 171.943 304.517 172.051 304.531C172.159 304.546 172.195 305.057 172.138 305.683C172.08 306.31 171.936 306.806 171.828 306.799Z" fill="#455A64"/>
<path d="M171.36 311.335C171.252 311.335 171.216 310.81 171.274 310.183C171.331 309.557 171.475 309.053 171.583 309.067C171.691 309.082 171.727 309.593 171.67 310.219C171.612 310.846 171.49 311.342 171.36 311.335Z" fill="#455A64"/>
<path d="M171.144 313.74C171.036 313.74 170.95 313.69 170.957 313.654C170.964 313.618 171.05 313.589 171.158 313.603C171.266 313.618 171.353 313.654 171.353 313.69C171.353 313.726 171.252 313.747 171.144 313.74Z" fill="#455A64"/>
<path d="M172.656 248.083C172.242 248.733 171.718 249.305 171.108 249.775C170.583 250.339 169.967 250.811 169.286 251.172C170.224 249.957 171.364 248.912 172.656 248.083Z" fill="#263238"/>
<path d="M174.29 248.962C173.508 249.527 172.653 249.984 171.749 250.322C170.896 250.776 169.985 251.11 169.042 251.316C169.824 250.751 170.679 250.293 171.583 249.955C172.437 249.503 173.347 249.169 174.29 248.962Z" fill="#263238"/>
<path d="M126.194 197.352C126.194 197.352 123.782 171.511 119.498 160.2L120.348 159.559L119.074 155.102L103.046 153.158L103.291 156.636C100.926 157.701 98.9938 159.54 97.812 161.849C92.052 174.046 94.932 188.287 91.8432 214.675C91.8432 214.675 88.2432 227.052 91.9584 230.926L126.929 222.775L125.28 214.798C140.544 214.51 165.643 211.702 165.643 211.702L164.923 197.258C164.923 197.258 127.418 197.482 126.194 197.352Z" fill="#455A64"/>
<path d="M119.045 155.081C119.553 155.987 119.943 156.955 120.204 157.961C120.361 158.354 120.467 158.765 120.521 159.185C120.531 159.402 120.459 159.616 120.319 159.782C120.204 159.919 120.055 160.023 119.887 160.085C119.282 160.272 118.937 160.142 118.937 160.085C118.937 160.027 119.311 160.02 119.765 159.804C119.886 159.75 119.989 159.66 120.059 159.548C120.13 159.435 120.165 159.303 120.161 159.17C120.079 158.79 119.968 158.417 119.83 158.054C119.445 157.1 119.181 156.101 119.045 155.081Z" fill="#E0E0E0"/>
<path d="M122.868 174.319C122.868 174.434 116.388 174.521 108.468 174.521C100.548 174.521 94.068 174.434 94.068 174.319C94.068 174.204 100.548 174.125 108.468 174.125C116.388 174.125 122.868 174.24 122.868 174.319Z" fill="#263238"/>
<path d="M121.363 167.04C121.363 167.148 115.646 167.242 108.605 167.242C101.563 167.242 95.8464 167.148 95.8464 167.04C95.8464 166.932 101.556 166.846 108.605 166.846C115.654 166.846 121.363 166.932 121.363 167.04Z" fill="#263238"/>
<path d="M119.261 160.639C119.261 160.747 114.538 160.834 108.706 160.834C102.874 160.834 98.1576 160.747 98.1576 160.639C98.1576 160.531 102.881 160.438 108.706 160.438C114.53 160.438 119.261 160.56 119.261 160.639Z" fill="#263238"/>
<path d="M119.052 156.118C116.362 156.321 113.663 156.389 110.966 156.319C108.27 156.389 105.571 156.321 102.881 156.118C102.881 156.01 106.481 155.923 110.966 155.923C115.452 155.923 119.052 156.01 119.052 156.118Z" fill="#263238"/>
<path d="M123.883 181.325C123.883 181.433 117.065 181.519 108.655 181.519C100.246 181.519 93.4272 181.433 93.4272 181.325C93.4272 181.217 100.246 181.123 108.655 181.123C117.065 181.123 123.883 181.21 123.883 181.325Z" fill="#263238"/>
<path d="M125.122 188.359C125.122 188.467 118.03 188.554 109.282 188.554C100.534 188.554 93.4416 188.467 93.4416 188.359C93.4416 188.251 100.534 188.158 109.282 188.158C118.03 188.158 125.122 188.251 125.122 188.359Z" fill="#263238"/>
<path d="M125.899 194.839C125.899 194.954 118.627 195.041 109.663 195.041C100.699 195.041 93.4272 194.954 93.4272 194.839C93.4272 194.724 100.699 194.645 109.663 194.645C118.627 194.645 125.899 194.731 125.899 194.839Z" fill="#263238"/>
<path d="M161.338 201.931C161.338 202.039 146.002 202.126 127.087 202.126C108.173 202.126 92.8296 202.039 92.8296 201.931C92.8296 201.823 108.166 201.73 127.087 201.73C146.009 201.73 161.338 201.823 161.338 201.931Z" fill="#263238"/>
<path d="M161.604 207.605C161.604 207.72 146.153 207.806 127.094 207.806C108.036 207.806 92.5776 207.72 92.5776 207.605C92.5776 207.49 108.029 207.41 127.094 207.41C146.16 207.41 161.604 207.497 161.604 207.605Z" fill="#263238"/>
<path d="M124.733 214.603C124.733 214.718 117.353 214.805 108.245 214.805C99.1368 214.805 91.7496 214.718 91.7496 214.603C91.7496 214.488 99.1296 214.409 108.245 214.409C117.36 214.409 124.733 214.495 124.733 214.603Z" fill="#263238"/>
<path d="M126.41 221.098C126.41 221.206 118.382 221.299 108.482 221.299C98.5824 221.299 90.5544 221.206 90.5544 221.098C90.5544 220.99 98.5824 220.903 108.482 220.903C118.382 220.903 126.41 220.99 126.41 221.098Z" fill="#263238"/>
<path d="M95.8824 222.818C95.7672 222.818 95.6808 210.226 95.6808 194.695C95.6808 179.165 95.7672 166.572 95.8824 166.572C95.9976 166.572 96.0768 179.165 96.0768 194.695C96.0768 210.226 95.9904 222.818 95.8824 222.818Z" fill="#263238"/>
<path d="M104.53 222.127C104.422 222.127 104.335 206.734 104.335 187.747C104.335 168.761 104.4 153.36 104.53 153.36C104.659 153.36 104.731 168.746 104.731 187.74C104.731 206.734 104.645 222.127 104.53 222.127Z" fill="#263238"/>
<path d="M114.084 221.098C113.976 221.098 113.89 206.258 113.89 187.978C113.89 169.697 113.976 154.858 114.084 154.858C114.192 154.858 114.286 169.697 114.286 187.978C114.286 206.258 114.199 221.098 114.084 221.098Z" fill="#263238"/>
<path d="M122.112 222.797C122.004 222.797 121.918 211.147 121.918 196.783C121.918 182.419 122.004 170.762 122.112 170.762C122.22 170.762 122.314 182.412 122.314 196.783C122.314 211.154 122.22 222.797 122.112 222.797Z" fill="#263238"/>
<path d="M130.615 197.316C130.709 198.157 130.735 199.005 130.694 199.85C130.694 201.413 130.694 203.566 130.608 205.942C130.522 208.318 130.478 210.478 130.406 212.033C130.4 212.879 130.332 213.724 130.205 214.56C130.111 213.721 130.084 212.876 130.126 212.033C130.126 210.47 130.126 208.318 130.212 205.934C130.298 203.551 130.342 201.398 130.414 199.836C130.411 198.992 130.479 198.149 130.615 197.316Z" fill="#263238"/>
<path d="M139.68 197.618C139.769 198.407 139.796 199.202 139.759 199.994C139.759 201.434 139.759 203.472 139.687 205.697C139.615 207.922 139.558 209.945 139.493 211.406C139.495 212.198 139.428 212.988 139.291 213.768C139.202 212.984 139.175 212.194 139.212 211.406C139.212 209.966 139.212 207.922 139.291 205.69C139.37 203.458 139.414 201.442 139.486 199.98C139.479 199.189 139.544 198.398 139.68 197.618Z" fill="#263238"/>
<path d="M148.694 197.46C148.793 198.221 148.822 198.99 148.781 199.757C148.781 201.197 148.781 203.134 148.709 205.294C148.637 207.454 148.586 209.412 148.514 210.823C148.522 211.593 148.457 212.362 148.32 213.12C148.23 212.36 148.201 211.595 148.234 210.83C148.234 209.39 148.234 207.454 148.313 205.294C148.392 203.134 148.435 201.168 148.5 199.757C148.502 198.987 148.567 198.219 148.694 197.46Z" fill="#263238"/>
<path d="M157.745 197.208C157.844 197.945 157.873 198.69 157.831 199.433C157.831 200.808 157.831 202.709 157.759 204.804C157.687 206.899 157.644 208.8 157.572 210.168C157.574 210.914 157.511 211.658 157.385 212.393C157.285 211.656 157.254 210.911 157.291 210.168C157.291 208.793 157.291 206.892 157.363 204.797C157.435 202.702 157.486 200.794 157.55 199.426C157.548 198.682 157.613 197.94 157.745 197.208Z" fill="#263238"/>
<path d="M123.055 200.57C123.707 198.97 124.892 197.645 126.41 196.819C125.882 197.472 125.312 198.09 124.704 198.67C124.194 199.337 123.644 199.972 123.055 200.57Z" fill="#263238"/>
<path d="M125.122 200.743C124.971 200.02 125.026 199.269 125.28 198.575C125.535 197.882 125.979 197.273 126.562 196.819C126.648 196.898 126.043 197.633 125.654 198.713C125.266 199.793 125.28 200.743 125.122 200.743Z" fill="#263238"/>
<path d="M162 211.622C161.597 209.338 161.323 207.033 161.179 204.718C160.906 202.411 160.761 200.092 160.747 197.77C161.16 200.055 161.436 202.363 161.575 204.682C161.849 206.985 161.991 209.303 162 211.622Z" fill="#263238"/>
<path d="M162.454 200.491C162.454 200.542 162.252 200.686 162.223 201.046C162.217 201.141 162.23 201.236 162.26 201.326C162.291 201.417 162.34 201.5 162.403 201.571C162.484 201.644 162.585 201.69 162.693 201.704C162.801 201.719 162.911 201.7 163.008 201.65C163.11 201.611 163.198 201.544 163.262 201.456C163.326 201.367 163.363 201.262 163.368 201.154C163.358 201.058 163.33 200.966 163.284 200.882C163.238 200.798 163.176 200.724 163.102 200.664C162.821 200.441 162.554 200.513 162.54 200.455C162.526 200.398 162.806 200.196 163.26 200.455C163.393 200.526 163.506 200.629 163.589 200.755C163.672 200.881 163.722 201.025 163.735 201.175C163.745 201.362 163.697 201.547 163.596 201.705C163.495 201.863 163.347 201.984 163.174 202.054C163.003 202.134 162.811 202.16 162.625 202.126C162.439 202.092 162.269 202.002 162.137 201.866C162.043 201.753 161.977 201.618 161.946 201.474C161.915 201.33 161.918 201.181 161.957 201.038C162.086 200.513 162.461 200.441 162.454 200.491Z" fill="#263238"/>
<path d="M126.151 197.28H126.331L126.857 197.323C127.325 197.374 128.016 197.417 128.923 197.446C130.738 197.518 133.402 197.554 136.793 197.525C143.568 197.482 153.252 197.23 164.873 196.805H165.038V196.97C165.269 201.456 165.514 206.33 165.758 211.5V211.666H165.607C163.764 212.011 161.899 212.155 159.991 212.35L154.174 212.854C150.221 213.178 146.153 213.48 142.013 213.775L126.792 214.798C122.378 214.517 118.094 212.933 115.099 210.024C113.627 208.621 112.471 206.92 111.708 205.034C110.992 203.255 110.422 201.42 110.002 199.548C108.223 192.348 107.122 185.789 106.222 180.346C105.79 177.624 105.422 175.169 105.113 173.023C104.785 171.197 104.571 169.353 104.472 167.501C104.413 166.325 104.661 165.154 105.192 164.102C105.374 163.743 105.618 163.419 105.912 163.145C105.66 163.455 105.436 163.788 105.242 164.138C104.751 165.188 104.533 166.345 104.609 167.501C104.739 169.345 104.979 171.179 105.329 172.994C105.667 175.154 106.049 177.588 106.495 180.31C107.402 185.738 108.554 192.254 110.347 199.462C110.772 201.316 111.343 203.133 112.054 204.898C112.803 206.736 113.937 208.393 115.38 209.758C118.26 212.587 122.501 214.135 126.835 214.416L142.049 213.379L154.202 212.465L160.02 211.968C161.914 211.774 163.814 211.63 165.578 211.298L165.434 211.493C165.19 206.345 164.959 201.449 164.714 196.956L164.894 197.122C153.281 197.546 143.597 197.748 136.814 197.734C133.423 197.734 130.759 197.669 128.945 197.561C128.038 197.51 127.339 197.453 126.871 197.381L126.346 197.316C126.279 197.313 126.214 197.301 126.151 197.28Z" fill="#263238"/>
<path d="M126.151 197.28C125.992 196.915 125.867 196.537 125.777 196.15C125.568 195.43 125.28 194.35 124.934 193.025C124.214 190.382 123.386 186.703 122.465 182.642C121.543 178.582 120.701 174.902 120.067 172.246L119.347 169.099C119.235 168.719 119.16 168.328 119.124 167.933C119.279 168.299 119.404 168.677 119.498 169.063C119.722 169.783 120.01 170.856 120.362 172.181C121.082 174.816 121.961 178.488 122.882 182.556C123.804 186.624 124.56 190.231 125.208 192.96C125.496 194.242 125.741 195.3 125.928 196.114C126.032 196.496 126.106 196.886 126.151 197.28Z" fill="#263238"/>
<path d="M119.095 155.383C119.102 155.649 119.075 155.915 119.016 156.175C118.944 156.686 118.829 157.414 118.67 158.335C118.601 158.838 118.5 159.336 118.368 159.826C118.324 159.988 118.242 160.138 118.13 160.263C118.017 160.388 117.877 160.485 117.72 160.546C117.404 160.629 117.071 160.629 116.755 160.546C115.567 160.301 114.271 159.984 112.918 159.617C110.218 158.897 107.813 158.098 106.063 157.558L103.997 156.91C103.746 156.846 103.504 156.752 103.277 156.629C103.543 156.637 103.807 156.68 104.062 156.758C104.566 156.874 105.286 157.046 106.171 157.291C107.942 157.759 110.362 158.494 113.054 159.235C114.401 159.602 115.682 159.955 116.863 160.193C117.116 160.275 117.386 160.293 117.648 160.243C117.755 160.204 117.852 160.14 117.929 160.056C118.007 159.972 118.064 159.871 118.094 159.761C118.253 159.3 118.318 158.767 118.426 158.321C118.613 157.428 118.778 156.708 118.894 156.204C118.921 155.922 118.989 155.646 119.095 155.383Z" fill="#263238"/>
<path d="M106.495 255.06L111.528 323.366L113.63 322.877L112.846 256.5L106.495 255.06Z" fill="#263238"/>
<path d="M85.1688 257.436L69.8832 323.287H72.648L94.5288 257.436H85.1688Z" fill="#263238"/>
<path d="M125.597 257.436L146.448 323.287H148.68L132.113 257.436H125.597Z" fill="#263238"/>
<path d="M128.39 261.857L81.6624 292.392V294.062L129.694 261.857H128.39Z" fill="#263238"/>
<path d="M88.74 261.857L139.37 295.927V293.321L90.2232 260.366L88.74 261.857Z" fill="#263238"/>
<path d="M78.1848 258.566L138.391 257.479C138.93 257.469 139.462 257.346 139.95 257.117C140.439 256.889 140.874 256.561 141.228 256.153C141.581 255.746 141.845 255.269 142.003 254.753C142.16 254.238 142.208 253.695 142.142 253.159C142.033 252.212 141.576 251.339 140.858 250.711C140.141 250.082 139.215 249.744 138.262 249.761L77.1984 250.74L78.1848 258.566Z" fill="#2F54EB"/>
<g opacity="0.2">
<path d="M78.1848 258.566L138.391 257.479C138.93 257.469 139.462 257.346 139.95 257.117C140.439 256.889 140.874 256.561 141.228 256.153C141.581 255.746 141.845 255.269 142.003 254.753C142.16 254.238 142.208 253.695 142.142 253.159C142.033 252.212 141.576 251.339 140.858 250.711C140.141 250.082 139.215 249.744 138.262 249.761L77.1984 250.74L78.1848 258.566Z" fill="black"/>
</g>
<path d="M72.0504 212.026L78.1272 258.566L125.597 257.436L125.474 229.169C125.491 228.058 125.274 226.956 124.837 225.935C124.4 224.913 123.753 223.995 122.939 223.24C122.124 222.485 121.159 221.91 120.107 221.552C119.056 221.194 117.941 221.061 116.834 221.162L80.64 224.431L75.8736 175.104L71.064 174.694C70.5616 174.657 70.0574 174.733 69.5881 174.916C69.1188 175.099 68.6963 175.384 68.3513 175.751C68.0064 176.118 67.7477 176.557 67.5942 177.037C67.4407 177.517 67.3962 178.025 67.464 178.524L72.0504 212.026Z" fill="#2F54EB"/>
</svg>
