<svg width="324" height="324" viewBox="0 0 324 324" fill="none" xmlns="http://www.w3.org/2000/svg">
<path d="M116.854 118.843C117.994 126.565 116.818 134.452 113.475 141.506C110.131 148.559 104.77 154.462 98.0698 158.468C91.3699 162.473 83.6323 164.401 75.8363 164.007C68.0404 163.613 60.5365 160.915 54.2744 156.255C48.0123 151.595 43.2735 145.181 40.6577 137.827C38.0419 130.472 37.6667 122.507 39.5797 114.939C41.4926 107.371 45.6077 100.541 51.404 95.3127C57.2004 90.0844 64.4175 86.6933 72.1419 85.5684C82.4836 84.052 93.004 86.7057 101.389 92.9459C109.774 99.1861 115.337 108.502 116.854 118.843Z" fill="#F5F5F5"/>
<path d="M107.568 120.198C108.436 126.082 107.538 132.091 104.989 137.465C102.44 142.84 98.3539 147.337 93.248 150.388C88.1421 153.438 82.2458 154.906 76.3055 154.605C70.3652 154.303 64.6477 152.246 59.8769 148.694C55.106 145.142 51.4961 140.255 49.5041 134.65C47.512 129.046 47.2274 122.976 48.6862 117.21C50.145 111.444 53.2817 106.24 57.6992 102.257C62.1167 98.2737 67.6165 95.6908 73.5026 94.8348C77.4047 94.263 81.3813 94.4655 85.2052 95.4307C89.0291 96.3959 92.6254 98.1049 95.7887 100.46C98.9521 102.815 101.62 105.771 103.642 109.157C105.663 112.544 106.997 116.295 107.568 120.198Z" fill="#EBEBEB"/>
<path d="M107.419 119.264C107.244 119.264 106.927 118.007 106.123 115.804C104.991 112.701 103.387 109.792 101.367 107.179C99.9723 105.401 98.3883 103.78 96.6428 102.345C94.6358 100.716 92.4274 99.3531 90.0721 98.2886C88.8034 97.7074 87.4929 97.2222 86.1516 96.8371C84.7586 96.4245 83.335 96.1233 81.8943 95.9364C80.4067 95.73 78.9052 95.6412 77.4036 95.6707C75.8548 95.7081 74.3107 95.8576 72.7834 96.1178C71.2609 96.4002 69.7603 96.79 68.2928 97.2842C66.8688 97.7763 65.4846 98.3763 64.1521 99.0792C62.8653 99.7568 61.6327 100.532 60.4649 101.399C59.3394 102.22 58.278 103.126 57.2897 104.108C55.4453 105.911 53.8422 107.945 52.5205 110.16C51.3736 112.107 50.4435 114.173 49.747 116.322C48.7508 119.466 48.2459 122.745 48.2501 126.042C48.2501 128.395 48.3992 129.71 48.2501 129.743C48.1011 129.775 47.6669 128.498 47.3883 126.088C47.0254 122.655 47.3067 119.185 48.2177 115.856C48.8432 113.542 49.7416 111.31 50.894 109.207C52.2291 106.786 53.8858 104.556 55.8188 102.578C56.859 101.501 57.9837 100.509 59.1819 99.6106C60.4217 98.6563 61.7372 97.8046 63.1153 97.0639C64.5459 96.3002 66.0344 95.6502 67.567 95.1199C69.1453 94.5657 70.7635 94.1325 72.4076 93.8239C74.0545 93.5421 75.7202 93.384 77.3907 93.3509C79.0122 93.3284 80.633 93.4346 82.2377 93.6684C83.7876 93.893 85.3173 94.2397 86.8126 94.7052C88.2467 95.1358 89.6443 95.6797 90.9922 96.3317C93.4891 97.5248 95.8128 99.0507 97.8999 100.868C99.7054 102.445 101.317 104.231 102.702 106.188C104.703 109.002 106.162 112.164 107.004 115.512C107.568 117.897 107.568 119.232 107.419 119.264Z" fill="#E0E0E0"/>
<path d="M83.7541 141.776L84.5835 146.96L79.9697 147.699L79.1597 142.67C74.546 143.124 69.9322 142.392 67.0745 140.817L68.6881 134.784C71.6361 136.206 74.9023 136.84 78.1683 136.624L76.9306 128.913C71.6105 128.492 65.6101 127.695 64.5538 121.092C63.7697 116.199 66.6533 111.43 73.8137 109.428L72.9908 104.302L77.611 103.563L78.4145 108.592C81.7455 108.245 85.1112 108.689 88.2382 109.888L86.8385 115.94C84.468 115.016 81.9364 114.575 79.393 114.644L80.6501 122.491C85.9637 122.874 91.8735 123.677 92.9168 130.19C93.7073 135.024 90.8626 139.741 83.7541 141.776ZM75.8744 122.109L74.8246 115.551C72.4659 116.497 71.7077 117.994 71.954 119.517C72.2002 121.04 73.736 121.824 75.8744 122.109ZM85.5944 131.965C85.3352 130.345 83.8577 129.684 81.7582 129.308L82.7821 135.685C85.0112 134.784 85.8341 133.443 85.5944 131.965Z" fill="#E0E0E0"/>
<path d="M260.101 83.3782C263.053 88.2223 264.501 93.8334 264.263 99.5012C264.025 105.169 262.11 110.639 258.762 115.218C255.413 119.797 250.782 123.28 245.453 125.225C240.124 127.171 234.338 127.492 228.827 126.147C223.315 124.803 218.327 121.854 214.493 117.673C210.659 113.492 208.151 108.268 207.287 102.661C206.424 97.0542 207.243 91.3173 209.641 86.1765C212.04 81.0356 215.909 76.7219 220.761 73.7813C223.974 71.8277 227.54 70.5262 231.256 69.9512C234.972 69.3763 238.765 69.539 242.419 70.4302C246.072 71.3214 249.514 72.9236 252.548 75.1452C255.582 77.3669 258.148 80.1644 260.101 83.3782Z" fill="#F5F5F5"/>
<path d="M254.269 86.9097C256.52 90.6016 257.625 94.8783 257.445 99.1986C257.264 103.519 255.805 107.688 253.254 111.179C250.702 114.67 247.172 117.326 243.111 118.81C239.049 120.293 234.639 120.539 230.438 119.514C226.237 118.49 222.434 116.243 219.511 113.056C216.588 109.87 214.676 105.888 214.017 101.614C213.359 97.3405 213.983 92.9676 215.811 89.0489C217.639 85.1302 220.588 81.8419 224.286 79.6003C229.232 76.596 235.168 75.6784 240.79 77.049C246.412 78.4196 251.26 81.9663 254.269 86.9097Z" fill="#EBEBEB"/>
<path d="M253.912 86.3266C253.802 86.4043 253.225 85.6332 252.053 84.3826C250.419 82.6262 248.521 81.1352 246.428 79.9632C244.99 79.1654 243.469 78.5286 241.892 78.0646C240.087 77.5441 238.223 77.2567 236.345 77.2092C235.332 77.1831 234.319 77.2307 233.312 77.3518C232.264 77.4717 231.226 77.6732 230.209 77.9544C229.153 78.2371 228.122 78.6033 227.124 79.0495C225.065 79.9713 223.163 81.2088 221.486 82.7172C220.674 83.4478 219.92 84.2408 219.231 85.0889C217.919 86.6916 216.851 88.4801 216.063 90.396C215.339 92.1301 214.844 93.9512 214.592 95.8133C214.376 97.4395 214.339 99.0844 214.482 100.719C214.705 103.107 215.297 105.446 216.238 107.652C216.886 109.227 217.378 110.069 217.268 110.141C217.158 110.212 216.523 109.493 215.654 107.944C214.44 105.749 213.644 103.347 213.309 100.861C213.071 99.1431 213.039 97.403 213.211 95.6772C213.535 92.5884 214.497 89.6005 216.037 86.9033C216.61 85.9143 217.26 84.9718 217.981 84.0845C218.714 83.1553 219.522 82.2884 220.398 81.4925C222.192 79.8482 224.246 78.5126 226.476 77.5397C227.555 77.0629 228.671 76.675 229.813 76.3798C230.912 76.0878 232.032 75.8841 233.163 75.7706C234.239 75.655 235.323 75.6247 236.403 75.6799C240.164 75.825 243.823 76.9412 247.024 78.9199C249.16 80.2339 251.033 81.9348 252.545 83.9354C253.601 85.3805 254.016 86.2747 253.912 86.3266Z" fill="#E0E0E0"/>
<path d="M244.458 108.099L246.473 111.339L243.596 113.141L241.652 110.004C238.691 111.612 235.399 112.434 233.034 112.188L232.418 107.652C234.796 107.771 237.163 107.269 239.287 106.194L236.274 101.386C232.593 102.611 228.355 103.784 225.776 99.6624C223.865 96.6103 224.441 92.5992 228.666 89.2361L226.664 86.035L229.548 84.2335L231.492 87.3763C233.632 86.2014 236.023 85.5549 238.464 85.4906L239.242 89.9359C237.394 89.9973 235.577 90.4246 233.896 91.193L236.961 96.0919C240.628 94.8348 244.808 93.7073 247.329 97.7638C249.201 100.758 248.638 104.723 244.458 108.099ZM233.604 97.2L231.044 93.1111C229.748 94.4071 229.651 95.6254 230.247 96.5779C230.844 97.5305 232.088 97.5629 233.604 97.2ZM242.903 101.036C242.255 100.032 241.095 100.006 239.585 100.349L242.073 104.322C243.318 103.077 243.48 101.937 242.903 101.01V101.036Z" fill="#E0E0E0"/>
<path d="M221.499 56.8361C219.032 58.4003 216.157 59.1974 213.237 59.1265C210.316 59.0556 207.483 58.1199 205.095 56.4379C202.707 54.7559 200.871 52.4031 199.821 49.6774C198.77 46.9517 198.552 43.9756 199.194 41.1259C199.836 38.2763 201.309 35.6811 203.426 33.6689C205.544 31.6567 208.211 30.3179 211.089 29.8222C213.968 29.3264 216.929 29.6958 219.598 30.8837C222.266 32.0716 224.523 34.0246 226.081 36.4954C227.116 38.1317 227.818 39.9559 228.148 41.8638C228.478 43.7716 228.429 45.7258 228.003 47.6147C227.578 49.5035 226.785 51.2901 225.669 52.8723C224.553 54.4545 223.136 55.8014 221.499 56.8361Z" fill="#F5F5F5"/>
<path d="M219.627 53.8682C217.747 55.0594 215.555 55.666 213.33 55.6114C211.105 55.5568 208.946 54.8433 207.127 53.5614C205.307 52.2794 203.909 50.4865 203.109 48.4095C202.309 46.3326 202.143 44.065 202.632 41.8937C203.121 39.7223 204.243 37.7449 205.857 36.2116C207.47 34.6782 209.502 33.6579 211.695 33.2798C213.889 32.9016 216.145 33.1827 218.178 34.0873C220.212 34.9919 221.932 36.4794 223.119 38.3616C223.909 39.609 224.444 40.9997 224.696 42.4542C224.948 43.9087 224.91 45.3985 224.586 46.8386C224.262 48.2786 223.657 49.6406 222.806 50.8468C221.955 52.053 220.875 53.0797 219.627 53.8682Z" fill="#EBEBEB"/>
<path d="M219.918 53.6803C219.886 53.622 220.275 53.3174 220.91 52.7018C221.798 51.8442 222.548 50.854 223.132 49.7664C223.529 49.0191 223.842 48.2302 224.066 47.4142C224.319 46.4825 224.449 45.5219 224.454 44.5565C224.464 44.0342 224.431 43.5119 224.357 42.9948C224.285 42.4557 224.173 41.9228 224.02 41.4007C223.862 40.8614 223.663 40.335 223.424 39.8261C223.174 39.3015 222.888 38.7948 222.569 38.3098C222.241 37.8266 221.879 37.3675 221.486 36.936C221.103 36.5257 220.689 36.1444 220.249 35.7955C219.822 35.4585 219.369 35.1552 218.894 34.8883C218.443 34.6363 217.973 34.4197 217.488 34.2403C216.586 33.8899 215.643 33.6527 214.682 33.534C213.843 33.4401 212.995 33.4401 212.155 33.534C210.926 33.6688 209.726 33.9945 208.598 34.4995C208.187 34.7292 207.752 34.9138 207.302 35.0503C207.611 34.6914 207.993 34.4021 208.423 34.2014C209.54 33.5497 210.768 33.1103 212.045 32.9054C212.933 32.7689 213.833 32.7385 214.728 32.8147C215.757 32.8942 216.77 33.1121 217.741 33.4627C218.268 33.6557 218.78 33.8897 219.27 34.1626C219.783 34.4426 220.273 34.7633 220.735 35.1216C221.217 35.4927 221.669 35.9 222.089 36.3398C222.511 36.8006 222.901 37.29 223.256 37.8043C223.615 38.3318 223.934 38.8864 224.208 39.4632C224.47 40.015 224.687 40.5871 224.856 41.1739C225.017 41.736 225.132 42.3103 225.2 42.8911C225.267 43.4479 225.293 44.0088 225.277 44.5694C225.227 46.5088 224.68 48.4028 223.69 50.071C223.032 51.1815 222.173 52.1594 221.156 52.9546C220.801 53.283 220.378 53.5306 219.918 53.6803Z" fill="#E0E0E0"/>
<path d="M208.656 49.0082L207.01 50.0774L206.064 48.6L207.658 47.5632C206.851 46.2343 206.436 44.7048 206.459 43.1503L208.773 42.7874C208.735 44.0126 209.014 45.2267 209.583 46.3126L212 44.712C211.352 42.8263 210.704 40.6555 212.79 39.2882C214.345 38.2774 216.413 38.5366 218.188 40.6814L219.815 39.6252L220.767 41.0897L219.173 42.12C219.795 43.2075 220.152 44.4262 220.216 45.6775L217.935 46.1182C217.88 45.1806 217.642 44.2628 217.235 43.416L214.741 45.0425C215.421 46.9152 216.037 49.0601 213.976 50.4014C212.447 51.3799 210.406 51.1272 208.656 49.0082ZM214.177 43.3188L216.263 41.9645C215.583 41.3165 214.967 41.2711 214.469 41.5886C213.97 41.9062 213.937 42.5412 214.151 43.3188H214.177ZM212.285 48.1464C212.803 47.8094 212.803 47.2068 212.615 46.4292L210.587 47.7252C211.203 48.3732 211.792 48.451 212.259 48.1464H212.285Z" fill="#E0E0E0"/>
<path d="M305.986 291.885C305.986 291.982 241.516 292.054 162.006 292.054C82.4969 292.054 18.0144 291.982 18.0144 291.885C18.0144 291.788 82.471 291.717 162.006 291.717C241.542 291.717 305.986 291.794 305.986 291.885Z" fill="#263238"/>
<path d="M56.5445 271.992C57.2767 269.16 55.4169 266.309 53.3045 264.254C51.192 262.2 48.7296 260.366 47.6474 257.638C45.8913 253.232 48.2501 247.53 45.2563 243.855C43.4937 241.691 40.3315 240.965 38.7763 238.671C37.9533 237.46 37.6877 235.969 37.3637 234.544C35.7091 227.22 32.1145 220.476 26.9568 215.019C26.6126 221.537 28.0271 228.028 31.0521 233.811C32.2639 236.118 33.7543 238.347 34.1561 240.939C34.8041 245.125 32.4713 249.441 33.5081 253.549C34.6809 258.254 39.9881 261.403 40.2149 266.244C40.4287 270.339 36.8582 273.929 37.1239 278.018C37.3412 279.756 37.965 281.419 38.9448 282.871C42.12 288.159 46.7532 291.781 53.784 291.665L62.4153 291.963L56.5445 271.992Z" fill="#2F54EB"/>
<g opacity="0.3">
<path d="M56.5445 271.992C57.2767 269.16 55.4169 266.309 53.3045 264.254C51.192 262.2 48.7296 260.366 47.6474 257.638C45.8913 253.232 48.2501 247.53 45.2563 243.855C43.4937 241.691 40.3315 240.965 38.7763 238.671C37.9533 237.46 37.6877 235.969 37.3637 234.544C35.7091 227.22 32.1145 220.476 26.9568 215.019C26.6126 221.537 28.0271 228.028 31.0521 233.811C32.2639 236.118 33.7543 238.347 34.1561 240.939C34.8041 245.125 32.4713 249.441 33.5081 253.549C34.6809 258.254 39.9881 261.403 40.2149 266.244C40.4287 270.339 36.8582 273.929 37.1239 278.018C37.3412 279.756 37.965 281.419 38.9448 282.871C42.12 288.159 46.7532 291.781 53.784 291.665L62.4153 291.963L56.5445 271.992Z" fill="black"/>
</g>
<path d="M64.1519 291.905C64.9413 292.028 65.7461 292.013 66.5301 291.859C67.4837 291.714 68.4211 291.477 69.3295 291.153C70.5824 290.717 71.7539 290.075 72.7963 289.254C73.4217 288.75 73.9117 288.097 74.2219 287.356C74.4844 286.517 74.6199 285.643 74.6236 284.764C74.643 283.83 74.7123 282.897 74.831 281.971C74.9967 280.987 75.3533 280.044 75.8807 279.197C76.8981 277.409 78.5894 275.718 79.1207 273.288C79.6521 270.858 79.2892 268.317 78.8875 265.725C78.4857 263.133 78.0969 260.315 79.0884 257.619C80.0798 254.923 81.9071 252.48 82.8532 249.441C83.7993 246.402 83.3587 243.058 83.5531 239.799C83.617 238.145 83.9998 236.519 84.6806 235.01C85.3804 233.481 86.3459 232.042 87.1041 230.429C88.6334 227.189 88.9056 223.495 89.3268 219.886C89.5298 218.063 89.7458 216.225 89.9748 214.371C90.1052 212.503 90.4265 210.653 90.9338 208.85C91.5164 207.031 92.2067 205.248 93.0009 203.511C93.4088 202.609 93.7425 201.674 93.9988 200.718C94.1453 199.734 94.2384 198.744 94.2775 197.75C94.3732 195.756 94.2973 193.757 94.0507 191.776C93.8174 189.786 93.4545 187.81 93.2407 185.814L93.2018 185.471L93.1564 185.075L92.8065 185.25C90.977 186.183 89.3871 187.524 88.1604 189.171C86.9635 190.78 86.0014 192.552 85.3027 194.432C83.8641 198.139 83.3587 202.027 82.6199 205.734C81.8812 209.44 80.9999 213.101 79.0559 216.186C78.1163 217.722 76.9694 219.121 75.965 220.625C74.8974 222.086 74.1671 223.766 73.8266 225.543C73.3147 229.191 75.3235 232.399 74.9087 235.632C74.7101 237.22 74.1731 238.747 73.3341 240.11C72.55 241.49 71.6299 242.767 70.7421 244.056C69.8497 245.309 69.0732 246.641 68.4223 248.035C67.8147 249.403 67.457 250.869 67.366 252.364C67.1522 255.273 67.5669 258.034 67.366 260.639C67.1278 263.12 66.4057 265.53 65.2406 267.734C64.1908 269.853 63.0309 271.778 62.0589 273.637C61.5729 274.571 61.1193 275.478 60.7629 276.385C60.4179 277.268 60.1638 278.185 60.0047 279.12C59.7502 280.75 59.7306 282.408 59.9464 284.044C60.1764 286.32 61.0333 288.487 62.4218 290.304C62.6319 290.575 62.8638 290.829 63.1151 291.062C63.2887 291.241 63.4798 291.401 63.6854 291.542C64.0029 291.781 64.1779 291.885 64.1779 291.885C63.5589 291.4 62.9979 290.846 62.506 290.233C61.1738 288.406 60.363 286.251 60.1603 283.999C59.9697 282.382 60.0068 280.746 60.2704 279.139C60.4366 278.228 60.6927 277.336 61.0351 276.476C61.4044 275.588 61.858 274.681 62.3311 273.761C63.316 271.92 64.4889 270.009 65.5711 267.87C66.7757 265.633 67.5245 263.18 67.7743 260.652C68.0011 257.988 67.6058 255.221 67.8261 252.377C67.9187 250.933 68.2699 249.517 68.8629 248.197C69.5061 246.833 70.274 245.531 71.1568 244.309C72.0251 243.013 72.9583 241.749 73.7488 240.337C74.6262 238.92 75.1896 237.331 75.4012 235.678C75.8159 232.23 73.8201 229.003 74.3385 225.614C74.6693 223.912 75.3754 222.305 76.4056 220.91C77.3906 219.432 78.544 218.033 79.516 216.458C81.46 213.283 82.4255 209.57 83.1448 205.844C83.8641 202.118 84.3955 198.269 85.8146 194.633C86.4933 192.803 87.4294 191.08 88.5945 189.514C89.768 187.934 91.2918 186.648 93.0463 185.756L92.6445 185.535L92.6834 185.885C92.9037 187.901 93.2601 189.883 93.4934 191.847C93.7367 193.798 93.8126 195.767 93.7202 197.731C93.6854 198.696 93.5967 199.659 93.4545 200.614C93.2081 201.536 92.8851 202.436 92.489 203.304C91.6912 205.061 90.9966 206.863 90.4089 208.701C89.8902 210.533 89.5644 212.414 89.4369 214.313C89.2296 216.175 89.0265 218.015 88.8278 219.834C88.4131 223.456 88.1409 227.085 86.6699 230.202C85.9377 231.764 84.9722 233.209 84.2529 234.79C83.5502 236.354 83.1564 238.04 83.093 239.754C82.9051 243.084 83.3392 246.344 82.445 249.292C81.5508 252.24 79.6715 254.677 78.719 257.463C77.7664 260.25 78.1228 263.192 78.5311 265.771C78.9393 268.35 79.367 270.896 78.8097 273.197C78.2524 275.497 76.6713 277.188 75.6345 279.029C75.0922 279.91 74.7288 280.89 74.5653 281.912C74.4497 282.85 74.3891 283.793 74.3839 284.738C74.3828 285.587 74.2584 286.432 74.0145 287.245C73.7259 287.953 73.2647 288.577 72.6731 289.06C71.6587 289.876 70.5185 290.521 69.2971 290.971C68.4003 291.306 67.4738 291.556 66.5301 291.717C65.9504 291.822 65.3631 291.881 64.774 291.892C64.3852 291.898 64.1519 291.905 64.1519 291.905Z" fill="#263238"/>
<path d="M91.4458 190.233C91.4083 190.319 91.38 190.408 91.3616 190.499C91.3097 190.706 91.2514 190.959 91.1737 191.277C91.0052 191.957 90.7978 192.981 90.4738 194.264C90.1498 195.547 89.3528 196.986 88.6853 198.768C87.8973 200.773 87.2117 202.816 86.6312 204.891C85.9832 207.192 85.387 209.751 84.7779 212.486C84.1688 215.22 83.5208 218.149 82.0174 220.91C81.3111 222.309 80.5141 223.728 79.879 225.284C79.2577 226.875 78.8418 228.538 78.6413 230.234C78.2058 233.745 77.5828 237.23 76.7751 240.674C75.0449 247.75 73.399 254.483 71.8957 260.619L67.8068 276.884C66.6728 281.485 65.7461 285.224 65.0981 287.855C64.8001 289.151 64.5603 290.123 64.3853 290.848C64.3205 291.166 64.2622 291.425 64.2169 291.632C64.1911 291.719 64.178 291.808 64.178 291.898C64.2191 291.817 64.2517 291.733 64.2752 291.645L64.4955 290.874C64.6964 290.155 64.9621 289.164 65.3055 287.913C65.9989 285.282 66.9838 281.562 68.1891 276.975L72.3946 260.742C73.9109 254.606 75.5698 247.873 77.3194 240.797C78.1246 237.337 78.7454 233.838 79.1792 230.312C79.3696 228.667 79.7636 227.052 80.3521 225.504C80.9612 223.994 81.7453 222.582 82.4516 221.162C83.9744 218.35 84.6029 215.33 85.2121 212.609C85.8212 209.887 86.359 207.315 86.9876 205.014C87.6161 202.714 88.2836 200.673 88.9316 198.904C89.5796 197.135 90.3248 195.664 90.6423 194.335C90.9598 193.007 91.1089 192.009 91.2449 191.316C91.2968 190.998 91.3421 190.739 91.381 190.531C91.4143 190.435 91.436 190.335 91.4458 190.233Z" fill="#263238"/>
<path d="M65.7007 291.963C71.3383 288.613 72.9583 278.698 70.6061 272.575C68.2538 266.451 64.1261 260.859 63.4781 254.334C62.9856 249.318 64.6315 244.166 63.4781 239.261C61.9099 232.632 55.4493 227.519 55.5271 220.715C55.566 216.899 57.7368 213.309 57.5683 209.492C57.3545 204.82 53.7645 201.107 51.5419 196.986C48.1334 190.68 47.9131 183.222 46.7467 176.152C45.5803 169.083 42.8587 161.508 36.6249 158.008C35.6983 164.009 34.1172 168.124 34.6161 176.256C34.7911 179.178 38.1866 184.764 38.6467 191.16C38.9253 194.99 39.1133 198.819 39.3465 202.649C39.5733 206.375 39.8131 210.166 41.1545 213.665C42.1783 216.341 43.8177 218.765 44.5824 221.525C46.008 226.709 44.1288 232.334 45.2822 237.589C46.2607 242.041 49.3452 245.877 49.9737 250.394C50.8615 256.738 46.7337 263.354 48.8527 269.38C49.896 272.387 52.3713 274.797 53.0712 277.895C53.6155 280.305 53.0193 282.852 53.5118 285.269C54.3089 289.157 61.7349 292.19 65.7007 291.943" fill="#2F54EB"/>
<path d="M38.1737 163.989C38.1636 164.104 38.1636 164.219 38.1737 164.333C38.1737 164.586 38.2515 164.91 38.3033 165.318C38.4329 166.186 38.5755 167.456 38.8671 169.102C39.1587 170.748 40.04 172.621 40.7204 174.869C41.4008 177.118 42.1525 179.697 42.7875 182.587C43.4225 185.477 43.9669 188.685 44.5306 192.126C45.0944 195.566 45.7165 199.325 47.4207 202.915C48.2113 204.716 49.099 206.518 49.7665 208.442C50.417 210.414 50.8155 212.461 50.9523 214.533C51.2689 218.936 51.8227 223.319 52.6112 227.662C54.3349 236.559 55.9808 245.028 57.4777 252.746C58.9745 260.464 60.4779 267.345 61.6702 273.171C62.8625 278.996 63.8605 283.649 64.5473 286.934C64.8908 288.528 65.1629 289.779 65.3573 290.673C65.4481 291.075 65.5258 291.393 65.5841 291.639C65.6029 291.75 65.6333 291.858 65.6749 291.963C65.6791 291.849 65.666 291.736 65.636 291.626C65.5906 291.38 65.5388 291.056 65.4675 290.647C65.299 289.753 65.0593 288.496 64.7612 286.889C64.1132 283.597 63.193 278.893 62.059 273.093C60.925 267.294 59.5124 260.334 57.9766 252.642L53.1555 227.571C52.3784 223.242 51.8333 218.875 51.5225 214.488C51.3761 212.373 50.9624 210.285 50.2913 208.274C49.6045 206.33 48.7102 204.502 47.9132 202.714C46.2154 199.182 45.6193 195.489 45.0101 192.054C44.401 188.62 43.8632 185.406 43.1957 182.509C42.5283 179.613 41.7896 177.021 41.0379 174.779C40.2862 172.536 39.4438 170.677 39.0939 169.063C38.744 167.45 38.5885 166.16 38.4459 165.305C38.3681 164.903 38.3098 164.579 38.2645 164.326C38.2495 164.21 38.219 164.097 38.1737 163.989Z" fill="#263238"/>
<path d="M283.824 253.368C284.7 253.786 285.482 254.376 286.125 255.103C286.767 255.83 287.256 256.679 287.563 257.599C288.163 259.448 288.333 261.41 288.062 263.334C287.641 267.06 285.522 270.812 283.247 273.786C280.111 271.052 279.359 266.283 279.178 263.84C278.841 259.952 280.571 252.791 283.824 253.368Z" fill="#2F54EB"/>
<path d="M286.883 279.936C286.673 278.875 286.747 277.777 287.096 276.753C287.445 275.73 288.058 274.816 288.872 274.104C289.701 273.406 290.661 272.88 291.696 272.556C292.73 272.232 293.819 272.118 294.898 272.218C295.399 272.213 295.894 272.316 296.351 272.521C296.807 272.725 297.214 273.027 297.542 273.404C297.788 273.804 297.922 274.263 297.93 274.733C297.938 275.202 297.82 275.666 297.588 276.074C297.112 276.885 296.43 277.556 295.611 278.018C292.896 279.722 289.954 280.876 286.883 279.962" fill="#2F54EB"/>
<path d="M282.865 291.328C282.88 291.07 282.917 290.814 282.975 290.563C283.072 290.025 283.202 289.332 283.357 288.496C283.704 286.19 284.424 283.955 285.489 281.88C286.592 279.81 288.227 278.072 290.226 276.845C290.837 276.481 291.49 276.194 292.17 275.99C292.353 275.932 292.539 275.884 292.728 275.847C292.857 275.847 292.928 275.808 292.928 275.847C291.378 276.348 289.943 277.153 288.708 278.216C287.473 279.278 286.462 280.577 285.736 282.036C284.693 284.076 283.959 286.26 283.558 288.516C283.364 289.384 283.208 290.084 283.092 290.563C283.043 290.825 282.967 291.082 282.865 291.328Z" fill="#263238"/>
<path d="M282.982 258.934C283.003 259.046 283.016 259.158 283.021 259.271C283.021 259.518 283.053 259.835 283.079 260.23C283.124 261.06 283.17 262.265 283.221 263.762C283.312 266.743 283.39 270.89 283.37 275.426C283.351 279.962 283.241 284.103 283.118 287.09C283.059 288.58 282.995 289.786 282.943 290.622C282.943 291.01 282.897 291.328 282.878 291.581C282.877 291.692 282.864 291.803 282.839 291.911C282.829 291.799 282.829 291.686 282.839 291.574C282.839 291.328 282.839 291.01 282.839 290.615C282.839 289.747 282.891 288.548 282.923 287.083C283.001 284.103 283.079 279.955 283.098 275.419C283.118 270.883 283.098 266.749 283.027 263.755C283.027 262.291 282.988 261.092 282.969 260.224V259.265C282.964 259.154 282.968 259.044 282.982 258.934Z" fill="#263238"/>
<path d="M281.459 282.178C281.081 279.922 280.171 277.789 278.804 275.956C277.437 274.122 275.652 272.641 273.598 271.635C272.555 271.13 271.181 270.806 270.326 271.583C269.471 272.361 269.678 273.767 270.073 274.823C270.996 277.07 272.563 278.993 274.576 280.351C276.589 281.709 278.959 282.442 281.387 282.457" fill="#2F54EB"/>
<path d="M274.104 275.167C274.329 275.239 274.546 275.335 274.752 275.452C275.01 275.571 275.261 275.705 275.504 275.854C275.833 276.038 276.153 276.239 276.463 276.456C276.842 276.711 277.207 276.986 277.558 277.279C277.964 277.611 278.354 277.964 278.724 278.335C279.565 279.198 280.306 280.152 280.934 281.18C281.544 282.22 282.034 283.327 282.392 284.478C282.543 284.981 282.666 285.492 282.761 286.008C282.848 286.458 282.91 286.912 282.949 287.369C282.987 287.743 283.005 288.12 283.001 288.496C283.019 288.779 283.019 289.062 283.001 289.345C282.999 289.589 282.973 289.832 282.923 290.071C282.858 290.071 282.969 289.034 282.787 287.388C282.737 286.94 282.664 286.494 282.567 286.053C282.466 285.547 282.336 285.047 282.178 284.556C281.816 283.426 281.329 282.339 280.727 281.316C280.111 280.304 279.388 279.361 278.569 278.504C278.209 278.133 277.83 277.78 277.435 277.448C277.098 277.148 276.746 276.866 276.378 276.605C275.024 275.646 274.104 275.219 274.104 275.167Z" fill="#263238"/>
<path d="M237.92 149.824C237.92 149.824 207.665 128.382 203.835 126.276C200.187 124.267 188.607 122.809 187.57 122.556L166.834 118.02L135.16 118.966L126.088 124.429L103.097 135.043C96.8308 137.93 91.8917 143.084 89.2751 149.468L74.7599 184.92L110.808 195.573L111.929 232.969L103.434 291.885H208.851L203.543 178.971L214.521 181.388L237.92 149.824Z" fill="#263238"/>
<path d="M111.456 180.513C111.456 180.513 111.074 180.792 110.342 181.22C109.31 181.846 108.165 182.265 106.972 182.451C105.186 182.576 103.393 182.315 101.717 181.686C99.6492 180.998 97.6458 180.131 95.7291 179.094C93.6749 178.025 91.7504 176.943 89.9489 176.075C88.3602 175.281 86.7087 174.62 85.0112 174.098C83.8648 173.753 82.6891 173.515 81.499 173.385C81.0778 173.34 80.7538 173.321 80.527 173.314H80.1901C80.6226 173.298 81.0557 173.314 81.4861 173.359C82.682 173.457 83.8651 173.674 85.0177 174.007C86.7246 174.513 88.3852 175.163 89.9813 175.951C91.7957 176.82 93.7203 177.895 95.7745 178.971C97.6855 180.001 99.6797 180.868 101.736 181.563C103.389 182.187 105.156 182.454 106.92 182.347C108.102 182.174 109.24 181.773 110.27 181.168C110.64 180.96 110.918 180.792 111.113 180.675C111.307 180.559 111.456 180.513 111.456 180.513Z" fill="white"/>
<path d="M109.914 163.043H109.674L108.987 163.011C108.391 162.978 107.529 162.914 106.466 162.81C100.931 162.253 95.4879 160.999 90.2665 159.078C89.2621 158.708 88.4585 158.391 87.9077 158.157L87.2597 157.885L87.0394 157.782L87.2727 157.859L87.9207 158.106C88.478 158.326 89.288 158.63 90.2924 158.987C95.5276 160.86 100.965 162.11 106.492 162.713C107.549 162.829 108.436 162.914 109 162.959L109.687 163.017L109.914 163.043Z" fill="white"/>
<path d="M132.574 126.276C132.574 126.276 132.302 126.716 131.732 127.455C130.919 128.493 129.986 129.43 128.952 130.248C127.404 131.447 125.718 132.457 123.93 133.255C121.742 134.233 119.488 135.056 117.184 135.717C114.741 136.443 112.409 137.084 110.316 137.771C108.455 138.36 106.64 139.086 104.885 139.942C103.703 140.518 102.572 141.192 101.503 141.957C101.114 142.217 100.855 142.456 100.647 142.605C100.44 142.754 100.343 142.826 100.343 142.826C100.343 142.826 100.725 142.476 101.47 141.912C102.533 141.131 103.66 140.442 104.84 139.851C106.596 138.986 108.413 138.252 110.277 137.655C112.37 136.955 114.709 136.313 117.146 135.588C119.444 134.93 121.693 134.114 123.878 133.145C125.659 132.352 127.342 131.356 128.894 130.177C129.939 129.376 130.889 128.459 131.726 127.442C132.03 127.092 132.218 126.794 132.374 126.593C132.529 126.392 132.574 126.276 132.574 126.276Z" fill="white"/>
<path d="M197.407 131.103C197.407 131.103 197.31 131.058 197.128 130.954C196.947 130.851 196.701 130.695 196.351 130.52C195.386 130.005 194.38 129.572 193.344 129.224C191.803 128.707 190.226 128.302 188.626 128.012C186.825 127.669 184.823 127.403 182.723 127.105L171.979 125.582L168.739 125.103L167.852 124.967L167.547 124.908L167.858 124.941L168.746 125.051L171.986 125.485L182.736 126.969C184.836 127.261 186.838 127.533 188.646 127.883C190.248 128.177 191.825 128.593 193.363 129.127C194.404 129.486 195.41 129.937 196.37 130.475C197.057 130.857 197.407 131.103 197.407 131.103Z" fill="white"/>
<path d="M182.736 138.257C182.736 138.257 182.496 138.374 182.036 138.575C181.576 138.776 180.889 139.067 180.002 139.424C178.22 140.13 175.621 141.108 172.329 142.068C168.477 143.209 164.549 144.076 160.575 144.66C156.084 145.346 151.075 145.346 145.858 145.171C140.642 144.996 135.646 144.776 131.123 145.061C127.116 145.256 123.153 145.979 119.336 147.213C116.764 148.059 114.322 149.256 112.078 150.77C111.307 151.327 110.704 151.768 110.329 152.105C109.953 152.442 109.732 152.591 109.732 152.591C109.732 152.591 109.927 152.41 110.309 152.086C110.691 151.762 111.275 151.295 112.052 150.725C114.288 149.189 116.729 147.976 119.303 147.122C123.127 145.873 127.099 145.139 131.116 144.938C135.652 144.647 140.636 144.867 145.858 145.035C151.081 145.204 156.077 145.217 160.562 144.536C164.532 143.951 168.456 143.085 172.303 141.944C175.589 140.998 178.194 140.033 179.982 139.352C180.876 139.002 181.563 138.704 182.023 138.523L182.736 138.257Z" fill="white"/>
<path d="M192.663 144.595C192.628 144.621 192.589 144.64 192.547 144.653L192.203 144.776C191.905 144.886 191.471 145.029 190.907 145.184C189.488 145.59 188.022 145.807 186.546 145.832C185.069 145.834 183.599 145.615 182.185 145.184C181.641 145.022 181.207 144.873 180.889 144.757L180.552 144.621L180.436 144.562H180.565L180.909 144.672C181.207 144.776 181.641 144.912 182.205 145.061C183.616 145.455 185.075 145.651 186.54 145.644C188.008 145.602 189.465 145.385 190.881 144.996C191.419 144.847 191.86 144.724 192.177 144.627L192.521 144.53L192.663 144.595Z" fill="white"/>
<path d="M172.219 162.933C172.219 162.933 169.109 163.581 164.035 164.346C161.495 164.728 158.462 165.104 155.086 165.441C151.71 165.778 147.958 166.031 144.07 166.18C140.182 166.329 136.423 166.316 133.054 166.244C129.684 166.173 126.574 165.992 124.047 165.797C118.927 165.408 115.785 164.981 115.785 164.981L116.355 165.026L118.001 165.188C119.426 165.337 121.494 165.519 124.053 165.7C126.613 165.882 129.665 166.031 133.054 166.115C136.443 166.199 140.182 166.18 144.07 166.044C147.958 165.907 151.697 165.629 155.086 165.318C158.475 165.007 161.495 164.618 164.035 164.249C166.575 163.879 168.623 163.555 170.035 163.302L171.662 163.017L172.219 162.933Z" fill="white"/>
<path d="M197.595 161.093H197.361H196.713C196.124 161.093 195.275 161.093 194.225 161.093C192.126 161.093 189.223 161.009 186.034 160.736C182.846 160.464 179.963 160.03 177.902 159.654C176.865 159.473 176.036 159.304 175.459 159.181L174.811 159.039L174.584 158.98H174.817L175.465 159.097L177.908 159.531C179.976 159.881 182.846 160.296 186.034 160.568C189.223 160.84 192.126 160.931 194.219 160.963H196.707H197.355L197.595 161.093Z" fill="white"/>
<path d="M165.24 187.803C165.24 187.803 165.052 187.842 164.709 187.888L163.179 188.101C162.531 188.199 161.702 188.309 160.749 188.374C159.797 188.438 158.721 188.568 157.509 188.587C156.298 188.607 155.002 188.698 153.621 188.672C152.915 188.672 152.189 188.672 151.438 188.672L149.124 188.594C145.956 188.471 142.482 188.231 138.841 187.946C135.199 187.661 131.713 187.298 128.57 187.11C125.427 186.922 122.563 186.78 120.146 186.818H118.442L116.919 186.896C115.973 186.935 115.15 186.98 114.489 187.065L112.953 187.214L112.415 187.259C112.415 187.259 112.603 187.227 112.953 187.188L114.482 187.006C115.13 186.916 115.966 186.87 116.919 186.818L118.442 186.734H120.146C122.543 186.689 125.401 186.805 128.57 187C131.739 187.194 135.199 187.518 138.841 187.823C142.482 188.127 145.969 188.38 149.118 188.516L151.425 188.6C152.176 188.6 152.902 188.6 153.609 188.6C155.015 188.6 156.324 188.568 157.497 188.536C158.669 188.503 159.771 188.393 160.737 188.335C161.702 188.276 162.499 188.179 163.167 188.089L164.696 187.901L165.24 187.803Z" fill="white"/>
<path d="M203.375 180.196L203.09 180.241L202.26 180.325C201.548 180.403 200.504 180.487 199.221 180.578C196.629 180.753 193.085 180.876 189.151 180.779C185.218 180.682 181.66 180.358 179.101 180.047C177.805 179.891 176.787 179.749 176.075 179.639L175.258 179.509L174.973 179.451L175.258 179.483L176.081 179.587C176.794 179.684 177.831 179.814 179.114 179.956C181.673 180.241 185.218 180.539 189.151 180.643C193.085 180.747 196.642 180.643 199.215 180.481C200.511 180.41 201.541 180.332 202.26 180.274L203.083 180.209L203.375 180.196Z" fill="white"/>
<path d="M203.835 203.744L202.889 203.692C202.241 203.692 201.353 203.563 200.174 203.53C197.815 203.407 194.4 203.381 190.182 203.589C185.963 203.796 180.967 204.295 175.433 205.027C169.899 205.759 163.834 206.712 157.464 207.516C151.448 208.327 145.39 208.788 139.32 208.896C134.371 208.98 129.425 208.622 124.539 207.827C121.247 207.284 118.006 206.464 114.852 205.377C114.288 205.202 113.802 205.014 113.381 204.846L112.305 204.418C111.728 204.191 111.43 204.062 111.43 204.062L112.318 204.392L113.394 204.807C113.815 204.975 114.307 205.157 114.871 205.332C118.028 206.397 121.269 207.199 124.559 207.729C129.439 208.509 134.379 208.858 139.32 208.773C145.39 208.651 151.448 208.179 157.464 207.36C163.847 206.537 169.912 205.591 175.453 204.878C180.993 204.165 185.976 203.686 190.182 203.472C193.51 203.302 196.845 203.302 200.174 203.472C202.532 203.608 203.835 203.744 203.835 203.744Z" fill="white"/>
<path d="M168.201 227.94C168.201 227.94 165.085 228.472 160.004 229.016C157.471 229.288 154.438 229.535 151.068 229.729C147.699 229.923 143.979 230.014 140.085 229.995C136.19 229.975 132.477 229.794 129.108 229.573C125.738 229.353 122.712 229.042 120.178 228.731C115.104 228.083 112 227.539 112 227.539L112.571 227.61L114.197 227.85C114.897 227.96 115.765 228.083 116.789 228.206C117.813 228.329 118.94 228.504 120.204 228.634C122.744 228.932 125.77 229.217 129.133 229.45C132.497 229.684 136.21 229.82 140.104 229.859C143.999 229.897 147.712 229.774 151.081 229.606C154.451 229.437 157.477 229.185 160.017 228.919C161.313 228.802 162.434 228.653 163.439 228.543C164.443 228.433 165.311 228.316 166.031 228.219L167.657 228.005L168.201 227.94Z" fill="white"/>
<path d="M203.472 223.301C203.472 223.301 203.349 223.346 203.122 223.411L202.131 223.716C201.262 223.975 200.005 224.331 198.444 224.752C195.327 225.588 190.979 226.625 186.132 227.513C181.285 228.401 176.846 228.977 173.632 229.301C172.025 229.463 170.722 229.573 169.821 229.638L168.785 229.71H168.422L168.778 229.664L169.815 229.567C170.716 229.489 172.018 229.36 173.619 229.185C176.859 228.835 181.259 228.252 186.106 227.364C190.953 226.476 195.294 225.452 198.418 224.636C199.979 224.234 201.236 223.89 202.105 223.644L203.109 223.366L203.472 223.301Z" fill="white"/>
<path d="M143.48 254.956C141.81 255.215 140.127 255.382 138.439 255.455C136.877 255.539 135.011 255.545 132.937 255.455C128.444 255.24 123.991 254.493 119.673 253.232C117.683 252.642 115.921 252.027 114.489 251.437C112.917 250.813 111.38 250.108 109.881 249.324L110.205 249.467L111.119 249.888C111.514 250.076 112 250.303 112.577 250.536C113.154 250.77 113.789 251.068 114.521 251.34C115.973 251.923 117.761 252.526 119.705 253.109C121.864 253.719 124.053 254.216 126.263 254.599C128.476 254.949 130.706 255.187 132.944 255.312C135.011 255.403 136.871 255.409 138.432 255.312C139.216 255.312 139.923 255.228 140.545 255.189C141.167 255.15 141.692 255.092 142.132 255.046L143.13 254.943L143.48 254.956Z" fill="white"/>
<path d="M205.818 253.303L205.17 253.42L203.317 253.718C201.709 253.971 199.377 254.327 196.493 254.735C190.726 255.558 182.736 256.582 173.891 257.463C165.046 258.345 157.004 258.902 151.211 259.226C148.301 259.388 145.943 259.505 144.316 259.569L142.443 259.641H141.795L142.443 259.602L144.316 259.505L151.204 259.122C157.036 258.772 165.046 258.189 173.884 257.314C182.723 256.44 190.732 255.429 196.487 254.632L203.317 253.653L205.17 253.381L205.818 253.303Z" fill="white"/>
<path d="M209.213 277.169C209.213 277.169 207.801 277.467 205.215 277.888C202.63 278.31 198.884 278.834 194.199 279.223C188.736 279.669 183.251 279.803 177.772 279.625C171.584 279.424 164.812 278.731 157.73 277.862C150.647 276.994 143.895 276.119 137.733 275.64C132.275 275.169 126.792 275.046 121.319 275.27C117.623 275.443 113.942 275.863 110.303 276.528C109.007 276.774 108.022 276.981 107.354 277.143L106.33 277.376C106.33 277.376 106.68 277.279 107.348 277.117C108.015 276.955 109.007 276.735 110.29 276.469C113.927 275.782 117.608 275.349 121.306 275.173C126.781 274.927 132.266 275.038 137.726 275.504C143.901 275.983 150.647 276.858 157.73 277.726C164.812 278.595 171.584 279.288 177.766 279.489C183.24 279.676 188.72 279.552 194.18 279.12C198.839 278.744 202.604 278.232 205.196 277.824C206.492 277.616 207.49 277.454 208.17 277.331L209.213 277.169Z" fill="white"/>
<path d="M228.226 144.024C228.226 144.024 228.038 144.536 227.617 145.431C227.009 146.688 226.303 147.895 225.504 149.04C224.316 150.733 223.017 152.346 221.616 153.868C220.048 155.604 218.246 157.432 216.432 159.414C214.699 161.259 213.117 163.24 211.702 165.337C210.548 167.052 209.614 168.905 208.922 170.852C208.45 172.178 208.143 173.558 208.008 174.96C207.943 175.446 207.963 175.835 207.943 176.094C207.924 176.353 207.943 176.489 207.943 176.489C207.926 175.977 207.939 175.464 207.982 174.954C208.093 173.557 208.383 172.181 208.844 170.858C209.528 168.9 210.458 167.036 211.611 165.311C213.027 163.202 214.611 161.21 216.348 159.356C218.175 157.38 219.983 155.552 221.532 153.822C222.929 152.307 224.228 150.703 225.42 149.021C226.227 147.886 226.944 146.69 227.565 145.444C227.798 145.003 227.934 144.647 228.051 144.413C228.167 144.18 228.226 144.024 228.226 144.024Z" fill="white"/>
<path d="M198.379 155.19L198.599 155.028L199.247 154.587C199.817 154.218 200.615 153.647 201.574 152.909C202.533 152.17 203.641 151.25 204.814 150.161C206.078 148.975 207.278 147.722 208.41 146.409C209.528 145.081 210.577 143.697 211.553 142.262C212.434 140.927 213.179 139.67 213.749 138.627C214.32 137.583 214.76 136.683 215.045 136.035L215.376 135.328L215.499 135.082C215.013 136.308 214.459 137.507 213.84 138.672C213.276 139.748 212.544 140.992 211.656 142.327C210.69 143.774 209.643 145.165 208.52 146.493C207.385 147.812 206.178 149.067 204.904 150.252C203.718 151.334 202.61 152.261 201.664 152.986C200.611 153.782 199.515 154.517 198.379 155.19Z" fill="white"/>
<path d="M152.066 185.49C152.114 185.458 152.167 185.434 152.222 185.419L152.688 185.237C153.11 185.095 153.699 184.836 154.457 184.486C156.565 183.424 158.499 182.047 160.192 180.403C162.689 177.952 164.892 175.218 166.756 172.258C169.097 168.665 171.234 164.944 173.159 161.112C176.61 154.125 179.64 146.936 182.231 139.586C183.248 136.773 184.039 134.479 184.596 132.905L185.244 131.084C185.315 130.89 185.373 130.74 185.419 130.611C185.464 130.481 185.484 130.455 185.484 130.455C185.48 130.513 185.469 130.569 185.451 130.624C185.412 130.753 185.361 130.909 185.302 131.103C185.166 131.551 184.972 132.166 184.719 132.944C184.207 134.538 183.423 136.832 182.451 139.663C179.919 147.051 176.908 154.265 173.437 161.261C171.51 165.104 169.361 168.832 167.003 172.426C165.111 175.394 162.875 178.128 160.341 180.572C158.624 182.215 156.655 183.574 154.509 184.596C153.925 184.866 153.326 185.102 152.714 185.302L152.235 185.451C152.181 185.473 152.124 185.486 152.066 185.49Z" fill="#455A64"/>
<path d="M150.984 199.202C151.091 199.099 151.208 199.008 151.334 198.93L152.384 198.21C153.284 197.562 154.587 196.649 156.155 195.45C159.298 193.059 163.426 189.488 167.858 185.412C170.087 183.378 172.219 181.453 174.059 179.613C175.705 177.995 177.233 176.262 178.634 174.429C179.574 173.188 180.41 171.872 181.135 170.495C181.408 170.016 181.576 169.62 181.706 169.361C181.767 169.227 181.839 169.097 181.92 168.973C181.887 169.118 181.837 169.26 181.77 169.394C181.654 169.659 181.505 170.042 181.246 170.554C180.562 171.963 179.749 173.306 178.816 174.565C177.441 176.432 175.924 178.191 174.28 179.827C172.439 181.693 170.314 183.624 168.085 185.659C164.327 189.182 160.393 192.513 156.298 195.638C154.71 196.824 153.388 197.718 152.455 198.32C151.995 198.625 151.626 198.839 151.379 198.968C151.253 199.055 151.121 199.133 150.984 199.202Z" fill="#455A64"/>
<path d="M133.488 268.479L133.566 268.33C133.637 268.227 133.721 268.091 133.825 267.922C134.052 267.559 134.402 267.041 134.868 266.38C135.808 265.084 137.253 263.224 139.158 261.06C143.001 256.744 148.379 250.867 154.308 244.354L169.543 227.733L174.189 222.718L175.485 221.363L175.822 221.02C175.9 220.942 175.939 220.903 175.945 220.91C175.951 220.916 175.913 220.955 175.848 221.039L175.53 221.409L174.312 222.802C173.21 224.02 171.655 225.757 169.744 227.882L154.574 244.575L139.32 261.209C137.376 263.354 135.925 265.168 134.959 266.458C134.473 267.106 134.11 267.611 133.864 267.954L133.585 268.35C133.56 268.398 133.527 268.441 133.488 268.479Z" fill="#455A64"/>
<path d="M193.985 152.014C193.88 151.693 193.8 151.363 193.746 151.029C193.674 150.712 193.597 150.317 193.538 149.856C193.48 149.396 193.383 148.872 193.357 148.288C193.331 147.705 193.26 147.064 193.266 146.344C193.273 145.625 193.266 144.919 193.318 144.141C193.543 140.783 194.364 137.492 195.741 134.421C196.072 133.721 196.389 133.054 196.726 132.477C197.063 131.9 197.374 131.324 197.705 130.831C198.035 130.339 198.353 129.905 198.599 129.535C198.826 129.209 199.07 128.895 199.331 128.596C199.528 128.327 199.745 128.074 199.979 127.837C199.812 128.132 199.619 128.412 199.403 128.673C199.208 128.933 198.968 129.25 198.722 129.639C198.476 130.028 198.158 130.449 197.873 130.935C197.588 131.421 197.225 131.978 196.934 132.587C196.642 133.196 196.286 133.883 195.988 134.531C194.649 137.587 193.839 140.847 193.59 144.174C193.551 144.938 193.493 145.664 193.506 146.344C193.519 147.025 193.506 147.64 193.558 148.243C193.609 148.846 193.648 149.345 193.694 149.805C193.739 150.265 193.791 150.66 193.843 150.984C193.924 151.322 193.971 151.667 193.985 152.014Z" fill="#455A64"/>
<path d="M203.414 175.265C203.336 175.265 202.17 172.724 200.822 169.51C199.474 166.296 198.437 163.678 198.515 163.626C199.475 165.5 200.34 167.42 201.107 169.381C201.978 171.3 202.748 173.264 203.414 175.265Z" fill="#455A64"/>
<path d="M110.808 154.716C110.756 154.749 110.251 153.822 109.298 152.416C106.81 148.745 103.594 145.624 99.8504 143.247C98.4184 142.34 97.4788 141.86 97.5047 141.808C97.7434 141.878 97.9737 141.974 98.1916 142.093C98.6257 142.294 99.2348 142.618 99.9736 143.052C101.892 144.197 103.67 145.561 105.274 147.115C106.874 148.676 108.29 150.415 109.493 152.299C109.946 153.025 110.29 153.628 110.504 154.056C110.627 154.265 110.729 154.486 110.808 154.716Z" fill="#455A64"/>
<path d="M136.242 139.398C136.205 139.183 136.205 138.964 136.242 138.75C136.352 137.532 136.876 136.389 137.726 135.51L137.765 135.471V135.516C137.811 135.607 137.846 135.702 137.869 135.801C137.869 135.801 137.797 135.717 137.707 135.549H137.765C137.345 136.045 137.002 136.602 136.747 137.201C136.478 137.906 136.308 138.646 136.242 139.398Z" fill="#455A64"/>
<path d="M144.822 143.856C144.74 143.649 144.693 143.43 144.686 143.208C144.629 142.677 144.642 142.141 144.724 141.614C144.807 141.087 144.957 140.573 145.172 140.085C145.249 139.879 145.358 139.686 145.496 139.514C145.203 140.197 144.986 140.91 144.848 141.64C144.76 142.376 144.751 143.118 144.822 143.856Z" fill="#455A64"/>
<path d="M154.172 143.104C154.142 142.5 154.06 141.899 153.926 141.309C153.745 140.729 153.509 140.166 153.22 139.631C153.35 139.758 153.459 139.905 153.544 140.065C153.768 140.442 153.94 140.847 154.056 141.27C154.168 141.694 154.226 142.129 154.231 142.566C154.242 142.748 154.223 142.93 154.172 143.104Z" fill="#455A64"/>
<path d="M162.35 139.521C162.075 138.945 161.749 138.394 161.378 137.875C160.963 137.39 160.508 136.941 160.017 136.534C160.193 136.605 160.357 136.704 160.503 136.825C160.869 137.104 161.198 137.429 161.482 137.791C161.764 138.155 161.999 138.553 162.182 138.977C162.267 139.148 162.323 139.332 162.35 139.521Z" fill="#455A64"/>
<path d="M167.981 133.968C167.773 133.286 167.386 132.673 166.86 132.192C166.314 131.737 165.652 131.443 164.948 131.343C164.948 131.343 165.013 131.343 165.123 131.343C165.278 131.348 165.432 131.368 165.584 131.401C166.089 131.522 166.558 131.762 166.951 132.101C167.345 132.439 167.65 132.869 167.839 133.352C167.9 133.495 167.943 133.645 167.968 133.799C167.98 133.854 167.984 133.911 167.981 133.968Z" fill="#455A64"/>
<path d="M170.994 123.71C170.496 123.311 169.913 123.032 169.29 122.893C168.658 122.796 168.012 122.85 167.404 123.049C167.99 122.743 168.66 122.64 169.31 122.758C169.96 122.875 170.553 123.205 170.994 123.697V123.71Z" fill="#455A64"/>
<path d="M130.617 132.484C130.63 132.291 130.676 132.103 130.754 131.926C131.098 131.058 131.751 130.348 132.587 129.93C132.757 129.838 132.941 129.777 133.132 129.749C132.544 130.003 132.017 130.378 131.584 130.849C131.151 131.32 130.822 131.877 130.617 132.484Z" fill="#455A64"/>
<path d="M128.57 125.654C128.648 125.464 128.757 125.289 128.894 125.135C129.197 124.74 129.563 124.396 129.976 124.118C130.389 123.834 130.844 123.615 131.324 123.47C131.517 123.402 131.721 123.367 131.926 123.366C130.579 123.712 129.393 124.514 128.57 125.634V125.654Z" fill="#455A64"/>
<path d="M112.46 165.48C112.46 165.48 112.46 165.441 112.422 165.48C112.394 165.546 112.375 165.616 112.363 165.687C112.331 165.888 112.298 166.18 112.26 166.562C112.182 167.32 112.098 168.422 112.007 169.802C111.819 172.53 111.605 176.282 111.404 180.474C111.203 184.667 111.048 188.419 110.957 191.154C110.912 192.45 110.879 193.577 110.853 194.394C110.853 194.743 110.853 195.042 110.815 195.275C110.824 195.376 110.824 195.478 110.815 195.579C110.786 195.481 110.775 195.377 110.782 195.275C110.782 195.035 110.782 194.743 110.782 194.394C110.782 193.629 110.782 192.521 110.782 191.154C110.782 188.419 110.925 184.635 111.132 180.462C111.339 176.288 111.586 172.517 111.832 169.789C111.955 168.422 112.078 167.32 112.195 166.549C112.253 166.173 112.311 165.901 112.363 165.681C112.381 165.603 112.412 165.528 112.454 165.46C112.454 165.402 112.473 165.493 112.46 165.48Z" fill="#263238"/>
<path d="M183.857 34.5902C178.453 32.9378 172.841 37.7784 167.268 36.6898C163.899 36.0418 161.359 33.3396 158.358 31.6678C153.881 29.1665 147.543 28.7582 142.968 31.0846C138.393 33.4109 135.432 35.8862 134.817 40.986C130.65 38.5949 123.703 43.8372 121.338 48.8981C118.973 53.959 119.563 59.1818 120.904 64.6056C123.234 73.9601 127.378 82.7665 133.099 90.5256C133.605 91.2125 134.395 91.9706 135.179 91.6078C135.421 91.4385 135.62 91.2149 135.759 90.9549C135.899 90.695 135.975 90.4059 135.983 90.1109C136.78 85.1537 136.151 80.0928 135.717 75.0902C135.283 70.0877 135.069 64.9296 136.657 60.1862C138.244 55.4429 141.97 51.0754 146.895 50.1034C150.537 49.3841 154.315 50.5634 157.548 52.3843C160.782 54.2052 163.627 56.6287 166.705 58.6958C169.783 60.763 173.243 62.5061 176.949 62.6616C180.656 62.8171 184.635 61.0805 186.209 57.7238C187.784 54.3672 186.021 49.5979 182.393 48.8268C184.083 48.6788 185.668 47.9465 186.876 46.7561C188.085 45.5656 188.841 43.9913 189.014 42.3038C189.188 40.6163 188.767 38.9212 187.826 37.5099C186.885 36.0986 185.482 35.0593 183.857 34.5708V34.5902Z" fill="#263238"/>
<path d="M167.184 121.519L166.659 110.808C166.659 110.808 180.798 108.099 180.481 93.8758C180.325 87.0134 178.848 72.8935 177.371 60.1344C176.609 53.5128 173.38 47.4214 168.328 43.074C163.275 38.7266 156.77 36.4425 150.109 36.6768L148.735 36.7222C133.98 38.1089 126.904 51.4188 128.699 66.1349L132.101 123.418C132.376 128.051 134.472 132.386 137.932 135.479C141.392 138.571 145.935 140.169 150.569 139.923C155.209 139.675 159.562 137.599 162.675 134.15C165.789 130.702 167.41 126.16 167.184 121.519Z" fill="#FFBE9D"/>
<path d="M166.679 110.808C166.679 110.808 157.717 111.851 147.958 106.188C147.958 106.188 152.701 116.271 166.841 114.489L166.679 110.808Z" fill="#EB996E"/>
<path d="M172.582 69.7572C172.604 70.2853 172.419 70.801 172.067 71.1953C171.715 71.5896 171.223 71.8314 170.696 71.8697C170.439 71.8993 170.178 71.877 169.929 71.8043C169.68 71.7316 169.448 71.6098 169.247 71.4462C169.046 71.2825 168.88 71.0804 168.758 70.8515C168.637 70.6227 168.562 70.3718 168.538 70.1136C168.513 69.5851 168.696 69.0677 169.047 68.6718C169.398 68.2759 169.89 68.0329 170.418 67.9946C170.676 67.9642 170.938 67.9859 171.188 68.0586C171.438 68.1313 171.671 68.2535 171.873 68.4179C172.075 68.5823 172.241 68.7855 172.363 69.0156C172.485 69.2457 172.559 69.4979 172.582 69.7572Z" fill="#263238"/>
<path d="M174.558 67.1717C174.312 67.4438 172.737 66.3617 170.554 66.4459C168.37 66.5302 166.808 67.6771 166.562 67.4179C166.439 67.3013 166.679 66.8153 167.359 66.2839C168.28 65.5951 169.391 65.2081 170.541 65.1758C171.678 65.131 172.8 65.4512 173.742 66.0895C174.435 66.5755 174.675 67.0486 174.558 67.1717Z" fill="#263238"/>
<path d="M151.12 71.28C151.144 71.8092 150.96 72.3266 150.607 72.7222C150.255 73.1179 149.763 73.3607 149.235 73.399C148.977 73.4285 148.716 73.4063 148.467 73.3336C148.219 73.2608 147.987 73.1391 147.786 72.9755C147.585 72.8118 147.418 72.6096 147.297 72.3808C147.175 72.152 147.1 71.9011 147.077 71.6429C147.053 71.1137 147.237 70.5964 147.589 70.2007C147.942 69.805 148.434 69.5622 148.962 69.5239C149.22 69.4944 149.481 69.5166 149.73 69.5893C149.978 69.6621 150.21 69.7838 150.411 69.9474C150.612 70.1111 150.779 70.3133 150.9 70.5421C151.022 70.771 151.097 71.0218 151.12 71.28Z" fill="#263238"/>
<path d="M153.097 68.3316C152.857 68.6038 151.276 67.5216 149.092 67.6058C146.908 67.6901 145.347 68.837 145.1 68.5778C144.977 68.4612 145.217 67.9752 145.897 67.4438C146.821 66.7549 147.934 66.3679 149.086 66.3358C150.221 66.2914 151.34 66.6116 152.28 67.2494C152.973 67.7419 153.22 68.2085 153.097 68.3316Z" fill="#263238"/>
<path d="M161.592 84.24C161.592 84.1104 162.927 83.8318 165.117 83.4754C165.674 83.3976 166.199 83.268 166.283 82.8792C166.307 82.3015 166.155 81.7302 165.849 81.2398C165.279 79.9114 164.683 78.5117 164.054 77.0537C161.547 71.0856 159.713 66.1673 159.959 66.0377C160.205 65.9081 162.421 70.6968 164.923 76.6649C165.532 78.1337 166.108 79.5399 166.653 80.8834C167.027 81.5435 167.158 82.314 167.022 83.0606C166.948 83.2601 166.83 83.4401 166.676 83.5871C166.522 83.7342 166.337 83.8444 166.134 83.9095C165.827 84.0042 165.509 84.0587 165.188 84.0715C162.979 84.3243 161.605 84.3826 161.592 84.24Z" fill="#263238"/>
<path d="M155.215 85.9961C155.572 85.9572 155.663 88.3289 157.749 89.9424C159.836 91.5559 162.35 91.206 162.382 91.5365C162.421 91.6855 161.838 92.016 160.769 92.0808C159.372 92.1587 157.994 91.7359 156.881 90.8885C155.828 90.0754 155.132 88.8863 154.937 87.5707C154.814 86.5793 155.053 85.9831 155.215 85.9961Z" fill="#263238"/>
<path d="M152.928 57.1342C152.734 57.7303 150.544 57.5295 147.99 57.9247C145.437 58.32 143.39 59.0976 143.033 58.5727C142.871 58.32 143.208 57.7498 144.025 57.1471C145.115 56.4006 146.361 55.9132 147.668 55.7222C148.976 55.5313 150.309 55.6419 151.567 56.0455C152.513 56.376 153.006 56.8491 152.928 57.1342Z" fill="#263238"/>
<path d="M173.534 60.912C173.165 61.4174 171.642 60.9574 169.834 60.9962C168.026 61.0351 166.504 61.4498 166.128 60.9379C165.966 60.6917 166.193 60.1862 166.847 59.6938C167.718 59.084 168.759 58.7643 169.821 58.7801C170.88 58.7426 171.924 59.0347 172.809 59.616C173.463 60.1279 173.696 60.6269 173.534 60.912Z" fill="#263238"/>
<path d="M130.248 76.6195C130.002 76.5223 120.379 74.0729 121.027 83.7475C121.675 93.4222 131.291 90.7978 131.291 90.5191C131.291 90.2405 130.248 76.6195 130.248 76.6195Z" fill="#FFBE9D"/>
<path d="M128.058 87.0718C128.012 87.0718 127.896 87.2014 127.617 87.3504C127.232 87.5578 126.78 87.6044 126.36 87.48C125.304 87.169 124.332 85.6008 124.17 83.8512C124.089 83.0218 124.196 82.1848 124.481 81.4018C124.55 81.0913 124.694 80.8024 124.901 80.5606C125.108 80.3189 125.371 80.1315 125.667 80.0151C125.858 79.95 126.065 79.9539 126.253 80.0262C126.442 80.0984 126.599 80.2343 126.697 80.4103C126.846 80.676 126.794 80.8704 126.846 80.8834C126.898 80.8963 127.047 80.7084 126.937 80.3131C126.866 80.0769 126.718 79.8714 126.516 79.7299C126.233 79.5485 125.892 79.4834 125.563 79.5485C125.17 79.653 124.81 79.8569 124.518 80.1406C124.227 80.4243 124.013 80.7783 123.898 81.1685C123.542 82.038 123.404 82.9811 123.496 83.916C123.69 85.86 124.792 87.6291 126.243 87.9401C126.509 87.999 126.784 87.9976 127.049 87.9359C127.313 87.8742 127.561 87.7539 127.773 87.5837C128.058 87.3115 128.09 87.0912 128.058 87.0718Z" fill="#EB996E"/>
<path d="M180.274 57.024C177.154 57.9422 173.86 58.1068 170.664 57.5041C167.468 56.9014 164.461 55.5487 161.89 53.5572C158.326 50.7449 155.514 46.6236 151.133 45.4378C149.641 45.0968 148.095 45.0558 146.587 45.3172C145.078 45.5787 143.637 46.1373 142.346 46.9606C139.77 48.6199 137.564 50.7928 135.866 53.3434C138.867 60.4714 137.305 68.6038 135.698 76.1659C135.609 77.0245 135.238 77.8293 134.642 78.4534C133.527 79.3735 131.777 78.745 130.754 77.7341C129.088 76.1076 128.382 73.7554 127.896 71.4874C126.692 66.3179 126.531 60.9603 127.423 55.728C128.335 50.4779 130.769 45.6111 134.421 41.7312C139.177 37.0139 145.582 34.3321 152.28 34.2533C158.944 34.2252 165.446 36.2976 170.865 40.176C173.379 41.9386 175.712 44.064 177.073 46.8439" fill="#263238"/>
<path d="M188.056 37.8756C188.097 38.1595 188.077 38.4488 187.998 38.7245C187.792 39.5266 187.339 40.2433 186.702 40.7722C185.68 41.5893 184.425 42.0613 183.118 42.12C182.315 42.1911 181.506 42.1694 180.708 42.0552C179.791 41.9317 178.924 41.5623 178.2 40.986C177.793 40.6638 177.464 40.2529 177.24 39.7847C177.015 39.3165 176.9 38.8032 176.904 38.2839C176.955 37.7186 177.165 37.1793 177.509 36.7277C177.853 36.2761 178.317 35.9306 178.848 35.7307C179.399 35.5019 179.996 35.4043 180.591 35.4456C181.21 35.5071 181.798 35.7481 182.282 36.139C182.769 36.5505 183.161 37.0623 183.432 37.6394C183.703 38.2165 183.845 38.8453 183.851 39.4827C183.874 40.8276 183.369 42.1281 182.444 43.105C181.501 44.1041 180.309 44.8353 178.991 45.2239C176.321 46.0599 173.34 45.6581 170.657 44.6148C168.055 43.5447 165.584 42.177 163.296 40.5389C161.187 39.0435 158.957 37.7278 156.628 36.6055C154.529 35.6038 152.219 35.1257 149.895 35.2123C147.88 35.359 145.923 35.9475 144.161 36.936C141.592 38.3987 139.441 40.496 137.914 43.0272C137.481 43.6987 137.086 44.3931 136.728 45.1073C136.618 45.3664 136.49 45.6175 136.346 45.859C136.357 45.7872 136.379 45.7174 136.41 45.6516C136.456 45.522 136.527 45.3211 136.637 45.0684C136.951 44.3223 137.317 43.5991 137.732 42.9041C139.218 40.2931 141.369 38.1221 143.966 36.612C145.776 35.5824 147.793 34.9692 149.869 34.8171C152.263 34.7053 154.647 35.1791 156.816 36.1973C159.18 37.3298 161.443 38.6608 163.581 40.176C165.838 41.7869 168.271 43.1368 170.832 44.2001C173.457 45.211 176.321 45.5998 178.861 44.8092C180.097 44.4228 181.209 43.719 182.088 42.768C182.925 41.8974 183.389 40.7354 183.384 39.528C183.384 38.9535 183.26 38.3858 183.021 37.8635C182.782 37.3412 182.433 36.8768 181.997 36.5019C181.576 36.169 181.072 35.9584 180.539 35.8933C180.007 35.8281 179.466 35.9109 178.978 36.1325C178.507 36.2975 178.093 36.5917 177.783 36.9814C177.472 37.3711 177.278 37.8405 177.222 38.3357C177.221 38.8007 177.326 39.2598 177.526 39.6792C177.727 40.0986 178.019 40.4676 178.381 40.7592C179.059 41.3003 179.869 41.6514 180.727 41.7766C181.503 41.8977 182.29 41.9303 183.073 41.8738C184.359 41.8455 185.602 41.4099 186.624 40.6296C187.239 40.1243 187.69 39.4477 187.92 38.6856C187.982 38.4188 188.028 38.1482 188.056 37.8756Z" fill="#455A64"/>
<path d="M119.88 57.3286C120.856 57.6365 121.858 57.8535 122.874 57.9766C123.973 58.0357 125.073 57.8817 126.114 57.523C127.392 57.0691 128.599 56.4341 129.697 55.6373C131.681 54.1567 133.13 52.0712 133.825 49.6951C134.068 48.6966 134.248 47.6837 134.363 46.6625C134.433 46.9374 134.46 47.2217 134.441 47.5049C134.438 48.2744 134.34 49.0405 134.149 49.7859C133.528 52.2907 132.052 54.5002 129.976 56.0326C128.841 56.8676 127.584 57.5232 126.25 57.9766C125.15 58.3385 123.987 58.4644 122.835 58.3459C122.067 58.2579 121.315 58.057 120.606 57.7498C120.341 57.6534 120.095 57.5108 119.88 57.3286Z" fill="#455A64"/>
<path d="M120.567 64.3464C120.567 64.2557 121.72 64.4695 123.554 64.3011C125.938 64.0979 128.223 63.2582 130.171 61.8698C132.119 60.4814 133.659 58.5952 134.629 56.4084C135.387 54.7301 135.555 53.5831 135.646 53.6026C135.664 53.875 135.637 54.1485 135.568 54.4126C135.426 55.1414 135.209 55.8537 134.92 56.538C134.007 58.8361 132.452 60.8227 130.439 62.2603C128.427 63.6978 126.044 64.5255 123.574 64.6445C122.833 64.6827 122.091 64.648 121.358 64.5408C121.085 64.5181 120.819 64.4524 120.567 64.3464Z" fill="#455A64"/>
<path d="M146.163 77.8766C146.131 77.8832 146.097 77.8831 146.065 77.8765C146.032 77.8699 146.002 77.8568 145.975 77.8381C145.947 77.8193 145.924 77.7953 145.906 77.7674C145.889 77.7395 145.877 77.7084 145.871 77.6758C145.86 77.6443 145.856 77.611 145.859 77.5778C145.862 77.5446 145.871 77.5124 145.887 77.4831C145.903 77.4539 145.925 77.4283 145.951 77.4079C145.977 77.3875 146.008 77.3728 146.04 77.3647C146.104 77.3583 146.168 77.3752 146.22 77.4123C146.273 77.4495 146.31 77.5044 146.325 77.5669C146.34 77.6294 146.332 77.6952 146.302 77.7522C146.272 77.8091 146.223 77.8533 146.163 77.8766Z" fill="#EB996E"/>
<path d="M150.336 76.7815C150.266 76.7811 150.198 76.757 150.144 76.7133C150.089 76.6695 150.051 76.6086 150.035 76.5404C150.019 76.4723 150.027 76.4008 150.057 76.3375C150.087 76.2743 150.137 76.2229 150.2 76.1919C150.272 76.1861 150.343 76.2076 150.399 76.252C150.456 76.2965 150.493 76.3606 150.504 76.4316C150.527 76.5004 150.523 76.5754 150.491 76.6408C150.46 76.7061 150.404 76.7566 150.336 76.7815Z" fill="#EB996E"/>
<path d="M153.116 76.613C152.98 76.613 152.85 76.477 152.811 76.2631C152.773 76.0493 152.857 75.8549 152.986 75.8354C153.116 75.816 153.252 75.9715 153.291 76.1854C153.33 76.3992 153.246 76.5936 153.116 76.613Z" fill="#EB996E"/>
<path d="M148.308 80.4233C148.178 80.4233 148.062 80.365 148.062 80.2807C148.062 80.1965 148.165 80.1187 148.295 80.1187C148.425 80.1187 148.541 80.177 148.541 80.2613C148.541 80.3455 148.444 80.4168 148.308 80.4233Z" fill="#EB996E"/>
<path d="M152.105 79.3995C152.037 79.403 151.971 79.3799 151.92 79.3351C151.869 79.2903 151.838 79.2273 151.833 79.1597C151.826 79.1261 151.827 79.0915 151.833 79.0579C151.84 79.0243 151.854 78.9925 151.873 78.9642C151.892 78.9358 151.917 78.9116 151.946 78.8929C151.974 78.8742 152.007 78.8614 152.04 78.8551C152.109 78.8533 152.175 78.8778 152.226 78.9237C152.276 78.9696 152.307 79.0332 152.312 79.1014C152.324 79.1683 152.308 79.2371 152.27 79.2928C152.231 79.3485 152.172 79.3868 152.105 79.3995Z" fill="#EB996E"/>
<path d="M171.947 76.3214C171.914 76.328 171.879 76.3277 171.846 76.3208C171.813 76.3138 171.782 76.3003 171.754 76.2809C171.726 76.2616 171.702 76.2368 171.684 76.2082C171.666 76.1795 171.654 76.1475 171.649 76.1141C171.638 76.0822 171.634 76.0484 171.636 76.0148C171.639 75.9813 171.648 75.9486 171.664 75.9188C171.68 75.889 171.702 75.8628 171.728 75.8418C171.754 75.8208 171.785 75.8054 171.817 75.7966C171.883 75.7882 171.95 75.8044 172.005 75.8422C172.06 75.8799 172.1 75.9366 172.116 76.0013C172.132 76.0661 172.123 76.1345 172.092 76.1935C172.061 76.2525 172.009 76.298 171.947 76.3214Z" fill="#EB996E"/>
<path d="M174.779 75.9651C174.708 75.9588 174.642 75.9287 174.59 75.8796C174.539 75.8305 174.507 75.7653 174.497 75.695C174.488 75.6247 174.504 75.5534 174.541 75.4929C174.578 75.4324 174.634 75.3863 174.701 75.3624C174.831 75.3624 174.954 75.4661 174.98 75.6281C174.996 75.6993 174.984 75.7739 174.946 75.8366C174.909 75.8993 174.849 75.9453 174.779 75.9651Z" fill="#EB996E"/>
<path d="M169.433 76.464C169.392 76.468 169.35 76.4601 169.314 76.4412C169.277 76.4223 169.247 76.3933 169.226 76.3575C169.206 76.3218 169.196 76.2809 169.198 76.2398C169.201 76.1987 169.215 76.159 169.239 76.1257C169.263 76.0923 169.296 76.0667 169.335 76.0518C169.373 76.0369 169.415 76.0334 169.455 76.0418C169.496 76.0502 169.533 76.07 169.562 76.0989C169.591 76.1278 169.612 76.1646 169.621 76.2048C169.628 76.2638 169.613 76.3236 169.578 76.3717C169.543 76.4199 169.491 76.4529 169.433 76.464Z" fill="#EB996E"/>
<path d="M171.642 79.2569C171.578 79.2788 171.507 79.2757 171.445 79.2481C171.382 79.2205 171.333 79.1704 171.305 79.1079C171.288 79.0781 171.277 79.0453 171.272 79.0112C171.268 78.9771 171.27 78.9425 171.279 78.9093C171.288 78.8761 171.304 78.8451 171.325 78.818C171.346 78.7909 171.373 78.7683 171.403 78.7514C171.467 78.7353 171.534 78.7418 171.594 78.7699C171.654 78.798 171.702 78.846 171.73 78.9057C171.758 78.9653 171.765 79.0329 171.749 79.097C171.733 79.1611 171.695 79.2176 171.642 79.2569Z" fill="#EB996E"/>
<path d="M174.053 78.6802C174.024 78.6762 173.996 78.6665 173.971 78.6516C173.945 78.6367 173.923 78.6169 173.906 78.5933C173.888 78.5698 173.876 78.543 173.869 78.5145C173.862 78.486 173.86 78.4564 173.865 78.4274C173.886 78.3721 173.927 78.327 173.98 78.3016C174.033 78.2762 174.094 78.2725 174.15 78.2914C174.208 78.2994 174.259 78.3298 174.295 78.3759C174.33 78.422 174.345 78.4801 174.338 78.5376C174.319 78.5941 174.278 78.6407 174.225 78.6674C174.171 78.6941 174.11 78.6987 174.053 78.6802Z" fill="#EB996E"/>
<path d="M169.245 240.175L169.089 225.77C169.089 225.77 159.479 212.453 163.257 198.009C163.257 198.009 169.523 193.603 186.326 196.182C186.326 196.182 207.418 175.634 235.691 180.863C263.963 186.093 266.594 210.723 266.866 217.43C267.138 224.137 267.073 237.162 257.34 249.895L256.692 262.531C256.692 262.531 254.373 267.287 247.666 266.963C240.959 266.639 241.335 265.667 241.335 265.667C241.335 265.667 232.911 272.465 232.548 274.24C232.185 276.016 230.863 282.748 230.863 282.748C230.863 282.748 227.941 286.721 221.636 287.187C219.142 287.364 216.647 286.853 214.423 285.71C213.58 285.283 212.83 284.692 212.217 283.972C211.604 283.252 211.14 282.418 210.853 281.517C210.25 279.522 209.233 277.678 207.867 276.104C206.501 274.531 204.818 273.264 202.928 272.387L198.573 271.246C198.573 271.246 196.817 272.847 190.707 273.501C184.596 274.156 184.57 271.992 184.57 271.992C184.57 271.992 175.064 274.188 167.923 264.864C162.285 257.489 159.22 244.225 169.245 240.175Z" fill="#2F54EB"/>
<path d="M227.85 241.004C227.945 240.85 228.051 240.703 228.167 240.564C228.381 240.278 228.699 239.864 229.094 239.319C229.891 238.237 231.006 236.637 232.237 234.57C233.67 232.146 234.913 229.616 235.956 227.001C236.546 225.523 237.097 223.949 237.583 222.296C238.069 220.644 238.477 218.856 238.049 217.112C237.535 215.423 236.431 213.974 234.939 213.03C233.564 212.107 232.09 211.34 230.546 210.743C227.93 209.71 225.181 209.055 222.381 208.799C220.493 208.62 218.592 208.62 216.704 208.799C216.056 208.857 215.518 208.922 215.162 208.974C214.985 209.01 214.805 209.03 214.624 209.032C214.798 208.977 214.975 208.936 215.156 208.909C215.499 208.837 216.017 208.747 216.691 208.669C218.585 208.433 220.499 208.397 222.4 208.559C225.241 208.773 228.034 209.408 230.688 210.444C232.258 211.041 233.756 211.813 235.153 212.745C236.714 213.733 237.864 215.252 238.393 217.022C238.846 218.881 238.393 220.735 237.92 222.387C237.447 224.04 236.864 225.627 236.261 227.118C235.202 229.741 233.932 232.274 232.464 234.693C231.472 236.32 230.391 237.891 229.224 239.397C228.809 239.935 228.472 240.337 228.245 240.602C228.127 240.749 227.994 240.884 227.85 241.004Z" fill="#263238"/>
<path d="M188.322 196.811C188.371 196.915 188.404 197.027 188.419 197.141C188.482 197.472 188.497 197.81 188.464 198.145C188.301 199.385 187.731 200.536 186.844 201.418C185.788 202.584 184.181 203.537 182.613 204.82C180.895 206.201 179.309 207.739 177.876 209.414C175.266 212.459 173.162 215.903 171.642 219.614C171.059 221.039 170.677 222.206 170.418 223.048C170.307 223.43 170.21 223.748 170.133 224.001C170.106 224.113 170.067 224.221 170.016 224.325C170.017 224.208 170.034 224.093 170.068 223.981C170.133 223.722 170.204 223.404 170.295 223.009C170.603 221.828 170.979 220.667 171.422 219.529C172.886 215.757 174.984 212.261 177.623 209.194C179.07 207.505 180.675 205.96 182.419 204.58C184.019 203.284 185.626 202.37 186.676 201.256C187.546 200.417 188.127 199.323 188.335 198.133C188.378 197.693 188.374 197.249 188.322 196.811Z" fill="#263238"/>
<g opacity="0.5">
<path d="M199.623 198.573L208.222 200.77C208.222 200.77 220.813 186.624 234.641 183.041L229.457 181.816C218.093 184.378 207.724 190.202 199.623 198.573Z" fill="black"/>
</g>
<path d="M231.835 182.36C220.527 184.903 210.238 190.77 202.293 199.208L199.623 198.56C199.623 198.56 211.818 185.179 229.463 181.803L231.835 182.36Z" fill="#2F54EB"/>
<g opacity="0.7">
<path d="M231.835 182.36C220.527 184.903 210.238 190.77 202.293 199.208L199.623 198.56C199.623 198.56 211.818 185.179 229.463 181.803L231.835 182.36Z" fill="black"/>
</g>
<path d="M165.091 243.11C169.854 236.293 181.803 238.38 187.253 244.51C192.702 250.64 195.119 259.077 191.575 266.347C190.059 269.451 187.155 272.179 183.702 272.115C185.425 270.182 186.66 267.864 187.302 265.355C187.945 262.846 187.977 260.22 187.395 257.697C186.287 252.61 183.08 248.119 179.023 244.853C176.969 243.194 174.656 241.374 172.025 241.114C169.394 240.855 167.288 240.777 165.091 243.11Z" fill="#2F54EB"/>
<g opacity="0.3">
<path d="M165.091 243.11C169.854 236.293 181.803 238.38 187.253 244.51C192.702 250.64 195.119 259.077 191.575 266.347C190.059 269.451 187.155 272.179 183.702 272.115C185.425 270.182 186.66 267.864 187.302 265.355C187.945 262.846 187.977 260.22 187.395 257.697C186.287 252.61 183.08 248.119 179.023 244.853C176.969 243.194 174.656 241.374 172.025 241.114C169.394 240.855 167.288 240.777 165.091 243.11Z" fill="black"/>
</g>
<g opacity="0.3">
<path d="M228.329 240.602C228.239 242.047 229.561 243.324 230.993 243.493C231.716 243.536 232.439 243.407 233.102 243.116C233.766 242.826 234.351 242.382 234.809 241.821C235.712 240.688 236.373 239.382 236.753 237.985C238.244 233.312 239.015 226.32 238.231 221.506C236.17 227.772 232.49 235.587 228.219 240.615" fill="black"/>
</g>
<g opacity="0.3">
<path d="M232.846 219.056C231.919 216.315 229.081 214.715 226.366 213.769C223.581 212.797 220.673 212.226 217.728 212.071C216.802 211.97 215.864 212.06 214.974 212.337C214.532 212.48 214.135 212.734 213.818 213.075C213.502 213.415 213.278 213.83 213.166 214.281C213.108 214.65 213.165 215.029 213.329 215.366C213.494 215.702 213.758 215.979 214.086 216.16C218.782 221.595 222.286 227.955 224.37 234.829C224.459 235.131 224.627 235.404 224.858 235.618C225.088 235.833 225.373 235.981 225.681 236.047C225.988 236.114 226.309 236.096 226.607 235.995C226.906 235.895 227.172 235.716 227.377 235.477C229.58 232.963 230.85 229.573 231.991 226.359C232.807 224.001 233.649 221.422 232.846 219.056Z" fill="black"/>
</g>
<g opacity="0.3">
<path d="M170.891 220.32C167.945 215.738 166.429 210.383 166.536 204.936C166.536 203.79 166.705 202.545 167.502 201.729C168.467 200.737 170.035 200.718 171.39 200.809C175.207 201.047 179.001 201.58 182.736 202.403C183.028 202.468 183.384 202.565 183.475 202.843C183.577 203.058 183.608 203.3 183.563 203.533C183.517 203.767 183.398 203.979 183.222 204.139C177.422 207.697 173.308 214.242 171.117 220.644" fill="black"/>
</g>
<path d="M163.665 198.521C163.678 198.848 163.663 199.175 163.62 199.5C163.568 200.148 163.51 201.036 163.471 202.157C163.274 206.691 163.844 211.226 165.156 215.57C165.596 216.989 166.057 218.24 166.497 219.277C166.938 220.314 167.32 221.136 167.599 221.694C167.763 221.977 167.898 222.277 168.001 222.588C167.804 222.327 167.631 222.049 167.482 221.759C167.165 221.214 166.75 220.398 166.283 219.367C165.736 218.163 165.26 216.928 164.858 215.667C164.378 214.118 163.993 212.54 163.704 210.943C163.215 208.048 163.056 205.107 163.231 202.176C163.303 201.055 163.393 200.141 163.49 199.519C163.517 199.182 163.575 198.848 163.665 198.521Z" fill="#FAFAFA"/>
<path d="M228.958 181.349C228.851 181.403 228.738 181.444 228.621 181.472L227.649 181.758C227.221 181.874 226.703 182.017 226.107 182.211C225.511 182.406 224.811 182.593 224.091 182.859C222.595 183.358 220.851 184.026 218.94 184.842C217.028 185.658 214.974 186.669 212.881 187.836C210.788 189.002 208.87 190.253 207.166 191.439C205.461 192.624 203.991 193.791 202.792 194.808C202.176 195.294 201.651 195.78 201.178 196.189C200.705 196.597 200.31 196.96 199.992 197.264L199.241 197.945C199.066 198.1 198.969 198.178 198.962 198.165C199.03 198.068 199.108 197.979 199.195 197.899L199.902 197.167C200.206 196.849 200.589 196.474 201.055 196.052C201.522 195.631 202.027 195.132 202.636 194.627C203.822 193.584 205.293 192.411 206.984 191.186C208.833 189.876 210.747 188.661 212.719 187.544C214.699 186.445 216.735 185.448 218.817 184.557C220.761 183.753 222.51 183.105 224.001 182.613C224.752 182.36 225.439 182.185 226.042 182.01C226.645 181.835 227.169 181.706 227.604 181.609L228.589 181.388C228.709 181.357 228.834 181.343 228.958 181.349Z" fill="#FAFAFA"/>
<path d="M236.52 215.59C236.468 215.648 235.49 214.65 233.611 213.451C232.508 212.755 231.351 212.15 230.15 211.643C228.685 211.03 227.166 210.551 225.614 210.211C222.778 209.588 219.861 209.411 216.97 209.686C214.754 209.913 213.412 210.282 213.393 210.211C213.699 210.097 214.013 210.006 214.333 209.939C215.185 209.718 216.051 209.556 216.925 209.453C219.844 209.1 222.802 209.245 225.673 209.881C227.249 210.227 228.79 210.721 230.273 211.358C231.484 211.884 232.645 212.519 233.74 213.257L234.388 213.704L234.952 214.151C235.259 214.378 235.549 214.627 235.82 214.896C236.072 215.108 236.306 215.34 236.52 215.59Z" fill="#FAFAFA"/>
<path d="M178.556 271.065C178.449 271.052 178.344 271.024 178.245 270.981C177.953 270.892 177.665 270.788 177.384 270.67C176.334 270.255 175.322 269.752 174.357 269.166C171.141 267.242 168.464 264.535 166.574 261.298C164.685 258.062 163.644 254.4 163.549 250.653C163.511 249.527 163.569 248.399 163.724 247.283C163.769 246.888 163.84 246.583 163.873 246.376C163.891 246.271 163.917 246.167 163.951 246.065C163.945 246.477 163.913 246.888 163.853 247.296C163.75 248.41 163.726 249.529 163.782 250.646C163.943 254.339 165.001 257.937 166.865 261.129C168.73 264.321 171.343 267.011 174.481 268.965C175.429 269.56 176.416 270.09 177.435 270.553C178.155 270.864 178.563 271.039 178.556 271.065Z" fill="#FAFAFA"/>
<g opacity="0.2">
<path d="M180.254 256.096C179.75 255.924 179.207 255.903 178.692 256.036C178.176 256.168 177.71 256.448 177.351 256.841C177.001 257.242 176.745 257.716 176.603 258.228C176.46 258.741 176.435 259.279 176.528 259.803C176.626 260.817 177.062 261.769 177.766 262.505C178.35 263.07 179.099 263.436 179.904 263.548C180.407 263.537 180.897 263.387 181.321 263.117C181.745 262.846 182.087 262.464 182.308 262.012C182.588 261.494 182.756 260.923 182.803 260.336C182.85 259.749 182.774 259.159 182.581 258.603C182.388 258.047 182.082 257.537 181.681 257.105C181.281 256.674 180.795 256.33 180.254 256.096Z" fill="black"/>
</g>
<path d="M179.25 255.96C178.783 256.523 178.467 257.196 178.332 257.915C178.196 258.634 178.246 259.376 178.476 260.07C178.706 260.765 179.109 261.39 179.647 261.886C180.184 262.382 180.839 262.733 181.55 262.907C181.259 263.168 180.91 263.357 180.531 263.457C180.153 263.557 179.756 263.566 179.373 263.483C178.422 263.167 177.604 262.54 177.052 261.704C176.499 260.867 176.244 259.869 176.327 258.87C176.368 258.05 176.701 257.273 177.267 256.679C177.816 256.202 178.523 255.946 179.25 255.96Z" fill="#2F54EB"/>
<g opacity="0.4">
<path d="M179.25 255.96C178.783 256.523 178.467 257.196 178.332 257.915C178.196 258.634 178.246 259.376 178.476 260.07C178.706 260.765 179.109 261.39 179.647 261.886C180.184 262.382 180.839 262.733 181.55 262.907C181.259 263.168 180.91 263.357 180.531 263.457C180.153 263.557 179.756 263.566 179.373 263.483C178.422 263.167 177.604 262.54 177.052 261.704C176.499 260.867 176.244 259.869 176.327 258.87C176.368 258.05 176.701 257.273 177.267 256.679C177.816 256.202 178.523 255.946 179.25 255.96Z" fill="black"/>
</g>
<g opacity="0.2">
<path d="M170.703 252.409C170.216 252.247 169.692 252.229 169.196 252.358C168.699 252.486 168.25 252.756 167.903 253.135C167.565 253.521 167.318 253.978 167.18 254.473C167.042 254.967 167.017 255.487 167.106 255.992C167.214 256.964 167.635 257.874 168.305 258.584C168.871 259.129 169.595 259.48 170.372 259.589C170.856 259.579 171.328 259.435 171.736 259.175C172.144 258.914 172.473 258.546 172.686 258.111C172.954 257.61 173.116 257.059 173.161 256.493C173.205 255.926 173.132 255.356 172.946 254.819C172.76 254.282 172.464 253.79 172.078 253.373C171.692 252.956 171.224 252.623 170.703 252.396" fill="black"/>
</g>
<path d="M169.737 252.292C169.284 252.835 168.978 253.484 168.846 254.179C168.714 254.873 168.762 255.59 168.984 256.261C169.207 256.932 169.597 257.535 170.118 258.013C170.638 258.491 171.272 258.828 171.96 258.993C171.678 259.245 171.34 259.428 170.974 259.526C170.608 259.624 170.225 259.634 169.854 259.556C168.936 259.249 168.148 258.643 167.616 257.835C167.083 257.026 166.838 256.063 166.918 255.098C166.956 254.311 167.276 253.563 167.819 252.992C168.357 252.523 169.05 252.274 169.763 252.292" fill="#2F54EB"/>
<g opacity="0.4">
<path d="M169.737 252.292C169.284 252.835 168.978 253.484 168.846 254.179C168.714 254.873 168.762 255.59 168.984 256.261C169.207 256.932 169.597 257.535 170.118 258.013C170.638 258.491 171.272 258.828 171.96 258.993C171.678 259.245 171.34 259.428 170.974 259.526C170.608 259.624 170.225 259.634 169.854 259.556C168.936 259.249 168.148 258.643 167.616 257.835C167.083 257.026 166.838 256.063 166.918 255.098C166.956 254.311 167.276 253.563 167.819 252.992C168.357 252.523 169.05 252.274 169.763 252.292" fill="black"/>
</g>
<path d="M195.288 234.576C195.288 234.576 195.353 234.576 195.379 234.531H195.424L195.288 234.576Z" fill="#263238"/>
<path d="M200.187 236.598C199.879 235.769 199.283 235.079 198.508 234.654C197.893 234.346 197.214 234.188 196.526 234.194H196.467C196.084 234.217 195.712 234.328 195.379 234.518C194.659 234.876 194.043 235.412 193.589 236.076C193.136 236.739 192.859 237.508 192.787 238.308C192.741 239.332 193 240.346 193.531 241.223C194.061 242.099 194.839 242.799 195.767 243.233C196.38 243.548 197.079 243.653 197.757 243.531C198.428 243.339 199.015 242.926 199.422 242.358C200.042 241.549 200.439 240.591 200.573 239.58C200.707 238.569 200.574 237.541 200.187 236.598Z" fill="#263238"/>
<path d="M175.258 228.271C175.285 228.255 175.313 228.242 175.342 228.232H175.381L175.258 228.271Z" fill="#263238"/>
<path d="M179.496 230.04C179.235 229.311 178.717 228.702 178.038 228.329C177.508 228.062 176.921 227.924 176.327 227.928H176.256C175.925 227.95 175.604 228.047 175.316 228.213C174.692 228.522 174.157 228.986 173.763 229.562C173.369 230.137 173.13 230.804 173.068 231.498C173.029 232.385 173.255 233.263 173.717 234.021C174.178 234.779 174.855 235.382 175.66 235.755C176.182 236.064 176.803 236.159 177.393 236.018C177.983 235.878 178.495 235.514 178.822 235.004C179.354 234.305 179.696 233.481 179.814 232.611C179.933 231.741 179.823 230.855 179.496 230.04Z" fill="#263238"/>
<path d="M180.792 240.868C180.929 240.877 181.064 240.903 181.194 240.946C181.575 241.043 181.952 241.16 182.321 241.296C183.685 241.795 184.969 242.492 186.132 243.363C187.871 244.649 189.351 246.255 190.493 248.093C191.877 250.352 192.797 252.863 193.201 255.48C193.615 258.093 193.584 260.757 193.11 263.36C192.767 265.514 191.837 267.532 190.421 269.192C189.448 270.292 188.186 271.097 186.78 271.518C186.272 271.685 185.738 271.758 185.205 271.732C185.725 271.661 186.239 271.549 186.741 271.395C188.1 270.934 189.31 270.118 190.246 269.03C191.599 267.391 192.483 265.416 192.806 263.315C193.259 260.744 193.279 258.116 192.864 255.539C192.469 252.964 191.573 250.492 190.227 248.262C189.116 246.446 187.68 244.851 185.989 243.557C184.85 242.686 183.601 241.967 182.276 241.419C181.349 241.056 180.792 240.9 180.792 240.868Z" fill="#263238"/>
<path d="M174.604 233.202C174.571 233.202 174.403 233.086 174.228 232.781C174.017 232.381 173.904 231.937 173.897 231.485C173.899 231.033 174.011 230.589 174.221 230.189C174.396 229.885 174.558 229.742 174.597 229.768C174.408 230.33 174.286 230.913 174.234 231.505C174.294 232.082 174.418 232.652 174.604 233.202Z" fill="#FAFAFA"/>
<path d="M194.141 240.363C194.102 240.363 193.94 240.214 193.797 239.87C193.623 239.414 193.576 238.919 193.661 238.438C193.735 237.959 193.942 237.51 194.258 237.142C194.504 236.857 194.711 236.753 194.737 236.786C194.4 237.315 194.148 237.895 193.992 238.503C193.936 239.127 193.987 239.756 194.141 240.363Z" fill="#FAFAFA"/>
<path d="M206.433 274.603C206.401 274.655 205.617 274.111 204.243 273.424C202.444 272.555 200.583 271.819 198.677 271.22C196.441 270.495 194.407 269.873 192.949 269.354C192.223 269.101 191.653 268.881 191.238 268.706C191.026 268.633 190.824 268.535 190.635 268.415C191.444 268.61 192.243 268.848 193.026 269.127C194.491 269.587 196.539 270.171 198.781 270.903C200.705 271.501 202.571 272.275 204.353 273.216C204.697 273.391 205.001 273.579 205.254 273.741C205.479 273.874 205.696 274.022 205.902 274.182C206.097 274.298 206.276 274.44 206.433 274.603Z" fill="#263238"/>
<path d="M252.409 253.731C252.235 254.051 252.036 254.356 251.813 254.645C251.424 255.221 250.809 256.031 250.024 257.003C247.939 259.51 245.674 261.862 243.246 264.041C240.415 266.633 237.777 268.829 235.911 270.488L233.708 272.432C233.451 272.688 233.174 272.922 232.878 273.132C233.102 272.848 233.349 272.584 233.617 272.341C234.11 271.842 234.842 271.143 235.756 270.287C237.583 268.583 240.194 266.328 243.013 263.768C245.428 261.598 247.707 259.28 249.837 256.828C250.647 255.882 251.288 255.098 251.709 254.547C251.921 254.258 252.155 253.985 252.409 253.731Z" fill="#263238"/>
<g opacity="0.2">
<path d="M241.393 265.732C244.879 266.017 248.839 264.948 251.314 262.492C252.556 261.227 253.395 259.622 253.724 257.88C254.053 256.138 253.857 254.338 253.161 252.707C251.126 255.61 248.832 258.695 246.033 261.066C244.27 262.563 243.097 264.378 241.393 265.751" fill="black"/>
</g>
<g opacity="0.5">
<path d="M228.977 184.233C233.513 190.907 242.812 193.02 247.309 199.707C249.052 202.299 249.901 205.358 250.744 208.364L261.112 245.773C261.539 237.667 259.589 229.645 257.645 221.759C255.735 213.983 253.82 206.207 251.897 198.431C251.58 196.691 250.948 195.024 250.031 193.512C249.007 192.041 247.484 191.011 246 190.013C240.674 186.436 235.192 182.794 228.945 181.369" fill="black"/>
</g>
<g opacity="0.3">
<path d="M197.174 204.438C197.459 205.345 196.214 206.582 194.277 208.118C193.298 208.883 192.158 209.758 190.901 210.71C189.644 211.663 188.309 212.706 186.903 213.834C185.497 214.961 184.226 216.082 183.015 217.074C181.803 218.065 180.747 219.056 179.775 219.853C177.876 221.441 176.418 222.407 175.582 221.94C174.746 221.473 174.805 219.633 175.913 217.054C176.575 215.558 177.418 214.148 178.42 212.855C180.875 209.673 184.034 207.102 187.648 205.345C189.119 204.63 190.67 204.092 192.268 203.744C195.048 203.206 196.901 203.569 197.174 204.438Z" fill="white"/>
</g>
<path d="M179.84 255.578C179.364 255.75 178.87 255.869 178.369 255.934C177.891 256.099 177.398 256.214 176.898 256.278C177.28 255.917 177.769 255.689 178.291 255.63C178.789 255.45 179.331 255.432 179.84 255.578Z" fill="#FAFAFA"/>
<path d="M170.003 252.007C169.552 252.114 169.096 252.194 168.636 252.247C167.903 252.409 167.34 252.714 167.301 252.629C167.262 252.545 167.754 252.098 168.558 251.917C168.793 251.835 169.041 251.801 169.289 251.817C169.538 251.832 169.78 251.897 170.003 252.007Z" fill="#FAFAFA"/>
<path d="M213.626 282.139C213.536 282.185 212.674 280.733 211.475 279.029C210.276 277.325 209.207 276.022 209.278 275.957C210.235 276.794 211.069 277.763 211.754 278.834C212.528 279.844 213.158 280.956 213.626 282.139Z" fill="#FAFAFA"/>
<path d="M175.025 214.132C175.116 214.19 173.839 216.076 172.731 218.603C171.623 221.13 171.092 223.34 170.988 223.314C171.003 222.818 171.09 222.327 171.247 221.856C171.543 220.695 171.936 219.562 172.42 218.467C172.9 217.37 173.47 216.314 174.124 215.311C174.373 214.881 174.676 214.485 175.025 214.132Z" fill="#FAFAFA"/>
<path d="M206.44 201.586C205.192 201.464 203.968 201.166 202.805 200.699C201.605 200.333 200.46 199.805 199.403 199.13C199.448 199.04 200.977 199.701 202.915 200.375C204.852 201.048 206.466 201.489 206.44 201.586Z" fill="#FAFAFA"/>
<path d="M256.984 191.082C255.469 193.151 253.241 194.584 250.731 195.106C251.867 194.596 252.977 194.027 254.055 193.402C255.07 192.679 256.047 191.905 256.984 191.082Z" fill="#EB996E"/>
<path d="M275.964 186.747C272.478 178.712 237.654 150.187 237.654 150.187L218.02 175.679C218.305 175.297 250.05 194.633 250.05 194.633L259.414 237.324L261.027 244.944C261.027 244.944 256.815 248.618 256.99 252.493C257.101 255.085 251.158 260.664 251.158 260.664C249.746 259.492 248.839 259.161 248.126 259.297L241.808 265.213L243.311 266.587C244.987 268.116 247.193 268.932 249.461 268.862L260.263 268.531C261.803 268.487 263.266 267.843 264.339 266.736C267.663 263.321 274.674 255.681 274.81 252.001C274.895 249.94 274.908 247.977 274.901 246.396C274.869 246.376 279.444 194.782 275.964 186.747Z" fill="#FFBE9D"/>
<path d="M265.622 255.014C265.443 255.175 265.24 255.307 265.019 255.403C264.624 255.623 264.015 255.882 263.308 256.271C262.495 256.741 261.776 257.358 261.189 258.092C260.447 259.017 259.574 259.829 258.597 260.502C256.791 261.705 254.647 262.295 252.48 262.187C252.1 262.187 251.723 262.121 251.366 261.993C251.221 261.942 251.095 261.85 251.003 261.728C250.911 261.606 250.857 261.459 250.847 261.306C250.841 261.211 250.859 261.115 250.898 261.028C250.938 260.941 250.998 260.865 251.074 260.807C251.184 260.742 251.256 260.755 251.256 260.762C251.256 260.768 251.197 260.762 251.113 260.859C251.057 260.916 251.015 260.986 250.992 261.063C250.968 261.139 250.963 261.221 250.977 261.3C250.996 261.422 251.049 261.536 251.13 261.629C251.212 261.722 251.318 261.79 251.437 261.824C251.777 261.926 252.132 261.97 252.487 261.954C254.592 261.995 256.661 261.394 258.416 260.23C259.366 259.576 260.219 258.791 260.95 257.898C261.568 257.146 262.328 256.523 263.185 256.064C263.924 255.694 264.54 255.474 264.954 255.286C265.169 255.176 265.392 255.085 265.622 255.014Z" fill="#EB996E"/>
<path d="M260.684 260.639C260.729 260.723 259.835 261.248 258.876 262.064C257.917 262.881 257.243 263.665 257.165 263.606C257.518 262.9 258.034 262.287 258.669 261.818C259.233 261.265 259.926 260.86 260.684 260.639Z" fill="#EB996E"/>
<path d="M265.032 242.955C265.032 243.052 264.08 243.11 263.036 243.603C261.993 244.095 261.332 244.788 261.261 244.717C261.668 244.106 262.235 243.618 262.9 243.305C263.564 242.992 264.301 242.867 265.032 242.942V242.955Z" fill="#EB996E"/>
<path d="M258.293 263.969C258.293 264.028 257.6 263.691 256.433 263.419C254.493 262.939 252.456 263.025 250.562 263.665C250.351 263.744 250.134 263.809 249.914 263.859C249.673 263.903 249.423 263.85 249.221 263.71L247.536 262.44C246.993 262.081 246.483 261.673 246.013 261.222C246.595 261.517 247.152 261.86 247.679 262.246L249.422 263.431C249.7 263.645 250.07 263.483 250.478 263.334C250.902 263.187 251.335 263.066 251.774 262.971C253.342 262.662 254.961 262.728 256.498 263.166C256.959 263.297 257.408 263.469 257.839 263.678C258.144 263.853 258.306 263.95 258.293 263.969Z" fill="#EB996E"/>
<path d="M185.023 164.955C180.87 163.769 179.029 163.257 179.029 163.257V161.352H180.682C182.341 161.352 184.725 159.285 184.725 159.285L188.27 153.861L188.724 150.381C188.348 146.092 183.177 147.789 183.177 147.789C182.93 146.292 176.308 144.789 171.331 143.862C169.664 143.551 167.949 143.614 166.31 144.046C164.67 144.479 163.147 145.271 161.851 146.364L157.075 150.394L142.767 162.907L105.831 194.108L81.5508 186.942C81.5508 186.942 73.8267 210.561 72.576 219.024C70.159 235.282 92.5085 246.117 102.384 237.751C110.043 231.271 154.717 183.138 162.117 175.161H162.175C166.711 174.584 174.409 169.977 174.409 169.977L178.356 170.443C178.356 170.443 188.84 172.446 190.084 170.392C191.017 168.804 189.177 166.141 185.023 164.955Z" fill="#FFBE9D"/>
<path d="M163.516 160.237C163.516 160.237 163.62 160.386 163.743 160.691C163.923 161.121 164.066 161.565 164.171 162.019C164.523 163.521 164.58 165.077 164.339 166.601C164.101 168.125 163.563 169.587 162.758 170.904C162.519 171.302 162.246 171.679 161.942 172.031C161.728 172.284 161.598 172.413 161.579 172.394C161.559 172.374 161.994 171.798 162.551 170.787C164.022 168.132 164.515 165.046 163.944 162.065C163.717 160.931 163.458 160.257 163.516 160.237Z" fill="#EB996E"/>
<path d="M166.193 147.005C166.325 146.971 166.459 146.947 166.594 146.934C166.867 146.895 167.242 146.843 167.767 146.798C169.215 146.639 170.677 146.654 172.122 146.843C173.124 146.991 174.1 147.283 175.018 147.712C176.085 148.197 177.027 148.92 177.772 149.824C178.622 150.831 179.092 152.103 179.101 153.42C179.089 154.119 178.913 154.804 178.589 155.423C178.244 156.046 177.807 156.614 177.293 157.108C176.324 158.044 175.262 158.88 174.124 159.602C173.586 159.965 173.015 160.277 172.42 160.536C172.111 160.658 171.78 160.714 171.448 160.698C171.275 160.689 171.106 160.645 170.952 160.566C170.798 160.488 170.662 160.378 170.554 160.244C170.354 159.978 170.255 159.649 170.275 159.317C170.282 159.015 170.337 158.715 170.437 158.43C170.624 157.9 170.879 157.397 171.195 156.933C171.766 156.096 172.531 155.409 173.424 154.93L173.463 155.157L169.044 154.315L167.845 154.068C167.703 154.048 167.564 154.011 167.43 153.958C167.574 153.958 167.717 153.971 167.858 153.997L169.063 154.185L173.502 154.917L173.846 154.976L173.541 155.144C172.694 155.617 171.97 156.283 171.428 157.088C171.129 157.534 170.892 158.018 170.722 158.527C170.612 158.768 170.561 159.033 170.575 159.298C170.588 159.563 170.666 159.821 170.8 160.05C171 160.235 171.254 160.352 171.525 160.385C171.797 160.418 172.071 160.364 172.31 160.231C172.882 159.982 173.429 159.678 173.943 159.324C175.061 158.613 176.103 157.791 177.053 156.868C177.548 156.432 177.953 155.902 178.243 155.309C178.533 154.717 178.704 154.073 178.744 153.414C178.739 152.173 178.301 150.972 177.507 150.018C176.792 149.145 175.891 148.443 174.869 147.964C173.979 147.537 173.032 147.24 172.057 147.083C170.633 146.874 169.19 146.822 167.754 146.928L166.575 146.999C166.448 147.017 166.32 147.019 166.193 147.005Z" fill="#EB996E"/>
<path d="M183.229 147.99C183.294 148.218 183.331 148.453 183.339 148.69C183.403 149.336 183.429 149.985 183.417 150.634C183.421 152.783 182.865 154.896 181.803 156.764C180.507 158.935 178.479 160.335 176.8 160.555C176.466 160.601 176.126 160.566 175.808 160.453C175.49 160.34 175.204 160.153 174.973 159.907C174.853 159.77 174.761 159.612 174.701 159.44C174.674 159.384 174.663 159.321 174.669 159.259C174.78 159.46 174.915 159.647 175.07 159.816C175.299 160.021 175.572 160.17 175.867 160.253C176.162 160.336 176.473 160.351 176.775 160.296C178.317 160.043 180.274 158.663 181.511 156.576C182.541 154.751 183.112 152.703 183.177 150.608C183.261 148.995 183.17 147.99 183.229 147.99Z" fill="#EB996E"/>
<path d="M174.059 166.497C174.02 166.452 174.357 166.16 174.759 165.577C175.275 164.827 175.596 163.961 175.692 163.056C175.775 162.148 175.625 161.234 175.258 160.399C174.979 159.751 174.707 159.402 174.753 159.369C175.068 159.612 175.315 159.931 175.472 160.296C175.929 161.151 176.123 162.122 176.029 163.087C175.936 164.052 175.559 164.968 174.947 165.72C174.72 166.048 174.415 166.315 174.059 166.497Z" fill="#EB996E"/>
<path d="M167.761 154.224C167.994 154.658 168.068 155.16 167.968 155.643C167.927 156.175 167.772 156.692 167.515 157.159C167.221 157.73 166.85 158.258 166.413 158.728C165.589 159.55 164.596 160.185 163.503 160.587C163.073 160.796 162.618 160.949 162.149 161.041C162.543 160.779 162.964 160.561 163.406 160.393C164.433 159.939 165.368 159.302 166.167 158.514C166.586 158.063 166.947 157.563 167.242 157.023C167.495 156.595 167.662 156.122 167.735 155.63C167.792 155.164 167.801 154.692 167.761 154.224Z" fill="#EB996E"/>
<path d="M195.314 156.129L177.085 166.063C177.085 166.063 186.838 168.48 195.696 177.844C200.512 182.944 204.28 188.939 206.79 195.489L224.934 183.41C224.934 183.41 215.168 161.287 195.314 156.129Z" fill="#455A64"/>
<path d="M180.3 165.694L195.016 157.27H195.061H195.106C197.709 157.97 200.211 159 202.552 160.335C205.213 161.874 207.695 163.704 209.952 165.791C212.455 168.086 214.749 170.6 216.808 173.301C219.04 176.182 221.019 179.249 222.724 182.47L222.795 182.606L222.666 182.691L221.713 183.339L207.703 192.702L207.535 192.812L207.464 192.631C205.483 187.729 202.76 183.161 199.39 179.088C196.712 175.895 193.614 173.079 190.182 170.716C187.942 169.162 185.555 167.833 183.054 166.75C182.172 166.374 181.485 166.102 181.012 165.953L180.481 165.771L180.3 165.707L180.487 165.745L181.032 165.901C181.511 166.05 182.205 166.29 183.092 166.646C185.63 167.691 188.053 168.994 190.324 170.534C193.792 172.885 196.92 175.699 199.623 178.9C203.031 182.987 205.785 187.577 207.788 192.508L207.548 192.437L221.551 183.06L222.504 182.412L222.445 182.626C220.751 179.425 218.787 176.375 216.575 173.508C214.532 170.82 212.255 168.318 209.771 166.031C207.526 163.952 205.059 162.127 202.416 160.587C200.1 159.252 197.624 158.216 195.048 157.503H195.139L180.3 165.694Z" fill="white"/>
<path d="M210.14 171.681C209.66 174.487 206.109 176.185 202.202 175.472C198.295 174.759 195.502 171.908 195.981 169.102C196.461 166.296 200.012 164.598 203.919 165.311C207.827 166.024 210.6 168.875 210.14 171.681Z" fill="#FAFAFA"/>
<path d="M201.645 172.582L200.997 173.282L200.271 172.575L200.88 171.927C200.358 171.38 199.98 170.712 199.778 169.983L201.003 169.452C201.167 170.129 201.514 170.748 202.008 171.24C202.507 171.726 202.831 171.765 203.018 171.558C203.666 170.858 200.783 169.024 202.26 167.391C202.908 166.704 203.893 166.581 204.982 167.391L205.63 166.704L206.356 167.411L205.74 168.059C206.149 168.51 206.454 169.045 206.634 169.627L205.429 170.191C205.267 169.633 204.971 169.124 204.567 168.707C204.062 168.221 203.718 168.221 203.524 168.435C202.915 169.083 205.772 170.942 204.308 172.562C203.705 173.23 202.72 173.359 201.645 172.582Z" fill="#455A64"/>
<path d="M184.46 163.354C184.46 163.354 187.551 164.922 184.583 167.242L180.047 165.48L184.46 163.354Z" fill="#FAFAFA"/>
<path d="M192.761 158.689C192.761 158.689 195.741 161.838 198.593 158.559L195.08 157.386L192.761 158.689Z" fill="#FAFAFA"/>
<path d="M205.766 188.419C205.766 188.419 209.777 185.179 212.116 189.559L207.639 192.553L205.766 188.419Z" fill="#FAFAFA"/>
<path d="M220.566 178.978C220.566 178.978 217.67 180.792 219.633 184.531L222.601 182.548L220.566 178.978Z" fill="#FAFAFA"/>
<path d="M209.829 189.488C209.821 189.728 209.743 189.959 209.605 190.155C209.466 190.35 209.273 190.5 209.049 190.586C208.826 190.672 208.582 190.69 208.348 190.639C208.114 190.587 207.9 190.467 207.734 190.295C207.568 190.122 207.456 189.905 207.413 189.669C207.37 189.433 207.397 189.19 207.491 188.97C207.586 188.75 207.743 188.562 207.943 188.431C208.143 188.299 208.378 188.23 208.617 188.231C208.779 188.234 208.94 188.268 209.088 188.333C209.237 188.397 209.372 188.491 209.484 188.608C209.597 188.724 209.685 188.862 209.745 189.014C209.804 189.165 209.832 189.326 209.829 189.488Z" fill="#455A64"/>
<path d="M221.985 181.758C221.977 181.995 221.898 182.225 221.76 182.418C221.621 182.611 221.429 182.759 221.207 182.844C220.985 182.929 220.743 182.947 220.511 182.895C220.279 182.843 220.067 182.724 219.902 182.553C219.737 182.382 219.626 182.166 219.583 181.932C219.54 181.699 219.566 181.457 219.659 181.239C219.752 181.02 219.907 180.833 220.105 180.702C220.304 180.571 220.536 180.501 220.774 180.5C220.936 180.503 221.096 180.538 221.245 180.602C221.394 180.667 221.528 180.76 221.641 180.877C221.754 180.994 221.842 181.132 221.901 181.283C221.96 181.434 221.989 181.595 221.985 181.758Z" fill="#455A64"/>
<path d="M196.947 158.566C196.947 159.013 196.299 159.376 195.554 159.376C194.808 159.376 194.167 159.013 194.167 158.566C194.167 158.118 194.815 157.756 195.56 157.756C196.305 157.756 196.947 158.112 196.947 158.566Z" fill="#455A64"/>
<path d="M185.101 165.285C185.164 165.564 185.139 165.856 185.029 166.12C184.92 166.384 184.73 166.608 184.488 166.759C184.246 166.911 183.962 166.984 183.677 166.968C183.391 166.952 183.118 166.847 182.894 166.669C182.671 166.49 182.508 166.247 182.429 165.972C182.35 165.697 182.358 165.405 182.452 165.135C182.546 164.865 182.722 164.631 182.956 164.465C183.189 164.299 183.467 164.21 183.754 164.21C184.074 164.178 184.394 164.273 184.646 164.474C184.897 164.675 185.061 164.966 185.101 165.285Z" fill="#455A64"/>
<path d="M196.273 164.592C196.273 165.279 195.417 165.836 194.361 165.836C193.305 165.836 192.456 165.298 192.456 164.592C192.456 163.886 193.311 163.348 194.368 163.348C195.424 163.348 196.273 163.944 196.273 164.592Z" fill="#FAFAFA"/>
<path d="M211.624 181.259C210.762 181.654 209.68 181.11 209.252 180.047C209.015 179.595 208.96 179.07 209.098 178.579C209.237 178.089 209.559 177.67 209.997 177.409C210.859 177.014 211.941 177.558 212.369 178.628C212.606 179.078 212.661 179.602 212.523 180.092C212.384 180.582 212.062 180.999 211.624 181.259Z" fill="#FAFAFA"/>
<path d="M184.732 159.285L192.216 167.184C192.216 167.184 195.21 170.612 197.225 168.992C199.241 167.372 196.409 164.352 195.813 163.471C195.217 162.59 187.881 153.693 187.881 153.693L184.732 159.285Z" fill="#FFBE9D"/>
<path d="M188.568 152.183C188.539 152.65 188.44 153.111 188.277 153.55C187.968 154.632 187.533 155.674 186.981 156.654C186.417 157.64 185.697 158.529 184.849 159.285C184.515 159.616 184.124 159.884 183.695 160.075C184.006 159.734 184.337 159.412 184.687 159.11C185.46 158.334 186.133 157.463 186.689 156.518C187.978 154.224 188.477 152.144 188.568 152.183Z" fill="#EB996E"/>
<path d="M118.96 183.015C118.855 183.14 118.738 183.256 118.61 183.358L117.567 184.291L113.679 187.667C110.38 190.499 105.799 194.394 100.719 198.638C95.6383 202.882 90.9144 206.712 87.48 209.356C85.7693 210.704 84.3631 211.76 83.3782 212.486L82.2377 213.296C82.111 213.398 81.9742 213.487 81.8295 213.561C81.945 213.447 82.0684 213.341 82.1988 213.244L83.3004 212.376C84.2595 211.624 85.6397 210.542 87.331 209.174C90.72 206.446 95.3597 202.623 100.466 198.379C105.572 194.134 110.147 190.292 113.517 187.486L117.476 184.188L118.565 183.306C118.687 183.197 118.82 183.1 118.96 183.015Z" fill="#EB996E"/>
</svg>
